<svg xmlns="http://www.w3.org/2000/svg" width="30" height="30" viewBox="0 0 30 30">
  <g id="Group_193937" data-name="Group 193937" transform="translate(22717.998 -8111)">
    <g id="Group_193828" data-name="Group 193828" transform="translate(-0.516 50)">
      <rect id="Rectangle_25969" data-name="Rectangle 25969" width="30" height="30" rx="5" transform="translate(-22717.482 8061)" fill="#1565c0"/>
    </g>
    <g id="Group_193829" data-name="Group 193829" transform="translate(-22710.617 8107.824)">
      <path id="Path_258804" data-name="Path 258804" d="M8.767,10.7a.317.317,0,0,0-.269-.063l-8.252,1.9A.317.317,0,0,0,0,12.85V23.641a.317.317,0,0,0,.269.314l8.252,1.27a.317.317,0,0,0,.366-.314V10.946A.317.317,0,0,0,8.767,10.7Z" transform="translate(0 0)" fill="#fff"/>
      <path id="Path_258805" data-name="Path 258805" d="M284,65.437H277.65a.317.317,0,1,1,0-.635h6.03V54.012h-6.03a.317.317,0,1,1,0-.635H284a.317.317,0,0,1,.317.317V65.12A.317.317,0,0,1,284,65.437Z" transform="translate(-269.082 -41.479)" fill="#fff"/>
      <path id="Path_258806" data-name="Path 258806" d="M46.7,186.172a.317.317,0,0,1-.3-.23l-.965-3.376-.965,3.376a.33.33,0,0,1-.61,0L42.582,181.5a.317.317,0,0,1,.6-.192l.005.018.965,3.375.965-3.376a.33.33,0,0,1,.61,0L46.7,184.7l.965-3.375a.314.314,0,0,1,.385-.22l.007,0a.317.317,0,0,1,.218.392L47,185.942A.317.317,0,0,1,46.7,186.172Z" transform="translate(-41.301 -165.388)" fill="#1565c0"/>
      <path id="Path_258807" data-name="Path 258807" d="M282.728,118.011H277.65a.317.317,0,1,1,0-.635h5.078a.317.317,0,1,1,0,.635Zm0,1.9H277.65a.317.317,0,1,1,0-.635h5.078a.317.317,0,0,1,0,.635Zm0,1.9H277.65a.317.317,0,1,1,0-.635h5.078a.317.317,0,1,1,0,.635Zm0,1.9H277.65a.317.317,0,1,1,0-.635h5.078a.317.317,0,0,1,0,.635Zm0,1.9H277.65a.317.317,0,1,1,0-.635h5.078a.317.317,0,0,1,0,.635Z" transform="translate(-269.082 -103.574)" fill="#fff"/>
    </g>
  </g>
</svg>
