<svg xmlns="http://www.w3.org/2000/svg" width="40" height="40" viewBox="0 0 40 40">
  <g id="ic_docs" transform="translate(-162 -4076)">
    <rect id="Rectangle_20365" data-name="Rectangle 20365" width="40" height="40" transform="translate(162 4076)" fill="none"/>
    <g id="Group_194172" data-name="Group 194172" transform="translate(164 4076)">
      <path id="Path_188161" data-name="Path 188161" d="M29.29,269.42H28a3.226,3.226,0,0,1-3.226-3.226,1.935,1.935,0,0,1,1.935-1.935H29.29v5.161Z" transform="translate(-24.774 -243.614)" fill="#1d4cd5"/>
      <path id="Path_188162" data-name="Path 188162" d="M106.868,0H83l-.665,1.29V39.375h30.342l1.29-.665V7.1Z" transform="translate(-77.836 0)" fill="#eceaec"/>
      <path id="Path_188163" data-name="Path 188163" d="M75.613,36.774V0a1.29,1.29,0,0,0-1.29,1.29V38.71A1.29,1.29,0,0,0,75.613,40h29.677a1.29,1.29,0,0,0,1.29-1.29H77.549A1.935,1.935,0,0,1,75.613,36.774ZM106.581,6.986a1.29,1.29,0,0,0-.378-.912l-5.7-5.7A1.29,1.29,0,0,0,99.595,0h-.111V6.452a.645.645,0,0,0,.645.645h6.452Z" transform="translate(-70.452 0)" fill="#dad8db"/>
      <path id="Path_188164" data-name="Path 188164" d="M54.6,312.506h-20a1.932,1.932,0,0,1-.645-.11l-.621,1.037v8.151a1.935,1.935,0,0,0,1.935,1.935H54.6l1.29-.691V313.8A1.29,1.29,0,0,0,54.6,312.506Z" transform="translate(-32.664 -287.99)" fill="#518ef8"/>
      <path id="Path_188165" data-name="Path 188165" d="M26.064,290.857a1.941,1.941,0,0,1-1.29-1.825v11.613a1.935,1.935,0,0,0,1.935,1.935h20A1.29,1.29,0,0,0,48,301.29H28a1.936,1.936,0,0,1-1.935-1.935Z" transform="translate(-24.774 -266.451)" fill="#3a5bbc"/>
      <path id="Path_188203" data-name="Path 188203" d="M-11.126-1.662a.451.451,0,0,1-.333-.117.451.451,0,0,1-.117-.333V-5.563A.451.451,0,0,1-11.46-5.9a.451.451,0,0,1,.333-.117h1.241a2.678,2.678,0,0,1,1.222.259,1.81,1.81,0,0,1,.784.747,2.362,2.362,0,0,1,.272,1.167,2.4,2.4,0,0,1-.269,1.17,1.787,1.787,0,0,1-.781.75,2.693,2.693,0,0,1-1.228.259Zm1.173-.778a1.233,1.233,0,0,0,1.389-1.4,1.23,1.23,0,0,0-1.389-1.4h-.66v2.8Zm5.086.833a2.224,2.224,0,0,1-1.127-.275,1.857,1.857,0,0,1-.738-.778,2.548,2.548,0,0,1-.259-1.182,2.548,2.548,0,0,1,.259-1.182A1.837,1.837,0,0,1-5.994-5.8a2.244,2.244,0,0,1,1.127-.272A2.244,2.244,0,0,1-3.741-5.8,1.837,1.837,0,0,1-3-5.023a2.548,2.548,0,0,1,.259,1.182A2.548,2.548,0,0,1-3-2.659a1.857,1.857,0,0,1-.738.778A2.224,2.224,0,0,1-4.867-1.606Zm0-.747a1.043,1.043,0,0,0,.855-.383,1.712,1.712,0,0,0,.312-1.1,1.711,1.711,0,0,0-.309-1.1,1.045,1.045,0,0,0-.858-.38,1.036,1.036,0,0,0-.855.38,1.723,1.723,0,0,0-.306,1.1,1.724,1.724,0,0,0,.309,1.1A1.034,1.034,0,0,0-4.867-2.353Zm4.858.747a2.248,2.248,0,0,1-1.123-.272,1.828,1.828,0,0,1-.741-.778,2.567,2.567,0,0,1-.259-1.185,2.548,2.548,0,0,1,.259-1.182A1.832,1.832,0,0,1-1.133-5.8,2.248,2.248,0,0,1-.009-6.069a2.243,2.243,0,0,1,1.4.444.465.465,0,0,1,.13.148.412.412,0,0,1,.037.185.432.432,0,0,1-.09.275.27.27,0,0,1-.219.114.479.479,0,0,1-.151-.022A.592.592,0,0,1,.947-5a2.075,2.075,0,0,0-.457-.231A1.4,1.4,0,0,0,.04-5.3a1.083,1.083,0,0,0-.892.367,1.706,1.706,0,0,0-.3,1.1q0,1.469,1.191,1.469a1.3,1.3,0,0,0,.432-.071,2.736,2.736,0,0,0,.475-.231A.887.887,0,0,1,1.1-2.751a.429.429,0,0,1,.142-.022.27.27,0,0,1,.219.114.432.432,0,0,1,.09.275.4.4,0,0,1-.04.188.456.456,0,0,1-.127.145A2.243,2.243,0,0,1-.009-1.606Zm3.66,0a3.446,3.446,0,0,1-.907-.114,1.9,1.9,0,0,1-.685-.324.433.433,0,0,1-.133-.145.419.419,0,0,1-.04-.194.417.417,0,0,1,.1-.272A.279.279,0,0,1,2.2-2.773a.417.417,0,0,1,.133.022.833.833,0,0,1,.157.077,2.078,2.078,0,0,0,.537.244,2.187,2.187,0,0,0,.6.077,1.178,1.178,0,0,0,.623-.136.433.433,0,0,0,.216-.389.35.35,0,0,0-.2-.309,2.578,2.578,0,0,0-.713-.222,3.95,3.95,0,0,1-.917-.284,1.187,1.187,0,0,1-.5-.414,1.091,1.091,0,0,1-.157-.6,1.167,1.167,0,0,1,.225-.7,1.493,1.493,0,0,1,.623-.488,2.2,2.2,0,0,1,.9-.176,2.3,2.3,0,0,1,1.444.438A.49.49,0,0,1,5.3-5.48a.4.4,0,0,1,.04.188.417.417,0,0,1-.1.272.279.279,0,0,1-.219.117A.418.418,0,0,1,4.9-4.921.879.879,0,0,1,4.737-5a2.6,2.6,0,0,0-.466-.241,1.549,1.549,0,0,0-.54-.08,1.052,1.052,0,0,0-.593.145.455.455,0,0,0-.216.4.358.358,0,0,0,.083.244.692.692,0,0,0,.278.17,4.244,4.244,0,0,0,.552.154,3.069,3.069,0,0,1,1.207.475.959.959,0,0,1,.367.8,1.158,1.158,0,0,1-.219.7,1.414,1.414,0,0,1-.617.469A2.375,2.375,0,0,1,3.651-1.606Z" transform="translate(15.448 33.805)" fill="#fff"/>
      <path id="Path_188204" data-name="Path 188204" d="M161.18,257.054h14.815V258.7H161.18Zm0,3.676h14.815v1.646H161.18Zm0,3.676h14.815v1.646H161.18Zm0,3.677h10.536v1.646H161.18Z" transform="translate(-149.233 -249.084)" fill="#518ef8"/>
    </g>
  </g>
</svg>
