<svg xmlns="http://www.w3.org/2000/svg" width="40" height="40" viewBox="0 0 40 40">
  <g id="ic_file" transform="translate(-162 -4076)">
    <rect id="Rectangle_20365" data-name="Rectangle 20365" width="40" height="40" transform="translate(162 4076)" fill="none"/>
    <g id="Group_194172" data-name="Group 194172" transform="translate(164 4076)">
      <path id="Path_188161" data-name="Path 188161" d="M29.29,269.42H28a3.226,3.226,0,0,1-3.226-3.226,1.935,1.935,0,0,1,1.935-1.935H29.29v5.161Z" transform="translate(-24.774 -243.614)" fill="#e52a00"/>
      <path id="Path_188162" data-name="Path 188162" d="M106.868,0H83l-.665,1.29V39.375h30.342l1.29-.665V7.1Z" transform="translate(-78.333 0)" fill="#eceaec"/>
      <path id="Path_188163" data-name="Path 188163" d="M75.613,36.774V0a1.29,1.29,0,0,0-1.29,1.29V38.71A1.29,1.29,0,0,0,75.613,40h29.677a1.29,1.29,0,0,0,1.29-1.29H77.549A1.935,1.935,0,0,1,75.613,36.774ZM106.581,6.986a1.29,1.29,0,0,0-.378-.912l-5.7-5.7A1.29,1.29,0,0,0,99.595,0h-.111V6.452a.645.645,0,0,0,.645.645h6.452Z" transform="translate(-70.452 0)" fill="#dad8db"/>
      <path id="Path_188164" data-name="Path 188164" d="M54.6,312.506h-20a1.932,1.932,0,0,1-.645-.11l-.621,1.037v8.151a1.935,1.935,0,0,0,1.935,1.935H54.6l1.29-.691V313.8A1.29,1.29,0,0,0,54.6,312.506Z" transform="translate(-32.664 -287.99)" fill="#ff6f44"/>
      <path id="Path_188165" data-name="Path 188165" d="M26.064,290.857a1.941,1.941,0,0,1-1.29-1.825v11.613a1.935,1.935,0,0,0,1.935,1.935h20A1.29,1.29,0,0,0,48,301.29H28a1.936,1.936,0,0,1-1.935-1.935Z" transform="translate(-24.774 -266.451)" fill="#ff451b"/>
      <g id="Group_194206" data-name="Group 194206" transform="translate(-606.098 -4203.047)">
        <path id="Path_188238" data-name="Path 188238" d="M15.566,132.849v8.4a.678.678,0,0,1-.678.678H.678A.678.678,0,0,1,0,141.248V130.5a.678.678,0,0,1,.678-.678h4.6a.678.678,0,0,1,.608.378l.785,1.593a.677.677,0,0,0,.607.378h7.61a.677.677,0,0,1,.678.677Zm0,0" transform="translate(618 4081.122)" fill="#ff6f44"/>
        <path id="Path_188239" data-name="Path 188239" d="M199.119,188.24v8.4a.678.678,0,0,1-.678.678h-7.106v-9.754h7.106A.677.677,0,0,1,199.119,188.24Zm0,0" transform="translate(434.447 4025.73)" fill="#ff451b"/>
        <g id="Group_194206-2" data-name="Group 194206" transform="translate(628.302 4219.605)">
          <path id="Path_188237" data-name="Path 188237" d="M253.879,344.32a.613.613,0,0,1-.613-.613v-.376a.613.613,0,0,1,1.225,0v.376A.613.613,0,0,1,253.879,344.32Zm1.9,0a.613.613,0,0,1-.613-.613v-.376a.613.613,0,0,1,1.225,0v.376A.613.613,0,0,1,255.775,344.32Zm0,0" transform="translate(-253.266 -342.719)" fill="#fff"/>
        </g>
      </g>
      <path id="Path_188240" data-name="Path 188240" d="M-7.344.051a.649.649,0,0,1-.48-.183.649.649,0,0,1-.183-.48v-4.76a.621.621,0,0,1,.161-.459.621.621,0,0,1,.459-.161h2.924a.735.735,0,0,1,.476.127.491.491,0,0,1,.153.4.48.48,0,0,1-.153.391.735.735,0,0,1-.476.128H-6.7V-3.57h2.065a.735.735,0,0,1,.476.127.491.491,0,0,1,.153.4.48.48,0,0,1-.153.391.735.735,0,0,1-.476.127H-6.7V-.612a.664.664,0,0,1-.174.485A.629.629,0,0,1-7.344.051Zm4.862,0a.655.655,0,0,1-.484-.178.655.655,0,0,1-.178-.485V-5.381a.643.643,0,0,1,.178-.476.655.655,0,0,1,.484-.179A.655.655,0,0,1-2-5.857a.643.643,0,0,1,.179.476V-.612A.655.655,0,0,1-2-.127.655.655,0,0,1-2.482.051ZM-.008,0A.621.621,0,0,1-.467-.162.621.621,0,0,1-.629-.621v-4.76A.643.643,0,0,1-.45-5.857a.655.655,0,0,1,.484-.179.655.655,0,0,1,.485.179A.643.643,0,0,1,.7-5.381v4.3H2.873q.62,0,.621.544T2.873,0ZM4.777,0a.621.621,0,0,1-.459-.162.621.621,0,0,1-.161-.459V-5.372a.621.621,0,0,1,.161-.459.621.621,0,0,1,.459-.161H7.786q.629,0,.629.51t-.629.519H5.448v1.4H7.616q.629,0,.629.519t-.629.51H5.448v1.5H7.786q.629,0,.629.519T7.786,0Z" transform="translate(12 33)" fill="#fff"/>
    </g>
  </g>
</svg>
