<svg xmlns="http://www.w3.org/2000/svg" width="40" height="40" viewBox="0 0 40 40">
  <g id="ic_jpg" transform="translate(-162 -4076)">
    <rect id="Rectangle_20365" data-name="Rectangle 20365" width="40" height="40" transform="translate(162 4076)" fill="none"/>
    <g id="Group_194172" data-name="Group 194172" transform="translate(164 4076)">
      <path id="Path_188161" data-name="Path 188161" d="M29.29,269.42H28a3.226,3.226,0,0,1-3.226-3.226,1.935,1.935,0,0,1,1.935-1.935H29.29v5.161Z" transform="translate(-24.774 -243.614)" fill="#4895f9"/>
      <path id="Path_188162" data-name="Path 188162" d="M106.868,0H83l-.665,1.29V39.375h30.342l1.29-.665V7.1Z" transform="translate(-77.836 0)" fill="#eceaec"/>
      <path id="Path_188163" data-name="Path 188163" d="M75.613,36.774V0a1.29,1.29,0,0,0-1.29,1.29V38.71A1.29,1.29,0,0,0,75.613,40h29.677a1.29,1.29,0,0,0,1.29-1.29H77.549A1.935,1.935,0,0,1,75.613,36.774ZM106.581,6.986a1.29,1.29,0,0,0-.378-.912l-5.7-5.7A1.29,1.29,0,0,0,99.595,0h-.111V6.452a.645.645,0,0,0,.645.645h6.452Z" transform="translate(-70.452 0)" fill="#dad8db"/>
      <path id="Path_188164" data-name="Path 188164" d="M54.6,312.506h-20a1.932,1.932,0,0,1-.645-.11l-.621,1.037v8.151a1.935,1.935,0,0,0,1.935,1.935H54.6l1.29-.691V313.8A1.29,1.29,0,0,0,54.6,312.506Z" transform="translate(-32.664 -287.99)" fill="#9ec8fc"/>
      <path id="Path_188165" data-name="Path 188165" d="M26.064,290.857a1.941,1.941,0,0,1-1.29-1.825v11.613a1.935,1.935,0,0,0,1.935,1.935h20A1.29,1.29,0,0,0,48,301.29H28a1.936,1.936,0,0,1-1.935-1.935Z" transform="translate(-24.774 -266.451)" fill="#62a4fb"/>
      <path id="Path_188196" data-name="Path 188196" d="M-6.923.051a.975.975,0,0,1-.591-.119.469.469,0,0,1-.2-.417.5.5,0,0,1,.128-.378.616.616,0,0,1,.4-.14l.272-.017q.612-.025.612-.723V-5.381a.627.627,0,0,1,.187-.476.673.673,0,0,1,.485-.179.658.658,0,0,1,.48.179.635.635,0,0,1,.183.476V-1.76A1.6,1.6,0,0,1-6.651.034Zm3.808,0A.655.655,0,0,1-3.6-.127a.655.655,0,0,1-.178-.485v-4.76a.621.621,0,0,1,.161-.459.621.621,0,0,1,.459-.161h2.134A2.185,2.185,0,0,1,.5-5.5a1.764,1.764,0,0,1,.544,1.377A1.764,1.764,0,0,1,.5-2.746a2.185,2.185,0,0,1-1.521.493H-2.452V-.612a.655.655,0,0,1-.178.485A.655.655,0,0,1-3.115.051Zm1.921-3.307q.994,0,.994-.859t-.994-.867H-2.452v1.726Zm7.727-.051a.53.53,0,0,1,.378.132.472.472,0,0,1,.14.361v1.658A1.952,1.952,0,0,1,7-.629a.585.585,0,0,1-.191.3A1.144,1.144,0,0,1,6.4-.145a4.88,4.88,0,0,1-.761.162,5.924,5.924,0,0,1-.812.06,3.472,3.472,0,0,1-1.649-.37A2.548,2.548,0,0,1,2.1-1.356,3.414,3.414,0,0,1,1.73-3,3.408,3.408,0,0,1,2.1-4.628,2.561,2.561,0,0,1,3.158-5.7a3.314,3.314,0,0,1,1.607-.374,3.053,3.053,0,0,1,1.955.612.64.64,0,0,1,.179.2A.568.568,0,0,1,6.949-5a.6.6,0,0,1-.123.378.364.364,0,0,1-.293.157.557.557,0,0,1-.2-.034,1.43,1.43,0,0,1-.217-.11,2.952,2.952,0,0,0-.655-.315,2.175,2.175,0,0,0-.655-.093Q3.073-5.015,3.073-3a2.282,2.282,0,0,0,.451,1.547,1.72,1.72,0,0,0,1.36.51,3.826,3.826,0,0,0,.977-.127V-2.389H5.079A.562.562,0,0,1,4.7-2.508a.428.428,0,0,1-.136-.34.428.428,0,0,1,.136-.34.562.562,0,0,1,.382-.119Z" transform="translate(12 33)" fill="#fff"/>
    </g>
    <path id="Path_188241" data-name="Path 188241" d="M281.576,395.56H269.385a1.671,1.671,0,0,0-1.663,1.663v7.749a1.671,1.671,0,0,0,1.663,1.663h12.191a1.653,1.653,0,0,0,1.643-1.663v-7.749A1.653,1.653,0,0,0,281.576,395.56Zm-8.864,2.089a1.8,1.8,0,0,1,0,3.59,1.8,1.8,0,1,1,0-3.59Zm9.412,7.323a.563.563,0,0,1-.548.568H269.385a.563.563,0,0,1-.548-.568v-.325l2.211-2.211,1.826,1.826a.551.551,0,0,0,.791,0l4.584-4.584,3.874,3.874Z" transform="translate(-91.638 3690.351)" fill="#9ec8fc" fill-rule="evenodd"/>
  </g>
</svg>
