<svg xmlns="http://www.w3.org/2000/svg" width="40" height="40" viewBox="0 0 40 40">
  <g id="ic_mp3" transform="translate(-162 -4076)">
    <rect id="Rectangle_20365" data-name="Rectangle 20365" width="40" height="40" transform="translate(162 4076)" fill="none"/>
    <g id="Group_194172" data-name="Group 194172" transform="translate(164 4076)">
      <path id="Path_188161" data-name="Path 188161" d="M29.29,269.42H28a3.226,3.226,0,0,1-3.226-3.226,1.935,1.935,0,0,1,1.935-1.935H29.29v5.161Z" transform="translate(-24.774 -243.614)" fill="#ff091a"/>
      <path id="Path_188162" data-name="Path 188162" d="M106.868,0H83l-.665,1.29V39.375h30.342l1.29-.665V7.1Z" transform="translate(-77.836 0)" fill="#eceaec"/>
      <path id="Path_188163" data-name="Path 188163" d="M75.613,36.774V0a1.29,1.29,0,0,0-1.29,1.29V38.71A1.29,1.29,0,0,0,75.613,40h29.677a1.29,1.29,0,0,0,1.29-1.29H77.549A1.935,1.935,0,0,1,75.613,36.774ZM106.581,6.986a1.29,1.29,0,0,0-.378-.912l-5.7-5.7A1.29,1.29,0,0,0,99.595,0h-.111V6.452a.645.645,0,0,0,.645.645h6.452Z" transform="translate(-70.452 0)" fill="#dad8db"/>
      <path id="Path_188164" data-name="Path 188164" d="M54.6,312.506h-20a1.932,1.932,0,0,1-.645-.11l-.621,1.037v8.151a1.935,1.935,0,0,0,1.935,1.935H54.6l1.29-.691V313.8A1.29,1.29,0,0,0,54.6,312.506Z" transform="translate(-32.664 -287.99)" fill="#ff4755"/>
      <path id="Path_188165" data-name="Path 188165" d="M26.064,290.857a1.941,1.941,0,0,1-1.29-1.825v11.613a1.935,1.935,0,0,0,1.935,1.935h20A1.29,1.29,0,0,0,48,301.29H28a1.936,1.936,0,0,1-1.935-1.935Z" transform="translate(-24.774 -266.451)" fill="#fc2b3a"/>
      <path id="Path_188197" data-name="Path 188197" d="M-3.052-6.035a.6.6,0,0,1,.455.183.656.656,0,0,1,.174.472V-.553a.6.6,0,0,1-.161.442.575.575,0,0,1-.425.161.564.564,0,0,1-.417-.161.6.6,0,0,1-.161-.442v-3l-1.207,2.27a.945.945,0,0,1-.259.323.555.555,0,0,1-.336.1.56.56,0,0,1-.332-.1.919.919,0,0,1-.264-.323L-7.191-3.511V-.553a.6.6,0,0,1-.161.438.567.567,0,0,1-.425.166.564.564,0,0,1-.416-.161.6.6,0,0,1-.161-.442V-5.381a.656.656,0,0,1,.174-.472.6.6,0,0,1,.455-.183.67.67,0,0,1,.621.433l1.725,3.273L-3.664-5.6A.688.688,0,0,1-3.052-6.035ZM-.553.051a.655.655,0,0,1-.485-.178.655.655,0,0,1-.178-.485v-4.76a.621.621,0,0,1,.161-.459A.621.621,0,0,1-.6-5.993H1.539A2.185,2.185,0,0,1,3.06-5.5,1.764,1.764,0,0,1,3.6-4.122,1.764,1.764,0,0,1,3.06-2.746a2.185,2.185,0,0,1-1.521.493H.11V-.612a.655.655,0,0,1-.179.485A.655.655,0,0,1-.553.051ZM1.368-3.256q.994,0,.994-.859t-.994-.867H.11v1.726Zm6.044.17a1.5,1.5,0,0,1,.812.531,1.489,1.489,0,0,1,.285.922,1.531,1.531,0,0,1-.268.9,1.709,1.709,0,0,1-.769.591A3.019,3.019,0,0,1,6.307.068,3.458,3.458,0,0,1,5.249-.094a2.726,2.726,0,0,1-.871-.451.581.581,0,0,1-.183-.2A.563.563,0,0,1,4.14-1a.582.582,0,0,1,.128-.378.383.383,0,0,1,.306-.157.563.563,0,0,1,.187.03,1.221,1.221,0,0,1,.213.106,5.672,5.672,0,0,0,.646.323,1.687,1.687,0,0,0,.637.111,1.206,1.206,0,0,0,.756-.191.723.723,0,0,0,.238-.6A.665.665,0,0,0,7-2.338a1.369,1.369,0,0,0-.791-.178h-.5a.429.429,0,0,1-.348-.153.553.553,0,0,1-.128-.365.541.541,0,0,1,.128-.357.429.429,0,0,1,.348-.153h.357a1.335,1.335,0,0,0,.769-.179.632.632,0,0,0,.251-.553.727.727,0,0,0-.213-.557.835.835,0,0,0-.595-.2,1.543,1.543,0,0,0-.587.11,4.787,4.787,0,0,0-.629.323,1.221,1.221,0,0,1-.213.106.563.563,0,0,1-.187.03.383.383,0,0,1-.306-.157A.582.582,0,0,1,4.233-5a.557.557,0,0,1,.055-.259.6.6,0,0,1,.183-.2,2.636,2.636,0,0,1,.854-.451,3.269,3.269,0,0,1,1.016-.161,2.642,2.642,0,0,1,1.063.2,1.589,1.589,0,0,1,.705.565,1.484,1.484,0,0,1,.247.85,1.446,1.446,0,0,1-.251.846A1.405,1.405,0,0,1,7.412-3.086Z" transform="translate(12 33)" fill="#fff"/>
      <path id="Path_188198" data-name="Path 188198" d="M189.526,110.811a1.263,1.263,0,0,0-1.374-1.244l-5.792.579a1.246,1.246,0,0,0-1.126,1.244v5.565a2.018,2.018,0,0,0-.808-.173h-.012a2.03,2.03,0,1,0,2.03,2.038V111.39a.04.04,0,0,1,.036-.04l5.792-.579a.041.041,0,0,1,.044.04v5.434a2.048,2.048,0,0,0-2.246.414,2.029,2.029,0,0,0,1.414,3.473,2.048,2.048,0,0,0,2.041-2.021Zm-9.112,8.819h0a.82.82,0,0,1,0-1.64h0a.82.82,0,0,1,0,1.64Zm7.083-.708h-.005a.822.822,0,1,1,.005,0Z" transform="translate(-164.187 -101.153)" fill="#ff4755"/>
    </g>
  </g>
</svg>
