<svg xmlns="http://www.w3.org/2000/svg" width="40" height="40" viewBox="0 0 40 40">
  <g id="ic_mp4" transform="translate(-162 -4076)">
    <rect id="Rectangle_20365" data-name="Rectangle 20365" width="40" height="40" transform="translate(162 4076)" fill="none"/>
    <g id="Group_194172" data-name="Group 194172" transform="translate(164 4076)">
      <path id="Path_188161" data-name="Path 188161" d="M29.29,269.42H28a3.226,3.226,0,0,1-3.226-3.226,1.935,1.935,0,0,1,1.935-1.935H29.29v5.161Z" transform="translate(-24.774 -243.614)" fill="#e9a130"/>
      <path id="Path_188162" data-name="Path 188162" d="M106.868,0H83l-.665,1.29V39.375h30.342l1.29-.665V7.1Z" transform="translate(-77.836 0)" fill="#eceaec"/>
      <path id="Path_188163" data-name="Path 188163" d="M75.613,36.774V0a1.29,1.29,0,0,0-1.29,1.29V38.71A1.29,1.29,0,0,0,75.613,40h29.677a1.29,1.29,0,0,0,1.29-1.29H77.549A1.935,1.935,0,0,1,75.613,36.774ZM106.581,6.986a1.29,1.29,0,0,0-.378-.912l-5.7-5.7A1.29,1.29,0,0,0,99.595,0h-.111V6.452a.645.645,0,0,0,.645.645h6.452Z" transform="translate(-70.452 0)" fill="#dad8db"/>
      <path id="Path_188164" data-name="Path 188164" d="M54.6,312.506h-20a1.932,1.932,0,0,1-.645-.11l-.621,1.037v8.151a1.935,1.935,0,0,0,1.935,1.935H54.6l1.29-.691V313.8A1.29,1.29,0,0,0,54.6,312.506Z" transform="translate(-32.664 -287.99)" fill="#ffc265"/>
      <path id="Path_188165" data-name="Path 188165" d="M26.064,290.857a1.941,1.941,0,0,1-1.29-1.825v11.613a1.935,1.935,0,0,0,1.935,1.935h20A1.29,1.29,0,0,0,48,301.29H28a1.936,1.936,0,0,1-1.935-1.935Z" transform="translate(-24.774 -266.451)" fill="#ffb541"/>
      <path id="Path_188205" data-name="Path 188205" d="M-3.052-6.035a.6.6,0,0,1,.455.183.656.656,0,0,1,.174.472V-.553a.6.6,0,0,1-.161.442.575.575,0,0,1-.425.161.564.564,0,0,1-.417-.161.6.6,0,0,1-.161-.442v-3l-1.207,2.27a.945.945,0,0,1-.259.323.555.555,0,0,1-.336.1.56.56,0,0,1-.332-.1.919.919,0,0,1-.264-.323L-7.191-3.511V-.553a.6.6,0,0,1-.161.438.567.567,0,0,1-.425.166.564.564,0,0,1-.416-.161.6.6,0,0,1-.161-.442V-5.381a.656.656,0,0,1,.174-.472.6.6,0,0,1,.455-.183.67.67,0,0,1,.621.433l1.725,3.273L-3.664-5.6A.688.688,0,0,1-3.052-6.035ZM-.553.051a.655.655,0,0,1-.485-.178.655.655,0,0,1-.178-.485v-4.76a.621.621,0,0,1,.161-.459A.621.621,0,0,1-.6-5.993H1.539A2.185,2.185,0,0,1,3.06-5.5,1.764,1.764,0,0,1,3.6-4.122,1.764,1.764,0,0,1,3.06-2.746a2.185,2.185,0,0,1-1.521.493H.11V-.612a.655.655,0,0,1-.179.485A.655.655,0,0,1-.553.051ZM1.368-3.256q.994,0,.994-.859t-.994-.867H.11v1.726ZM8.288-2.108q.621,0,.621.5t-.621.51H7.973v.484a.649.649,0,0,1-.179.493.65.65,0,0,1-.467.17.65.65,0,0,1-.467-.17.649.649,0,0,1-.179-.493V-1.1H4.616A.554.554,0,0,1,4.2-1.254a.544.544,0,0,1-.153-.4.843.843,0,0,1,.161-.476L6.741-5.746A.647.647,0,0,1,7-5.963a.747.747,0,0,1,.323-.072.668.668,0,0,1,.459.174.61.61,0,0,1,.2.48v3.273Zm-1.606,0v-1.87l-1.3,1.87Z" transform="translate(12 33)" fill="#fff"/>
      <g id="Group_194196" data-name="Group 194196" transform="translate(-430.882 -4208.344)">
        <path id="Path_188216" data-name="Path 188216" d="M304.411,141.868l-3.4,2.34V146.4l3.4,2.34a.953.953,0,0,0,1.493-.785v-5.3A.953.953,0,0,0,304.411,141.868Z" transform="translate(153.598 4077.489)" fill="#ffc265"/>
        <path id="Path_188217" data-name="Path 188217" d="M185.706,25.778H176.16a.886.886,0,0,1-.886-.886V16.5a.886.886,0,0,1,.886-.886h9.545a.886.886,0,0,1,.886.886v8.388A.886.886,0,0,1,185.706,25.778Z" transform="translate(268.012 4202.094)" fill="#ffc265"/>
      </g>
    </g>
  </g>
</svg>
