<svg xmlns="http://www.w3.org/2000/svg" width="40" height="40" viewBox="0 0 40 40">
  <g id="ic_pdf" transform="translate(-162 -4076)">
    <rect id="Rectangle_20365" data-name="Rectangle 20365" width="40" height="40" transform="translate(162 4076)" fill="none"/>
    <g id="Group_194172" data-name="Group 194172" transform="translate(164 4076)">
      <path id="Path_188161" data-name="Path 188161" d="M29.29,269.42H28a3.226,3.226,0,0,1-3.226-3.226,1.935,1.935,0,0,1,1.935-1.935H29.29v5.161Z" transform="translate(-24.774 -243.614)" fill="#bd4150"/>
      <path id="Path_188162" data-name="Path 188162" d="M106.868,0H83l-.665,1.29V39.375h30.342l1.29-.665V7.1Z" transform="translate(-77.836 0)" fill="#eceaec"/>
      <path id="Path_188163" data-name="Path 188163" d="M75.613,36.774V0a1.29,1.29,0,0,0-1.29,1.29V38.71A1.29,1.29,0,0,0,75.613,40h29.677a1.29,1.29,0,0,0,1.29-1.29H77.549A1.935,1.935,0,0,1,75.613,36.774ZM106.581,6.986a1.29,1.29,0,0,0-.378-.912l-5.7-5.7A1.29,1.29,0,0,0,99.595,0h-.111V6.452a.645.645,0,0,0,.645.645h6.452Z" transform="translate(-70.452 0)" fill="#dad8db"/>
      <path id="Path_188164" data-name="Path 188164" d="M54.6,312.506h-20a1.932,1.932,0,0,1-.645-.11l-.621,1.037v8.151a1.935,1.935,0,0,0,1.935,1.935H54.6l1.29-.691V313.8A1.29,1.29,0,0,0,54.6,312.506Z" transform="translate(-32.664 -287.99)" fill="#e15f78"/>
      <path id="Path_188165" data-name="Path 188165" d="M26.064,290.857a1.941,1.941,0,0,1-1.29-1.825v11.613a1.935,1.935,0,0,0,1.935,1.935h20A1.29,1.29,0,0,0,48,301.29H28a1.936,1.936,0,0,1-1.935-1.935Z" transform="translate(-24.774 -266.451)" fill="#db4655"/>
      <g id="Group_194171" data-name="Group 194171" transform="translate(4.497 27.097)">
        <path id="Path_188166" data-name="Path 188166" d="M96.253,349.371H94.987v-1.223h1.431a.645.645,0,1,0,0-1.29H94.342a.645.645,0,0,0-.645.645v5.124a.645.645,0,0,0,1.29,0v-1.965h1.266a.645.645,0,0,0,0-1.29ZM84.42,346.839H82.983a.645.645,0,0,0-.645.645h0v5.161a.645.645,0,1,0,1.29,0v-1.6l.792,0a2.1,2.1,0,1,0,0-4.2Zm0,2.913-.786,0c0-.3,0-1.625,0-1.625h.79a.812.812,0,1,1,0,1.623Zm5.41-2.837H88.412a.645.645,0,0,0-.645.646l0,2.5c0,.7.006,2.512.006,2.512a.645.645,0,0,0,.645.643h0s1.052,0,1.459-.011c1.515-.027,2.615-1.347,2.615-3.139C92.5,348.181,91.426,346.915,89.831,346.915Zm.03,5c-.185,0-.5.006-.8.008,0-.591,0-1.436,0-1.862l0-1.854h.772c1.312,0,1.378,1.549,1.378,1.859C91.208,350.973,90.792,351.9,89.861,351.913Z" transform="translate(-82.338 -346.839)" fill="#fff"/>
      </g>
      <path id="Path_188167" data-name="Path 188167" d="M179.7,92.244a1.5,1.5,0,0,1-1.264-.748,1.724,1.724,0,0,1,.338-2.253,9.94,9.94,0,0,1,3.8-1.932,33.176,33.176,0,0,0,1.575-3.464c.3-.765.539-1.454.731-2.07a7.475,7.475,0,0,1-1.221-3.951,1.649,1.649,0,0,1,1.912-1.435c.315.017,1.067.181,1.248,1.339a10.505,10.505,0,0,1-.562,3.941,24.538,24.538,0,0,0,3.284,4.317,8.061,8.061,0,0,1,4.077.483,1.293,1.293,0,0,1,.629,1.574,1.724,1.724,0,0,1-2.168,1.25,7.475,7.475,0,0,1-3.011-2,30.055,30.055,0,0,0-5.587,1.036c-1.073,1.926-2.233,3.425-3.207,3.8a1.612,1.612,0,0,1-.578.112Zm-.181-1.449c.108.166.167.162.195.159.411-.042,1.1-.751,1.876-1.95a8.733,8.733,0,0,0-1.369.719C179.248,90.371,179.455,90.69,179.523,90.8Zm11.366-3.582a4.2,4.2,0,0,0,1.492.826c.335.078.507.038.649-.4C192.839,87.355,192.03,87.216,190.889,87.213Zm-5.124-3.978a35.19,35.19,0,0,1-1.5,3.6,31.373,31.373,0,0,1,3.7-.695A25.563,25.563,0,0,1,185.764,83.235Zm-.311-5.58c-.458,0-.482.172-.508.353a4.044,4.044,0,0,0,.431,1.936c.292-1.393.232-2.13.091-2.289Z" transform="translate(-166.176 -70.419)" fill="#e15f78"/>
    </g>
  </g>
</svg>
