<svg xmlns="http://www.w3.org/2000/svg" width="40" height="40" viewBox="0 0 40 40">
  <g id="ic_svg" transform="translate(-162 -4076)">
    <rect id="Rectangle_20365" data-name="Rectangle 20365" width="40" height="40" transform="translate(162 4076)" fill="none"/>
    <g id="Group_194172" data-name="Group 194172" transform="translate(164 4076)">
      <path id="Path_188161" data-name="Path 188161" d="M29.29,269.42H28a3.226,3.226,0,0,1-3.226-3.226,1.935,1.935,0,0,1,1.935-1.935H29.29v5.161Z" transform="translate(-24.774 -243.614)" fill="#004887"/>
      <path id="Path_188162" data-name="Path 188162" d="M106.868,0H83l-.665,1.29V39.375h30.342l1.29-.665V7.1Z" transform="translate(-78.333 0)" fill="#eceaec"/>
      <path id="Path_188163" data-name="Path 188163" d="M75.613,36.774V0a1.29,1.29,0,0,0-1.29,1.29V38.71A1.29,1.29,0,0,0,75.613,40h29.677a1.29,1.29,0,0,0,1.29-1.29H77.549A1.935,1.935,0,0,1,75.613,36.774ZM106.581,6.986a1.29,1.29,0,0,0-.378-.912l-5.7-5.7A1.29,1.29,0,0,0,99.595,0h-.111V6.452a.645.645,0,0,0,.645.645h6.452Z" transform="translate(-70.452 0)" fill="#dad8db"/>
      <path id="Path_188164" data-name="Path 188164" d="M54.6,312.506h-20a1.932,1.932,0,0,1-.645-.11l-.621,1.037v8.151a1.935,1.935,0,0,0,1.935,1.935H54.6l1.29-.691V313.8A1.29,1.29,0,0,0,54.6,312.506Z" transform="translate(-32.664 -287.99)" fill="#068bff"/>
      <path id="Path_188165" data-name="Path 188165" d="M26.064,290.857a1.941,1.941,0,0,1-1.29-1.825v11.613a1.935,1.935,0,0,0,1.935,1.935h20A1.29,1.29,0,0,0,48,301.29H28a1.936,1.936,0,0,1-1.935-1.935Z" transform="translate(-24.774 -266.451)" fill="#0667bb"/>
      <path id="Path_188224" data-name="Path 188224" d="M-6.095.077A4.746,4.746,0,0,1-7.344-.081a2.61,2.61,0,0,1-.944-.446.6.6,0,0,1-.183-.2.577.577,0,0,1-.055-.268.574.574,0,0,1,.132-.374.384.384,0,0,1,.3-.161.574.574,0,0,1,.183.03,1.147,1.147,0,0,1,.217.106,2.862,2.862,0,0,0,.74.336,3.011,3.011,0,0,0,.825.106,1.622,1.622,0,0,0,.859-.187.6.6,0,0,0,.3-.536A.482.482,0,0,0-5.249-2.1a3.55,3.55,0,0,0-.982-.306A5.439,5.439,0,0,1-7.493-2.8a1.635,1.635,0,0,1-.689-.569A1.5,1.5,0,0,1-8.4-4.191a1.607,1.607,0,0,1,.31-.965,2.055,2.055,0,0,1,.859-.672,3.029,3.029,0,0,1,1.237-.242A3.161,3.161,0,0,1-4-5.465a.675.675,0,0,1,.183.208A.557.557,0,0,1-3.766-5a.574.574,0,0,1-.132.374.384.384,0,0,1-.3.161.576.576,0,0,1-.174-.025A1.211,1.211,0,0,1-4.6-4.6,3.574,3.574,0,0,0-5.24-4.93a2.133,2.133,0,0,0-.744-.111,1.448,1.448,0,0,0-.816.2.627.627,0,0,0-.3.548.493.493,0,0,0,.115.336.953.953,0,0,0,.382.234,5.844,5.844,0,0,0,.761.213,4.225,4.225,0,0,1,1.662.655,1.321,1.321,0,0,1,.506,1.1,1.6,1.6,0,0,1-.3.961,1.947,1.947,0,0,1-.85.646A3.27,3.27,0,0,1-6.095.077ZM1.488-5.687a.565.565,0,0,1,.221-.268.6.6,0,0,1,.323-.089.7.7,0,0,1,.459.17.523.523,0,0,1,.2.417.6.6,0,0,1-.06.255L.34-.357a.673.673,0,0,1-.28.3A.812.812,0,0,1-.349.051.812.812,0,0,1-.757-.055a.673.673,0,0,1-.28-.3L-3.332-5.2a.545.545,0,0,1-.059-.246.523.523,0,0,1,.212-.425.743.743,0,0,1,.476-.17.624.624,0,0,1,.327.089.557.557,0,0,1,.225.268L-.331-1.709ZM7.8-3.307a.53.53,0,0,1,.378.132.472.472,0,0,1,.14.361v1.658a1.952,1.952,0,0,1-.055.527.585.585,0,0,1-.191.3,1.144,1.144,0,0,1-.408.187,4.88,4.88,0,0,1-.761.162,5.924,5.924,0,0,1-.812.06,3.472,3.472,0,0,1-1.649-.37A2.548,2.548,0,0,1,3.374-1.356,3.414,3.414,0,0,1,3-3a3.408,3.408,0,0,1,.37-1.628A2.561,2.561,0,0,1,4.428-5.7a3.314,3.314,0,0,1,1.607-.374,3.053,3.053,0,0,1,1.955.612.64.64,0,0,1,.179.2A.568.568,0,0,1,8.219-5,.6.6,0,0,1,8.1-4.62a.364.364,0,0,1-.293.157A.557.557,0,0,1,7.6-4.5a1.43,1.43,0,0,1-.217-.11,2.952,2.952,0,0,0-.655-.315,2.175,2.175,0,0,0-.655-.093Q4.343-5.015,4.343-3a2.282,2.282,0,0,0,.451,1.547,1.72,1.72,0,0,0,1.36.51,3.826,3.826,0,0,0,.977-.127V-2.389H6.349a.562.562,0,0,1-.382-.119.428.428,0,0,1-.136-.34.428.428,0,0,1,.136-.34.562.562,0,0,1,.382-.119Z" transform="translate(12 33)" fill="#fff"/>
      <path id="Path_188225" data-name="Path 188225" d="M28.5,18V15h-3v1h-3V14h-5v2h-3V15h-3v3h3V17h1.774A7.55,7.55,0,0,0,12.5,23.5a.5.5,0,0,0,1,0,6.543,6.543,0,0,1,4-6V19h5V17.5a6.544,6.544,0,0,1,4,6,.5.5,0,0,0,1,0A7.55,7.55,0,0,0,23.726,17H25.5v1Zm-15-1h-1V16h1Zm8,1h-3V15h3Zm5-2h1v1h-1Z" transform="translate(0.5 -3)" fill="#068bff"/>
    </g>
  </g>
</svg>
