<svg xmlns="http://www.w3.org/2000/svg" width="40" height="40" viewBox="0 0 40 40">
  <g id="ic_txt" transform="translate(-162 -4076)">
    <rect id="Rectangle_20365" data-name="Rectangle 20365" width="40" height="40" transform="translate(162 4076)" fill="none"/>
    <g id="Group_194172" data-name="Group 194172" transform="translate(164 4076)">
      <path id="Path_188161" data-name="Path 188161" d="M29.29,269.42H28a3.226,3.226,0,0,1-3.226-3.226,1.935,1.935,0,0,1,1.935-1.935H29.29v5.161Z" transform="translate(-24.774 -243.614)" fill="#c45e00"/>
      <path id="Path_188162" data-name="Path 188162" d="M106.868,0H83l-.665,1.29V39.375h30.342l1.29-.665V7.1Z" transform="translate(-78.333 0)" fill="#eceaec"/>
      <path id="Path_188163" data-name="Path 188163" d="M75.613,36.774V0a1.29,1.29,0,0,0-1.29,1.29V38.71A1.29,1.29,0,0,0,75.613,40h29.677a1.29,1.29,0,0,0,1.29-1.29H77.549A1.935,1.935,0,0,1,75.613,36.774ZM106.581,6.986a1.29,1.29,0,0,0-.378-.912l-5.7-5.7A1.29,1.29,0,0,0,99.595,0h-.111V6.452a.645.645,0,0,0,.645.645h6.452Z" transform="translate(-70.452 0)" fill="#dad8db"/>
      <path id="Path_188164" data-name="Path 188164" d="M54.6,312.506h-20a1.932,1.932,0,0,1-.645-.11l-.621,1.037v8.151a1.935,1.935,0,0,0,1.935,1.935H54.6l1.29-.691V313.8A1.29,1.29,0,0,0,54.6,312.506Z" transform="translate(-32.664 -287.99)" fill="#ff7606"/>
      <path id="Path_188165" data-name="Path 188165" d="M26.064,290.857a1.941,1.941,0,0,1-1.29-1.825v11.613a1.935,1.935,0,0,0,1.935,1.935h20A1.29,1.29,0,0,0,48,301.29H28a1.936,1.936,0,0,1-1.935-1.935Z" transform="translate(-24.774 -266.451)" fill="#df6b00"/>
      <path id="Path_188204" data-name="Path 188204" d="M161.18,257.054h18.815V258.7H161.18Zm0,3.676h18.815v1.646H161.18Z" transform="translate(-150.18 -245.084)" fill="#ff7606"/>
      <path id="Path_188218" data-name="Path 188218" d="M-5.512.043a.658.658,0,0,1-.48-.179.635.635,0,0,1-.183-.476v-4.3H-7.552q-.629,0-.629-.544t.629-.536h4.08q.629,0,.629.536t-.629.544H-4.849v4.3a.643.643,0,0,1-.179.476A.655.655,0,0,1-5.512.043ZM2.5-.952a.592.592,0,0,1,.161.391.575.575,0,0,1-.191.429.616.616,0,0,1-.438.183A.547.547,0,0,1,1.6-.162L0-2.117-1.611-.162a.563.563,0,0,1-.433.213.606.606,0,0,1-.429-.183.575.575,0,0,1-.191-.429.588.588,0,0,1,.153-.391L-.769-3.026-2.452-5.041a.592.592,0,0,1-.161-.391.575.575,0,0,1,.191-.429.606.606,0,0,1,.429-.183.563.563,0,0,1,.442.221L0-3.944,1.543-5.823a.563.563,0,0,1,.442-.221.606.606,0,0,1,.429.183.575.575,0,0,1,.191.429.588.588,0,0,1-.153.391L.769-3.026ZM5.512.043a.658.658,0,0,1-.48-.179.635.635,0,0,1-.183-.476v-4.3H3.472q-.629,0-.629-.544t.629-.536h4.08q.629,0,.629.536t-.629.544H6.175v4.3A.643.643,0,0,1,6-.136.655.655,0,0,1,5.512.043Z" transform="translate(12 33)" fill="#fff"/>
    </g>
  </g>
</svg>
