<svg xmlns="http://www.w3.org/2000/svg" width="40" height="40" viewBox="0 0 40 40">
  <g id="ic_xlsx" transform="translate(-162 -4076)">
    <rect id="Rectangle_20365" data-name="Rectangle 20365" width="40" height="40" transform="translate(162 4076)" fill="none"/>
    <g id="Group_194172" data-name="Group 194172" transform="translate(164 4076)">
      <path id="Path_188161" data-name="Path 188161" d="M29.29,269.42H28a3.226,3.226,0,0,1-3.226-3.226,1.935,1.935,0,0,1,1.935-1.935H29.29v5.161Z" transform="translate(-24.774 -243.614)" fill="#60d568"/>
      <path id="Path_188162" data-name="Path 188162" d="M106.868,0H83l-.665,1.29V39.375h30.342l1.29-.665V7.1Z" transform="translate(-77.836 0)" fill="#eceaec"/>
      <path id="Path_188163" data-name="Path 188163" d="M75.613,36.774V0a1.29,1.29,0,0,0-1.29,1.29V38.71A1.29,1.29,0,0,0,75.613,40h29.677a1.29,1.29,0,0,0,1.29-1.29H77.549A1.935,1.935,0,0,1,75.613,36.774ZM106.581,6.986a1.29,1.29,0,0,0-.378-.912l-5.7-5.7A1.29,1.29,0,0,0,99.595,0h-.111V6.452a.645.645,0,0,0,.645.645h6.452Z" transform="translate(-70.452 0)" fill="#dad8db"/>
      <path id="Path_188164" data-name="Path 188164" d="M54.6,312.506h-20a1.932,1.932,0,0,1-.645-.11l-.621,1.037v8.151a1.935,1.935,0,0,0,1.935,1.935H54.6l1.29-.691V313.8A1.29,1.29,0,0,0,54.6,312.506Z" transform="translate(-32.664 -287.99)" fill="#98db7c"/>
      <path id="Path_188165" data-name="Path 188165" d="M26.064,290.857a1.941,1.941,0,0,1-1.29-1.825v11.613a1.935,1.935,0,0,0,1.935,1.935h20A1.29,1.29,0,0,0,48,301.29H28a1.936,1.936,0,0,1-1.935-1.935Z" transform="translate(-24.774 -266.451)" fill="#77cc7d"/>
      <path id="Path_188199" data-name="Path 188199" d="M64.586,182.178h-.006a.58.58,0,1,0,.006,0Zm8.188,0-.822,0V178.75a.577.577,0,1,0-1.155,0v4a.577.577,0,0,0,.479.569,3.451,3.451,0,0,0,.513.012l.991,0a.577.577,0,1,0-.007-1.155Zm3.858-1.932c-.479-.177-.925-.369-1.077-.435a.2.2,0,0,1-.063-.183.329.329,0,0,1,.264-.259,1.263,1.263,0,0,1,1.031.241.578.578,0,0,0,.74-.887,2.419,2.419,0,0,0-2.1-.46,1.485,1.485,0,0,0-1.074,1.2,1.348,1.348,0,0,0,.6,1.335.573.573,0,0,0,.08.043c.023.01.577.257,1.2.487.123.045.52.212.476.459a.608.608,0,0,1-.624.392,1.315,1.315,0,0,1-.967-.4.577.577,0,0,0-.856.775,2.452,2.452,0,0,0,1.823.784,1.728,1.728,0,0,0,1.761-1.344A1.58,1.58,0,0,0,76.633,180.243Zm-7.974.368,1.076-1.528a.577.577,0,1,0-.944-.665l-.838,1.19-.837-1.189a.578.578,0,0,0-.945.664l1.075,1.528-1.277,1.812a.577.577,0,1,0,.944.665l1.038-1.474,1.037,1.473a.578.578,0,0,0,.945-.664Zm13.806,1.812-1.275-1.813,1.076-1.528a.577.577,0,1,0-.944-.665l-.838,1.189-.836-1.189a.578.578,0,0,0-.945.664l1.075,1.528L78.5,182.423a.577.577,0,1,0,.944.665l1.038-1.474,1.037,1.474a.578.578,0,0,0,.945-.664Z" transform="translate(-61.136 -151.021)" fill="#fff"/>
      <path id="Path_188202" data-name="Path 188202" d="M77.624,165.161h6.16a.577.577,0,0,1,.577.577v.385a.578.578,0,0,1-.577.578h-6.16a.577.577,0,0,1-.577-.577v-.385a.578.578,0,0,1,.578-.577Zm6.738,3.272v.385a.578.578,0,0,1-.577.578h-6.16a.577.577,0,0,1-.577-.577v-.385a.577.577,0,0,1,.577-.577h6.16a.577.577,0,0,1,.578.577Z" transform="translate(-58.823 -154.021)" fill="#fff"/>
    </g>
    <g id="Group_194191" data-name="Group 194191" transform="translate(25.958 65)">
      <path id="Path_188200" data-name="Path 188200" d="M190.58,165.161h2.15a.645.645,0,0,1,.645.645v.43a.645.645,0,0,1-.645.645h-2.15a.645.645,0,0,1-.645-.645v-.43A.645.645,0,0,1,190.58,165.161Zm2.8,3.656v.43a.645.645,0,0,1-.645.645h-2.15a.645.645,0,0,1-.645-.645v-.43a.645.645,0,0,1,.645-.645h2.15A.645.645,0,0,1,193.376,168.817Zm-3.441,3.441v-.43a.645.645,0,0,1,.645-.645h2.15a.645.645,0,0,1,.645.645v.43a.645.645,0,0,1-.645.645h-2.15a.645.645,0,0,1-.645-.645Z" transform="translate(-38.032 3856.742)" fill="#98db7c"/>
      <path id="Path_188201" data-name="Path 188201" d="M250.492,243.313v-.43a.645.645,0,0,1,.645-.645h6.882a.645.645,0,0,1,.645.645v.43a.645.645,0,0,1-.645.645h-6.883A.645.645,0,0,1,250.492,243.313Z" transform="translate(-93.858 3785.687)" fill="#fff"/>
    </g>
  </g>
</svg>
