<svg xmlns="http://www.w3.org/2000/svg" width="40" height="40" viewBox="0 0 40 40">
  <g id="ic_zip" transform="translate(-162 -4076)">
    <rect id="Rectangle_20365" data-name="Rectangle 20365" width="40" height="40" transform="translate(162 4076)" fill="none"/>
    <g id="Group_194172" data-name="Group 194172" transform="translate(164 4076)">
      <path id="Path_188161" data-name="Path 188161" d="M29.29,269.42H28a3.226,3.226,0,0,1-3.226-3.226,1.935,1.935,0,0,1,1.935-1.935H29.29v5.161Z" transform="translate(-24.774 -243.614)" fill="#cc8601"/>
      <path id="Path_188162" data-name="Path 188162" d="M106.868,0H83l-.665,1.29V39.375h30.342l1.29-.665V7.1Z" transform="translate(-78.333 0)" fill="#eceaec"/>
      <path id="Path_188163" data-name="Path 188163" d="M75.613,36.774V0a1.29,1.29,0,0,0-1.29,1.29V38.71A1.29,1.29,0,0,0,75.613,40h29.677a1.29,1.29,0,0,0,1.29-1.29H77.549A1.935,1.935,0,0,1,75.613,36.774ZM106.581,6.986a1.29,1.29,0,0,0-.378-.912l-5.7-5.7A1.29,1.29,0,0,0,99.595,0h-.111V6.452a.645.645,0,0,0,.645.645h6.452Z" transform="translate(-70.452 0)" fill="#dad8db"/>
      <path id="Path_188164" data-name="Path 188164" d="M54.6,312.506h-20a1.932,1.932,0,0,1-.645-.11l-.621,1.037v8.151a1.935,1.935,0,0,0,1.935,1.935H54.6l1.29-.691V313.8A1.29,1.29,0,0,0,54.6,312.506Z" transform="translate(-32.664 -287.99)" fill="#ffb11f"/>
      <path id="Path_188165" data-name="Path 188165" d="M26.064,290.857a1.941,1.941,0,0,1-1.29-1.825v11.613a1.935,1.935,0,0,0,1.935,1.935h20A1.29,1.29,0,0,0,48,301.29H28a1.936,1.936,0,0,1-1.935-1.935Z" transform="translate(-24.774 -266.451)" fill="#e89e12"/>
      <path id="Path_188229" data-name="Path 188229" d="M231.488,70.34V68.224a.407.407,0,0,0-.41-.41h-1.144a.407.407,0,0,0-.41.41V70.34l-.638,1.868a1.712,1.712,0,1,0,3.24,0Zm-.267,2.935a.914.914,0,0,1-1.439,0,.887.887,0,0,1-.114-.8l.21-.629h1.248l.219.629A.89.89,0,0,1,231.222,73.275Zm-3.25-16.82v1.163a.407.407,0,0,0,.41.41h1.553v1.734h-1.553a.407.407,0,0,0-.41.41v.9a.415.415,0,0,0,.41.419h1.553v1.725h-1.553a.407.407,0,0,0-.41.41v.905a.407.407,0,0,0,.41.41h1.553v1.315a.415.415,0,0,0,.419.41h2.278a.413.413,0,0,0,.41-.41v-.905a.419.419,0,0,0-.41-.41h-1.563V63.212h1.563a.413.413,0,0,0,.41-.41V61.9a.413.413,0,0,0-.41-.41h-1.563V59.762h1.563a.421.421,0,0,0,.41-.419v-.9a.421.421,0,0,0-.41-.419h-1.563V56.446Z" transform="translate(-214.911 -53.831)" fill="#ffb11f"/>
      <path id="Path_188230" data-name="Path 188230" d="M-2.3-1.046a.735.735,0,0,1,.476.127.48.48,0,0,1,.153.391.491.491,0,0,1-.153.4A.735.735,0,0,1-2.3,0h-3.51a.569.569,0,0,1-.421-.157.536.536,0,0,1-.157-.4.79.79,0,0,1,.17-.476l2.83-3.918H-5.755a.735.735,0,0,1-.476-.128.48.48,0,0,1-.153-.391.491.491,0,0,1,.153-.4.735.735,0,0,1,.476-.127h3.383a.569.569,0,0,1,.421.157.536.536,0,0,1,.157.4.791.791,0,0,1-.161.476L-4.794-1.046ZM-.246.051A.655.655,0,0,1-.731-.127.655.655,0,0,1-.909-.612V-5.381a.643.643,0,0,1,.178-.476.655.655,0,0,1,.484-.179.655.655,0,0,1,.485.179.643.643,0,0,1,.179.476V-.612a.655.655,0,0,1-.179.485A.655.655,0,0,1-.246.051Zm2.516,0a.655.655,0,0,1-.484-.178.655.655,0,0,1-.178-.485v-4.76a.621.621,0,0,1,.161-.459.621.621,0,0,1,.459-.161H4.361A2.185,2.185,0,0,1,5.882-5.5a1.764,1.764,0,0,1,.544,1.377,1.764,1.764,0,0,1-.544,1.377,2.185,2.185,0,0,1-1.521.493H2.932V-.612a.655.655,0,0,1-.178.485A.655.655,0,0,1,2.269.051ZM4.191-3.256q.994,0,.994-.859t-.994-.867H2.932v1.726Z" transform="translate(12 33)" fill="#fff"/>
    </g>
  </g>
</svg>
