<?xml version="1.0" standalone="no"?>
<!DOCTYPE svg PUBLIC "-//W3C//DTD SVG 1.1//EN" "http://www.w3.org/Graphics/SVG/1.1/DTD/svg11.dtd" >
<svg xmlns="http://www.w3.org/2000/svg">
<metadata>Generated by IcoMoon</metadata>
<defs>
<font id="icomoon" horiz-adv-x="1024">
<font-face units-per-em="1024" ascent="960" descent="-64" />
<missing-glyph horiz-adv-x="1024" />
<glyph unicode="&#x20;" horiz-adv-x="512" d="" />
<glyph unicode="&#xe900;" d="M924.222 507.908c0 22.032-17.86 39.893-39.893 39.893s-39.893-17.86-39.893-39.893v0c-2.199-181.93-150.193-328.565-332.435-328.565s-330.237 146.636-332.433 328.358l-0.002 0.207c0 22.032-17.86 39.893-39.893 39.893s-39.893-17.86-39.893-39.893v0c0.232-213.545 162.598-389.094 370.608-410.187l1.743-0.143v-121.685c0-22.032 17.86-39.893 39.893-39.893s39.893 17.86 39.893 39.893v0 121.685c209.734 21.257 372.076 196.799 372.306 410.306v0.024z" />
<glyph unicode="&#xe901;" d="M512.023 960c-132.121-0.181-239.178-107.237-239.359-239.341v-212.797c0-132.194 107.164-239.359 239.359-239.359s239.359 107.164 239.359 239.359v0 212.779c-0.181 132.121-107.237 239.178-239.341 239.359h-0.018z" />
<glyph unicode="&#xe902;" d="M469.055-10.065h-280.012c-3.707-0.295-8.024-0.464-12.382-0.464-41.795 0-79.974 15.484-109.112 41.030l0.189-0.163c-25.378 28.936-40.86 67.1-40.86 108.88 0 4.323 0.166 8.608 0.492 12.848l-0.035-0.563v646.464c-0.291 3.678-0.457 7.962-0.457 12.286 0 41.78 15.482 79.945 41.023 109.069l-0.162-0.189c28.949 25.383 67.128 40.867 108.923 40.867 4.357 0 8.676-0.168 12.948-0.499l-0.567 0.035h323.232v-161.616c0-89.258 72.358-161.616 161.616-161.616v0h161.616v-188.675c0-0.023 0-0.050 0-0.078 0-4.381-1.763-8.35-4.619-11.237l0.001 0.001-322.078-323.925c-14.401-14.656-23.308-34.749-23.365-56.924v-49.465c-0.078-8.892-7.304-16.070-16.207-16.070-0.065 0-0.13 0-0.195 0.001h0.010zM377.487 299.638c-0.014 0-0.030 0-0.046 0-22.282 0-40.351-18.036-40.404-40.306v-0.005c0.026-22.33 18.12-40.424 40.447-40.45h80.857c22.255 0.079 40.265 18.138 40.265 40.403 0 0.016 0 0.033 0 0.049v-0.003c-0.026 22.237-18.032 40.259-40.26 40.311h-0.005zM242.837 299.638c-0.014 0-0.030 0-0.046 0-22.282 0-40.351-18.036-40.404-40.306v-0.005c0.026-22.33 18.12-40.424 40.447-40.45h0.003c22.32 0.026 40.404 18.126 40.404 40.45v0c-0.053 22.275-18.121 40.311-40.404 40.311 0 0 0 0 0 0v0zM377.487 515.141c-22.313-0.026-40.397-18.094-40.45-40.399v-0.005c0.053-22.275 18.121-40.311 40.404-40.311 0.016 0 0.033 0 0.049 0h242.421c0.014 0 0.030 0 0.046 0 22.282 0 40.351 18.036 40.404 40.306v0.005c-0.053 22.31-18.136 40.377-40.447 40.404h-0.003zM242.837 515.141c-22.313-0.026-40.397-18.094-40.45-40.399v-0.005c0.053-22.275 18.121-40.311 40.404-40.311 0.016 0 0.033 0 0.049 0h-0.003c0 0 0 0 0 0 22.282 0 40.351 18.036 40.404 40.306v0.005c-0.026 22.304-18.1 40.377-40.401 40.404h-0.002z" />
<glyph unicode="&#xe903;" d="M566.069-63.999v119.596l214.396 215.503 120.704-120.75-215.503-214.35zM818.144 308.78l43.728 44.144c8.64 8.767 20.644 14.199 33.917 14.199s25.277-5.431 33.911-14.193l53.34-53.34c8.7-8.671 14.082-20.666 14.082-33.917s-5.383-25.245-14.081-33.915l-0.001-0.001-44.144-43.728zM673.89 636.63q-161.616 0-161.616 161.616v161.616l323.232-323.232z" />
<glyph unicode="&#xe904;" d="M698.132 509.953c-3.617 2.59-5.946 6.779-5.946 11.511 0 3.843 1.536 7.328 4.028 9.873l-0.002-0.002c37.174 42.714 59.879 98.875 60.012 160.337v0.027c-0.006 18.645-2.166 36.782-6.247 54.179l0.317-1.601c-0.4 1.528-0.724 3.361-0.907 5.237l-0.012 0.15c0.032 7.855 6.166 14.267 13.907 14.74l0.042 0.002c0.459 0 6.556 0.334 8.937 0.334 76.307-0.14 138.111-62.031 138.111-138.356 0-16.604-2.925-32.525-8.288-47.276l0.306 0.962c-14.925-42.52-49.31-74.785-92.18-86.477l-0.948-0.22c-11.169-3.050-23.998-4.816-37.235-4.844h-0.017c-0.053 0-0.114 0-0.176 0-27.348 0-52.832 7.985-74.246 21.752l0.546-0.328zM214.825 493.249c-43.781 11.944-78.129 44.2-92.755 85.75l-0.29 0.947c-5.057 13.789-7.982 29.71-7.982 46.314 0 76.326 61.805 138.217 138.098 138.356h0.013c2.38 0 8.353-0.334 8.937-0.334 7.799-0.454 13.958-6.873 13.99-14.739v-0.003c-0.204-2.025-0.543-3.857-1.017-5.634l0.056 0.247c-3.77-15.58-5.931-33.468-5.931-51.861 0-0.252 0.001-0.504 0.002-0.756v0.039c0.133-61.49 22.837-117.651 60.265-160.663l-0.254 0.298c2.446-2.54 3.952-6.001 3.952-9.812 0-4.761-2.35-8.974-5.955-11.54l-0.044-0.029c-20.824-13.438-46.262-21.424-73.567-21.424-0.079 0-0.159 0-0.239 0h0.012c-13.29 0.076-26.126 1.885-38.335 5.212l1.043-0.242zM341.947 691.574c0 0.025 0 0.054 0 0.083 0 94.102 76.285 170.388 170.388 170.388 0.029 0 0.059 0 0.088 0h-0.005c0.025 0 0.054 0 0.083 0 94.148 0 170.471-76.322 170.471-170.471v0c0-94.194-76.36-170.555-170.555-170.555v0c-94.149 0-170.471 76.322-170.471 170.471 0 0.074 0 0.147 0 0.22v-0.011z" />
<glyph unicode="&#xe905;" d="M208.81 33.954c-0.025 0-0.054 0-0.083 0-13.432 0-24.323 10.877-24.347 24.303v129.171c0 111.504 63.143 241.633 241.006 241.633h173.143c177.905 0 241.006-130.13 241.006-241.633v-129.169c-0.048-13.433-10.949-24.305-24.389-24.305-0.015 0-0.029 0-0.044 0h0.002zM925.691 131.383c-0.053-0.001-0.115-0.001-0.176-0.001-7.020 0-12.744 5.552-13.019 12.505l-0.001 0.025v43.349c0.054 2.222 0.086 4.837 0.086 7.461 0 84.753-32.439 161.929-85.577 219.791l0.214-0.236c-2.817 2.828-4.757 6.533-5.375 10.669l-0.013 0.105c-0.004 0.121-0.006 0.263-0.006 0.406 0 7.865 6.376 14.241 14.241 14.241 0.325 0 0.648-0.011 0.968-0.032l-0.044 0.002c3.473 0.245 7.526 0.385 11.611 0.385 96.87 0 175.399-78.529 175.399-175.399 0-4.265-0.152-8.494-0.451-12.682l0.032 0.562v-97.012c0.001-0.087 0.002-0.191 0.002-0.294 0-13.262-10.751-24.013-24.013-24.013-0.104 0-0.207 0.001-0.31 0.002h0.015zM24.809 131.383c-0.087-0.001-0.19-0.002-0.294-0.002-13.308 0-24.097 10.789-24.097 24.097 0 0.074 0 0.148 0.001 0.222v-0.011 97.012c-0.267 3.626-0.419 7.855-0.419 12.12 0 96.87 78.529 175.399 175.399 175.399 4.085 0 8.138-0.14 12.154-0.415l-0.543 0.030c0.277 0.019 0.599 0.030 0.924 0.030 7.865 0 14.241-6.376 14.241-14.241 0-0.142-0.002-0.285-0.006-0.427l0.001 0.021c-0.649-4.237-2.585-7.937-5.389-10.777l0.002 0.002c-52.924-57.678-85.36-134.9-85.36-219.698 0-2.574 0.030-5.14 0.089-7.699l-0.007 0.38v-43.349c-0.231-6.969-5.936-12.53-12.939-12.53-0.061 0-0.122 0.001-0.183 0.002h0.009z" />
<glyph unicode="&#xe906;" d="M623.732 242.808l-55.647-82.379c-140.34 59.368-249.954 168.448-308.599 304.64l-1.435 3.745 82.914 54.741c27.653 18.343 45.636 49.341 45.636 84.539 0 19.104-5.297 36.97-14.504 52.21l0.254-0.453-78.26 130.735c-13.383 22.026-37.246 36.514-64.493 36.514-5.222 0-10.319-0.532-15.241-1.545l0.486 0.084h-0.782c-104.598-20.337-182.479-111.213-182.479-220.279 0-20.341 2.709-40.051 7.786-58.785l-0.362 1.571c84.191-295.363 313.289-522.811 603.509-603.18l6.096-1.44c17.353-4.78 37.279-7.527 57.846-7.527 109.022 0 200.017 77.179 221.33 179.881l0.254 1.465c0.894 4.318 1.404 9.28 1.404 14.362 0 27.082-14.52 50.772-36.199 63.71l-0.339 0.187-131.806 78.26c-14.919 8.899-32.902 14.162-52.115 14.162-35.313 0-66.474-17.775-85.024-44.866l-0.228-0.352z" />
<glyph unicode="&#xe907;" d="M726.87 428.655c-146.649 0.14-265.502 118.95-265.713 265.57v0.020c0.164 146.692 119.025 265.567 265.695 265.754h0.018c146.636-0.234 265.431-119.102 265.548-265.743v-0.011c-0.164-146.601-118.951-265.402-265.53-265.59h-0.018zM696.636 811.141c-0.012 0-0.027 0-0.041 0-17.083 0-30.933-13.85-30.933-30.933v-179.792h167.024c0.012 0 0.027 0 0.041 0 17.083 0 30.933 13.85 30.933 30.933v0c0 0 0 0 0 0 0 17.083-13.85 30.933-30.933 30.933-0.014 0-0.029 0-0.043 0h-105.32v117.925c0 0.025 0 0.054 0 0.083 0 16.995-13.742 30.781-30.721 30.851h-0.007z" />
<glyph unicode="&#xe908;" d="M728.064 744.421c0-119.061-96.518-215.579-215.579-215.579s-215.579 96.518-215.579 215.579c0 119.061 96.518 215.579 215.579 215.579s215.579-96.518 215.579-215.579z" />
<glyph unicode="&#xe909;" d="M619.789 421.053h-215.579c-218.813 0-296.421-160.229-296.421-297.445 0-122.718 65.267-187.608 188.632-187.608h431.158c123.527 0 188.632 64.674 188.632 187.608 0 137.216-77.608 297.445-296.421 297.445z" />
<glyph unicode="&#xe90a;" d="M228.401 235.319c-23.495 0-42.54 19.046-42.54 42.54v0c0 23.495 19.046 42.54 42.54 42.54v0h170.163c0 0 0 0 0 0 23.506 0 42.565-19.039 42.597-42.537v-0.003c-0.033-23.502-19.092-42.54-42.597-42.54 0 0 0 0 0 0v0zM1.518 561.408v113.442c-0.966 6.405-1.518 13.795-1.518 21.314 0 83.045 67.322 150.367 150.367 150.367 7.519 0 14.909-0.552 22.133-1.618l-0.819 0.099h680.649c6.385 0.96 13.752 1.508 21.247 1.508 83.076 0 150.424-67.347 150.424-150.424 0-7.496-0.548-14.863-1.607-22.064l0.098 0.817v-113.442z" />
<glyph unicode="&#xe90b;" d="M1022.492 561.464v-340.324c0.96-6.385 1.508-13.752 1.508-21.247 0-83.076-67.347-150.424-150.424-150.424-7.496 0-14.863 0.548-22.064 1.607l0.817-0.098h-680.649c-6.385-0.96-13.752-1.508-21.247-1.508-83.076 0-150.424 67.347-150.424 150.424 0 7.496 0.548 14.863 1.607 22.064l-0.098-0.817v340.324z" />
<glyph unicode="&#xe90c;" d="M158.498 444.292c26.796 47.302 76.79 78.701 134.117 78.701 0.1 0 0.2 0 0.3 0h577.711v53.067q0 153.627-153.627 153.627h-307.255l-102.491 102.404h-153.627q-153.627 0-153.627-153.627v-537.476h0.308c0.002 13.404 3.5 25.991 9.633 36.898l-0.196-0.379z" />
<glyph unicode="&#xe90d;" d="M947.265 522.642l-654.452 0.308c-0.085 0-0.185 0-0.284 0-57.327 0-107.321-31.4-133.72-77.94l-0.398-0.762-148.711-266.653c-5.937-10.529-9.436-23.115-9.437-36.519v-0.001c-0.002-0.196-0.003-0.427-0.003-0.659 0-42.254 34.253-76.507 76.507-76.507 0.032 0 0.064 0 0.095 0h654.491c0.053 0 0.116 0 0.178 0 57.31 0 107.29 31.381 133.695 77.897l0.398 0.761 148.711 266.345c6.081 10.724 9.665 23.555 9.665 37.222 0 42.254-34.253 76.507-76.507 76.507-0.080 0-0.161 0-0.241 0h0.013z" />
<glyph unicode="&#xe90e;" d="M130.226 101.068v327.233c-0.923 6.139-1.45 13.223-1.45 20.43 0 79.881 64.757 144.638 144.638 144.638 7.207 0 14.291-0.527 21.216-1.545l-0.786 0.095h436.311c6.139 0.923 13.223 1.45 20.43 1.45 79.881 0 144.638-64.757 144.638-144.638 0-7.207-0.527-14.291-1.545-21.216l0.095 0.786v-327.233c0.923-6.139 1.45-13.223 1.45-20.43 0-79.881-64.757-144.638-144.638-144.638-7.207 0-14.291 0.527-21.216 1.545l0.786-0.095h-436.311c-6.139-0.923-13.223-1.45-20.43-1.45-79.881 0-144.638 64.757-144.638 144.638 0 7.207 0.527 14.291 1.545 21.216l-0.095-0.786z" />
<glyph unicode="&#xe90f;" d="M471.094 155.606v111.15c-15.93 12.181-26.176 31.1-26.451 52.422v0.045c0 0.065 0 0.142 0 0.218 0 37.531 30.424 67.955 67.955 67.955 0 0 0 0 0 0h0.545c37.652 0 68.174-30.522 68.174-68.174v0c-0.307-22.181-11.349-41.72-28.155-53.691l-0.206-0.139v-109.732c0 0 0 0 0 0 0-22.602-18.307-40.927-40.901-40.959h-0.003c0 0 0 0 0 0-22.602 0-40.927 18.307-40.959 40.901v0.003zM730.154 591.918h-40.904v109.078c-0.186 97.818-79.433 177.065-177.233 177.251h-0.018c-97.818-0.186-177.065-79.433-177.251-177.233v-109.096h-40.959c-0.043 0-0.093 0-0.144 0-14.39 0-28.508-1.17-42.262-3.42l1.501 0.203v112.241c0.155 143.012 116.048 258.905 259.044 259.059h0.015c143.012-0.155 258.905-116.048 259.059-259.044v-112.256c-12.266 2.047-26.401 3.218-40.807 3.218-0.015 0-0.029 0-0.044 0h0.002z" />
<glyph unicode="&#xe910;" d="M422.622 775.233c-0.923 6.138-1.45 13.222-1.45 20.43 0 79.881 64.756 144.637 144.637 144.637 7.207 0 14.291-0.527 21.216-1.545l-0.786 0.095h272.694c6.138 0.923 13.222 1.45 20.43 1.45 79.881 0 144.637-64.756 144.637-144.637 0-7.207-0.527-14.291-1.545-21.216l0.095 0.786v-654.467c0.923-6.138 1.45-13.222 1.45-20.43 0-79.881-64.756-144.637-144.637-144.637-7.207 0-14.291 0.527-21.216 1.545l0.786-0.095h-272.694c-6.138-0.923-13.222-1.45-20.43-1.45-79.881 0-144.637 64.756-144.637 144.637 0 7.207 0.527 14.291 1.545 21.216l-0.095-0.786z" />
<glyph unicode="&#xe911;" d="M1024 448c0-282.77-229.23-512-512-512s-512 229.23-512 512c0 282.77 229.23 512 512 512s512-229.23 512-512z" />
<glyph unicode="&#xe912;" d="M512.044 358.432c-0.070 0-0.153-0.001-0.236-0.001-4.283 0-8.396 0.723-12.225 2.055l0.261-0.079c-15.365 5.253-26.217 19.566-26.217 36.415 0 4.369 0.729 8.567 2.073 12.478l-0.081-0.27c15.988 35.231 42.175 63.498 74.766 81.652l0.891 0.455c26.653 13.229 44.65 40.26 44.65 71.494 0 5.134-0.486 10.155-1.415 15.017l0.079-0.498c-6.63 34.213-32.97 60.817-66.503 67.75l-0.552 0.095c-4.683 0.94-10.066 1.478-15.574 1.478-20.451 0-39.17-7.414-53.618-19.699l0.118 0.098c-18.674-15.746-30.456-39.155-30.456-65.316 0-0.071 0-0.143 0-0.214v0.011c0-21.207-17.192-38.399-38.399-38.399s-38.399 17.192-38.399 38.399v0c-0.002 0.276-0.003 0.603-0.003 0.93 0 88.803 71.989 160.793 160.793 160.793 78.912 0 144.547-56.846 158.189-131.82l0.148-0.983c1.436-7.991 2.257-17.188 2.257-26.578 0-57.904-31.221-108.515-77.747-135.92l-0.737-0.402c-37.477-25.146-44.455-39.101-45.684-42.787-5.292-15.312-19.569-26.12-36.376-26.155h-0.004zM564.267 224.014c0 28.284-22.929 51.213-51.213 51.213v0h-0.527c-28.076-0.273-50.731-23.096-50.731-51.211 0-28.284 22.929-51.213 51.213-51.213s51.212 22.928 51.213 51.211v0z" />
<glyph unicode="&#xe913;" glyph-name="phone" d="M675.061 288.607l-63.416-94.784c-160.284 68.563-285.293 193.856-351.843 350.040l-1.634 4.314 94.54 62.88c31.577 21.226 52.077 56.816 52.077 97.193 0 21.93-6.048 42.448-16.565 59.976l0.294-0.529-89.027 150.25c-15.169 25.265-42.422 41.908-73.562 41.908-5.939 0-11.738-0.605-17.335-1.758l0.552 0.095h-0.926c-119.473-23.963-208.216-128.037-208.216-252.837 0-23.468 3.138-46.203 9.018-67.809l-0.419 1.806c95.089-338.588 356.466-599.803 688.159-692.982l6.988-1.677c19.74-5.427 42.406-8.547 65.8-8.547 124.79 0 228.852 88.744 252.52 206.565l0.276 1.648c1.054 5.033 1.658 10.817 1.658 16.742 0 31.034-16.56 58.2-41.325 73.144l-0.383 0.214-150.396 89.71c-17.057 10.307-37.661 16.406-59.689 16.406-40.339 0-75.902-20.453-96.882-51.553l-0.264-0.415z" />
<glyph unicode="&#xe914;" glyph-name="attachment" d="M425.083-63.99c-0.8-0.006-1.747-0.010-2.694-0.010-102.678 0-195.632 41.631-262.903 108.934l-0.002 0.002c-67.581 69.206-109.272 163.953-109.272 268.436 0 106.936 43.671 203.673 114.151 273.347l0.036 0.036 293.204 294.037c48.758 48.931 116.208 79.207 190.73 79.207s141.973-30.276 190.722-79.199l0.008-0.008c48.681-48.987 78.77-116.498 78.77-191.037s-30.089-142.051-78.784-191.051l0.014 0.014-294.74-295.53c-29.42-28.208-69.427-45.576-113.49-45.576s-84.070 17.368-113.548 45.631l0.058-0.055c-28.964 29.122-46.868 69.27-46.868 113.6s17.904 84.478 46.875 113.607l-0.007-0.007 258.928 259.587c9.269 9.296 22.088 15.047 36.25 15.047 28.27 0 51.188-22.918 51.188-51.188 0-14.108-5.707-26.883-14.939-36.142l-258.927-259.585c-10.514-10.594-17.011-25.187-17.011-41.297s6.498-30.703 17.015-41.301l-0.004 0.004c10.624-10.192 25.074-16.468 40.99-16.468s30.366 6.276 41.010 16.488l-0.021-0.020 294.696 295.486c30.262 30.444 48.967 72.405 48.967 118.734s-18.705 88.291-48.976 118.743l0.008-0.008c-30.64 29.408-72.32 47.516-118.23 47.516s-87.59-18.108-118.289-47.572l0.059 0.056-293.204-294.037c-51.283-51.565-82.984-122.651-82.984-201.141 0-76.008 29.727-145.073 78.189-196.203l-0.121 0.129c48.898-48.816 116.405-79.004 190.964-79.004 0.751 0 1.501 0.003 2.251 0.009l-0.115-0.001c79.096 0.057 150.721 31.998 202.726 83.663l-0.015-0.015 257.392 258.138c9.373 10.019 22.675 16.263 37.434 16.263 28.285 0 51.215-22.93 51.215-51.215 0-14.705-6.198-27.963-16.123-37.304l-0.026-0.024-257.392-258.138c-70.591-70.088-167.803-113.446-275.141-113.578h-0.025z" />
<glyph unicode="&#xe915;" glyph-name="info" d="M512 960c-282.769 0-512-229.23-512-512s229.23-512 512-512c282.769 0 512 229.23 512 512 0 0.016 0 0.032 0 0.048v-0.003c-0.026 282.75-229.246 511.954-512 511.954v0zM618.582 166.543q-39.51-15.614-63.044-23.76c-15.422-5.212-33.184-8.22-51.648-8.22-1.079 0-2.156 0.010-3.23 0.031l0.161-0.002c-2.007-0.132-4.351-0.207-6.712-0.207-25.678 0-49.282 8.877-67.912 23.729l0.22-0.17c-16.259 13.914-26.499 34.457-26.499 57.391 0 0.651 0.008 1.3 0.025 1.947l-0.002-0.096c0.015 10.086 0.722 19.991 2.076 29.69l-0.129-1.133q2.399 16.609 6.382 32.903l32.993 116.493c2.897 11.178 5.431 21.814 7.423 31.681 1.79 8.21 2.857 17.669 2.941 27.363v0.063c0.162 1.39 0.255 3 0.255 4.632 0 10.053-3.509 19.285-9.369 26.541l0.063-0.080c-8.228 5.673-18.411 9.061-29.386 9.061-2.052 0-4.077-0.118-6.067-0.349l0.242 0.023c-9.357-0.036-18.368-1.456-26.859-4.066l0.655 0.173c-9.052-2.716-16.609-5.205-22.946-7.649l8.418 35.889q32.36 13.215 61.957 22.629c16.639 5.763 35.822 9.206 55.773 9.458l0.119 0.001c2.028 0.137 4.396 0.215 6.782 0.215 25.247 0 48.452-8.745 66.75-23.371l-0.214 0.165c15.85-14.048 25.791-34.458 25.791-57.19 0-0.865-0.014-1.726-0.043-2.584l0.003 0.125q0-7.604-1.765-26.747c-1.139-12.999-3.477-24.959-6.936-36.432l0.328 1.267-32.812-116.177q-4.526-15.749-7.242-31.681c-1.678-7.982-2.815-17.318-3.16-26.857l-0.009-0.298c-0.196-1.468-0.308-3.165-0.308-4.889 0-10.387 4.064-19.824 10.689-26.81l-0.016 0.017c8.667-5.439 19.202-8.666 30.491-8.666 1.885 0 3.749 0.090 5.588 0.266l-0.234-0.018c9.755 0.215 19.070 1.738 27.892 4.4l-0.737-0.191c8.606 2.206 15.914 4.729 22.952 7.761l-1.002-0.384-8.78-35.844zM612.789 637.991c-13.992-13.21-32.915-21.331-53.733-21.331-0.537 0-1.073 0.005-1.607 0.016l0.080-0.001c-0.432-0.008-0.94-0.013-1.45-0.013-20.914 0-39.933 8.116-54.079 21.37l0.043-0.040c-14.184 12.504-23.085 30.715-23.085 51.004 0 0.255 0.001 0.51 0.004 0.764v-0.039c-0.001 0.128-0.001 0.279-0.001 0.43 0 20.408 8.893 38.739 23.015 51.33l0.068 0.060c14.047 13.346 33.086 21.556 54.043 21.556 0.508 0 1.014-0.005 1.519-0.014l-0.076 0.001c0.464 0.010 1.011 0.016 1.559 0.016 20.848 0 39.778-8.215 53.729-21.584l-0.028 0.026c14.133-12.827 22.971-31.269 22.971-51.775s-8.839-38.947-22.914-51.723l-0.058-0.052z" />
<glyph unicode="&#xe916;" d="M512.022-64c-282.782 0-512.022 229.24-512.022 512.022s229.24 512.022 512.022 512.022c282.782 0 512.022-229.24 512.022-512.022v0c0-0.013 0-0.028 0-0.044 0-282.758-229.22-511.978-511.978-511.978-0.015 0-0.031 0-0.046 0h0.002z" />
<glyph unicode="&#xe917;" d="M665.624 460.793c-37.128 0-63.986 37.654-63.986 89.616s26.858 89.616 63.986 89.616 63.986-37.654 63.986-89.616-26.858-89.616-63.986-89.616zM422.406 550.409c0 51.918-26.858 89.616-63.986 89.616s-63.986-37.654-63.986-89.616 26.902-89.616 63.986-89.616 63.986 37.654 63.986 89.572zM747.165 271.16c4.894 6.379 7.843 14.475 7.843 23.26 0 21.213-17.197 38.41-38.41 38.41-12.429 0-23.479-5.903-30.499-15.059l-0.067-0.092c-40.018-53.168-103.008-87.188-173.944-87.188s-133.925 34.020-173.544 86.634l-0.4 0.554c-7.086 9.359-18.204 15.343-30.72 15.343-21.223 0-38.427-17.204-38.427-38.427 0-8.706 2.896-16.737 7.776-23.18l-0.070 0.096c54.215-71.704 139.346-117.557 235.187-117.557s180.971 45.853 234.652 116.818l0.535 0.739z" />
<glyph unicode="&#xe918;" glyph-name="check" d="M334.851 59.090v0c-0.074 0-0.162 0-0.25 0-24.503 0-46.67 10.005-62.638 26.151l-244.957 244.957c-16.666 16.186-27.007 38.806-27.007 63.841 0 49.13 39.828 88.959 88.959 88.959 25.035 0 47.655-10.341 63.82-26.986l0.020-0.021 182.245-182.245 536.156 536.156c16.186 16.666 38.806 27.007 63.841 27.007 49.13 0 88.959-39.828 88.959-88.959 0-25.035-10.341-47.655-26.986-63.82l-0.021-0.020-599.051-599.051c-16.017-16.043-38.157-25.968-62.616-25.968-0.166 0-0.332 0.001-0.498 0.002h0.026z" />
<glyph unicode="&#xe919;" d="M768.012 550.365l193.583 154.875c6.513 5.251 14.888 8.429 24.006 8.429 21.208 0 38.4-17.193 38.4-38.4 0-0.001 0-0.001 0-0.003v0-454.663c0-0.001 0-0.001 0-0.002 0-21.208-17.193-38.4-38.4-38.4-9.117 0-17.494 3.178-24.080 8.486l0.073-0.057-193.583 154.875z" />
<glyph unicode="&#xe91a;" d="M614.409 89.602h-460.807q-153.602 0-153.602 153.602v409.592q0 153.602 153.602 153.602h460.807q153.602 0 153.602-153.602v-409.592q0-153.602-153.602-153.602z" />
<glyph unicode="&#xe91b;" d="M295.122 103.161v0c-24.598 14.472-54.186 23.019-85.77 23.019s-61.172-8.548-86.576-23.457l0.806 0.437c-2.718-1.597-5.989-2.54-9.479-2.54-6.982 0-13.082 3.775-16.37 9.396l-0.048 0.090-95.151 163.969c-1.591 2.715-2.531 5.98-2.531 9.464 0 6.958 3.75 13.041 9.34 16.338l0.088 0.048 0.579 0.289c51.226 30.082 85.072 84.902 85.072 147.626 0 0.168 0 0.335-0.001 0.503v-0.026c-0.166 62.788-34.106 117.612-84.605 147.28l-0.804 0.437h-0.289c-5.649 3.316-9.383 9.36-9.383 16.276 0 3.473 0.941 6.725 2.582 9.517l-0.048-0.088 95.199 164.307c3.336 5.663 9.403 9.404 16.344 9.404 3.463 0 6.708-0.931 9.499-2.556l-0.090 0.048c24.616-14.493 54.23-23.054 85.843-23.054s61.226 8.561 86.648 23.491l-0.805-0.437c51.196 30.065 85.023 84.853 85.023 147.542 0 0.011 0 0.021 0 0.032v-0.002c0 10.654 8.637 19.29 19.29 19.29v0h225.072c10.654 0 19.29-8.637 19.29-19.29v0 0c0-0.009 0-0.020 0-0.030 0-62.689 33.827-117.477 84.223-147.107l0.8-0.435c24.616-14.493 54.23-23.054 85.843-23.054s61.226 8.561 86.648 23.491l-0.805-0.437c2.696 1.569 5.934 2.495 9.388 2.495 6.955 0 13.034-3.757 16.317-9.352l0.048-0.089 95.199-163.969c1.566-2.697 2.49-5.937 2.49-9.392 0-6.942-3.732-13.012-9.299-16.314l-0.088-0.048-0.482-0.289c-51.252-30.076-85.119-84.91-85.119-147.654 0-0.090 0-0.18 0-0.27v0.014c0.056-62.9 34.024-117.853 84.605-147.57l0.804-0.437c5.649-3.316 9.383-9.36 9.383-16.276 0-3.473-0.941-6.725-2.582-9.517l0.048 0.088-95.199-164.307c-3.336-5.663-9.403-9.404-16.344-9.404-3.463 0-6.708 0.931-9.499 2.556l0.090-0.048c-24.617 14.489-54.231 23.046-85.843 23.046s-61.225-8.559-86.648-23.484l0.806 0.437c-51.21-30.117-85.045-84.939-85.071-147.665v-0.004c0-10.654-8.637-19.29-19.29-19.29v0h-225.265c-10.654 0-19.29 8.637-19.29 19.29v0 0c0 0.104 0 0.228 0 0.351 0 62.52-33.636 117.185-83.799 146.884l-0.791 0.433z" />
<glyph unicode="&#xe91c;" d="M656.627 448.509c0-79.904-64.775-144.679-144.679-144.679s-144.679 64.775-144.679 144.679c0 79.904 64.775 144.679 144.679 144.679s144.679-64.775 144.679-144.679z" />
<glyph unicode="&#xe91d;" glyph-name="plus" d="M1023.373 359.055h-423.056v-423.056h-176.725v423.056h-423.011v176.814h423.056v424.131h176.725v-424.131h423.056z" />
<glyph unicode="&#xe91e;" glyph-name="ellipse" d="M512 704c70.692 0 128 57.308 128 128s-57.308 128-128 128c-70.692 0-128-57.308-128-128v0c0-70.692 57.308-128 128-128v0zM512 576c-70.692 0-128-57.308-128-128s57.308-128 128-128c70.692 0 128 57.308 128 128v0c0 70.692-57.308 128-128 128v0zM512 192c-70.692 0-128-57.308-128-128s57.308-128 128-128c70.692 0 128 57.308 128 128v0c0 70.692-57.308 128-128 128v0z" />
<glyph unicode="&#xe91f;" glyph-name="arrow-down" d="M459.619 352.527c13.24-13.349 31.589-21.613 51.868-21.613s38.628 8.264 51.863 21.608l0.005 0.005 334.687 335.454c13.335 13.922 32.075 22.574 52.837 22.574 40.384 0 73.121-32.738 73.121-73.121 0-20.589-8.51-39.191-22.204-52.48l-0.018-0.017-335.377-335.377c-39.66-39.614-94.426-64.113-154.914-64.113s-115.253 24.499-154.915 64.115l-335.375 335.375c-13.101 13.224-21.196 31.428-21.196 51.523 0 40.437 32.781 73.218 73.218 73.218 20.343 0 38.748-8.296 52.016-21.689l0.006-0.006z" />
<glyph unicode="&#xe920;" glyph-name="filter" d="M177.477 959.998h668.917c60.609-0.074 109.724-49.188 109.798-109.791v-116.151c-0.078-30.298-12.333-57.719-32.128-77.638l-263.536-263.492c-8.057-8.042-13.040-19.159-13.040-31.441 0-0.041 0-0.082 0-0.122v0.006-425.37l-271.018 203.252v222.118c0 0.042 0 0.092 0 0.141 0 12.287-4.984 23.411-13.040 31.459l-263.499 263.455c-19.789 19.914-32.045 47.334-32.123 77.618v116.159c0.049 60.574 49.104 109.674 109.656 109.798h0.012zM582.243 66.443v294.969c0 0.060 0 0.132 0 0.203 0 30.234 12.278 57.6 32.12 77.384l263.588 263.545c8.041 8.096 13.017 19.243 13.040 31.553v116.148c-0.025 24.621-19.977 44.573-44.595 44.597h-668.919c-24.602-0.049-44.529-19.992-44.554-44.595v-116.146c0.018-12.315 4.996-23.464 13.042-31.56l263.54-263.496c19.844-19.786 32.123-47.153 32.123-77.386 0-0.087 0-0.173 0-0.26v0.013-189.517z" />
<glyph unicode="&#xe921;" glyph-name="search" d="M459.919 959.931c254.006 0 459.919-205.912 459.919-459.919s-205.912-459.919-459.919-459.919c-254.006 0-459.919 205.912-459.919 459.919v0c0.3 253.886 206.033 459.619 459.89 459.919h0.029zM459.919 127.853c205.538 0 372.159 166.622 372.159 372.159s-166.622 372.159-372.159 372.159c-205.538 0-372.159-166.622-372.159-372.159v0c0.233-205.443 166.715-371.926 372.137-372.159h0.023zM979.982-63.931c-0.003 0-0.006 0-0.010 0-12.111 0-23.074 4.92-30.997 12.87l-226.245 226.245c-7.929 7.939-12.833 18.9-12.833 31.009s4.903 23.070 12.833 31.009v0c7.939 7.929 18.9 12.833 31.009 12.833s23.070-4.903 31.009-12.833l226.419-226.186c7.929-7.939 12.833-18.9 12.833-31.009 0-24.221-19.623-43.858-43.839-43.88h-0.002z" />
<glyph unicode="&#xe922;" d="M175.561 640.522l-163.617-163.617c-3.679-3.738-6.663-8.173-8.733-13.087l-0.103-0.275c-1.966-4.608-3.109-9.97-3.109-15.598s1.142-10.989 3.209-15.865l-0.101 0.267c2.173-5.189 5.157-9.624 8.84-13.367l-0.005 0.006 163.617-163.617c7.285-6.802 17.098-10.978 27.885-10.978 22.591 0 40.904 18.313 40.904 40.904 0 10.788-4.176 20.601-11 27.909l0.022-0.024-93.752 93.807h610.236c22.591 0 40.904 18.313 40.904 40.904s-18.313 40.904-40.904 40.904v0h-610.236l93.752 93.807c6.802 7.285 10.978 17.098 10.978 27.885 0 22.591-18.313 40.904-40.904 40.904-10.788 0-20.601-4.176-27.909-11l0.024 0.022z" />
<glyph unicode="&#xe923;" glyph-name="outgoing-call" d="M967.449 960.221c-0.665 0-1.404 0-2.069 0h-182.944c-18.608 0-33.692-15.085-33.692-33.692s15.085-33.692 33.692-33.692h106.028l-274.195-274.121c-6.856-6.192-11.146-15.113-11.146-25.037 0-18.608 15.085-33.692 33.692-33.692 9.923 0 18.845 4.29 25.011 11.117l0.026 0.029 269.244 269.17-5.468-94.871c-0.006-0.235-0.009-0.512-0.009-0.79 0-18.608 15.085-33.692 33.692-33.692 17.533 0 31.939 13.393 33.544 30.506l0.010 0.134 10.492 185.013c0 0.023 0 0.051 0 0.078 0 18.567-15.052 33.619-33.619 33.619-0.806 0-1.605-0.028-2.397-0.084l0.107 0.006zM762.708-63.336h-0.961c-74.755 7.452-143.104 28.467-204.746 60.584l3.108-1.474c-140.258 68.945-258.367 162.437-353.287 275.982l-1.371 1.686c-71.624 82.204-130.206 178.118-171.075 282.895l-2.264 6.595c-19.017 44.682-30.072 96.657-30.072 151.214 0 7.107 0.188 14.17 0.558 21.184l-0.041-0.98c3.419 44.241 22.751 83.407 52.209 112.28l0.029 0.028 76.842 76.621c21.818 22.223 51.951 36.219 85.352 36.941l0.135 0.002c33.331-0.581 63.273-14.623 84.711-36.905l0.037-0.039c14.334-13.374 28.668-27.855 42.042-41.598l0.517-0.591 20.097-20.467 60.957-60.957c23.548-21.658 38.51-52.335 39.379-86.515l0.003-0.155c-0.968-34.338-15.904-65.008-39.301-86.67l-0.080-0.074c-6.28-6.28-12.561-12.561-18.62-18.841-14.334-14.777-29.555-29.998-45.514-44.997 16.283-31.912 34.459-59.412 55.295-84.633l-0.619 0.771c51.105-63.915 110.709-118.256 177.71-162.26l2.87-1.77c6.207-3.916 13.374-7.389 20.836-11.305l8.719-4.359 63.469 63.469c21.595 23.039 51.999 37.596 85.808 38.272l0.122 0.002c33.851-0.541 64.136-15.362 85.173-38.687l0.092-0.104 122.726-122.726c23.635-21.543 38.408-52.456 38.408-86.821 0-33.976-14.442-64.58-37.521-86.007l-0.074-0.068c-8.349-8.645-17.585-17.881-29.555-29.555l-2.808-2.734c-12.141-11.332-23.432-23.021-34.098-35.27l-0.481-0.565c-0.72-1.017-1.472-1.909-2.292-2.735l0.001 0.001c-32.909-36.667-80.455-59.628-133.363-59.628-1.82 0-3.633 0.027-5.44 0.081l0.265-0.006c-5.024 0.517-9.679 0.665-13.891 0.887zM192.3 860.917l-75.808-75.808c-15.453-14.859-25.552-35.188-27.174-57.863l-0.016-0.286c-0.148-3.599-0.232-7.822-0.232-12.066 0-44.217 9.163-86.294 25.693-124.436l-0.782 2.027c39.71-101.36 93.236-188.645 159.405-264.631l-0.917 1.076c88.202-105.824 196.482-191.661 319.395-252.362l5.708-2.548c49.128-26.112 106.499-44.198 167.316-50.797l2.107-0.185c3.251 0 6.502 0 9.458 0 1.296-0.064 2.814-0.101 4.34-0.101 27.57 0 52.353 11.927 69.473 30.903l0.073 0.083c13.392 15.439 26.928 29.514 41.148 42.869l0.303 0.281 2.29 2.29c8.719 8.349 17.955 17.363 26.525 26.599 18.102 18.841 18.324 34.136 1.034 51.721l-123.539 123.022c-5.517 6.713-13.448 11.265-22.449 12.324l-0.161 0.015c-9.777-1.152-18.284-5.845-24.346-12.74l-0.037-0.043-76.473-76.547c-10.848-11.853-26.387-19.258-43.655-19.258-10.321 0-20.024 2.645-28.468 7.295l0.306-0.154-1.847 1.034-1.847 1.33c-6.354 3.62-13.743 7.389-21.132 11.009l-4.285 2.29c-9.676 4.682-17.638 9.158-25.312 14.045l1.004-0.597c-78.020 51.064-144.522 111.832-200.103 181.679l-1.313 1.708c-29.241 34.97-54.209 74.979-73.223 118.198l-1.255 3.198-0.443 0.961s-0.369 0.961-0.591 1.626c-2.585 6.343-4.085 13.702-4.085 21.411 0 16.949 7.251 32.204 18.821 42.833l0.042 0.038 1.773 1.773c17.659 15.664 34.062 32.215 51.278 49.652l4.285 4.285 9.458 9.605 9.679 10.049c7.331 6.275 12.368 15.044 13.791 24.979l0.025 0.216c-1.453 10.127-6.49 18.872-13.761 25.075l-0.056 0.047-60.957 60.957-10.714 10.935-10.714 11.009-5.542 5.394c-11.748 11.97-22.905 23.053-34.357 33.914l-0.591 0.591c-5.842 6.811-14.133 11.377-23.493 12.327l-0.151 0.012c-9.94-0.744-18.686-5.316-24.869-12.23l-0.031-0.036z" />
<glyph unicode="&#xe924;" glyph-name="incoming-call" d="M604.342 596.162c0 0.659 0 1.391 0 2.049v182.972c0.862 17.906 15.588 32.097 33.63 32.097s32.768-14.191 33.627-32.021l0.003-0.077v-105.903l273.872 273.872c6.171 6.68 14.976 10.848 24.754 10.848 18.594 0 33.667-15.073 33.667-33.667 0-9.779-4.169-18.583-10.826-24.734l-0.023-0.021-268.821-268.821 94.78 5.416c0.904 0.086 1.954 0.135 3.016 0.135 18.594 0 33.667-15.073 33.667-33.667 0-18.289-14.585-33.173-32.758-33.655l-0.045-0.001-184.948-10.539c-0.003 0-0.006 0-0.009 0-18.553 0-33.593 15.040-33.593 33.593 0 0.824 0.030 1.642 0.088 2.45l-0.006-0.109zM762.063-63.413h-1.025c-74.649 7.579-142.856 28.67-204.363 60.829l3.095-1.473c-140.013 68.861-257.908 162.233-352.642 275.623l-1.371 1.688c-71.391 82.004-129.811 177.659-170.606 282.139l-2.266 6.589c-18.849 44.539-29.804 96.33-29.804 150.679 0 7.189 0.192 14.331 0.57 21.426l-0.042-0.99c3.342 44.103 22.582 83.164 51.936 111.951l0.028 0.027 76.629 76.848c21.849 22.071 51.95 35.939 85.288 36.592l0.123 0.002c33.185-0.534 63.019-14.445 84.429-36.562l0.031-0.032c14.638-13.321 28.617-27.885 41.937-41.571l0.585-0.659 20.054-20.419 60.893-60.893c23.468-21.606 38.374-52.199 39.226-86.284l0.003-0.152c-0.992-34.186-15.864-64.714-39.15-86.29l-0.079-0.073c-6.221-6.221-12.515-12.515-18.59-18.736-14.638-14.638-29.276-30.007-45.523-45.085 16.29-31.916 34.465-59.419 55.294-84.649l-0.621 0.776c51.019-63.974 110.548-118.358 177.486-162.4l2.852-1.761c6.221-3.952 13.394-7.318 20.786-11.345l8.782-4.392 63.454 63.528c21.532 22.992 51.857 37.522 85.58 38.203l0.124 0.002c33.749-0.565 63.943-15.322 84.956-38.543l0.090-0.101 122.517-122.517c23.503-21.492 38.189-52.29 38.189-86.519 0-33.914-14.417-64.461-37.456-85.846l-0.074-0.068c-8.27-8.636-17.566-17.931-29.276-29.276l-2.854-2.781c-12.125-11.322-23.405-22.996-34.065-35.226l-0.48-0.563c-0.749-1.034-1.493-1.941-2.288-2.801l0.018 0.020c-32.84-36.591-80.288-59.504-133.085-59.504-1.817 0-3.628 0.027-5.432 0.081l0.265-0.006c-5.196 0.147-9.661 0.365-14.126 0.512zM192.803 859.641l-75.897-75.75c-15.449-14.88-25.554-35.214-27.209-57.893l-0.017-0.292c-0.143-3.534-0.224-7.682-0.224-11.848 0-44.205 9.155-86.272 25.671-124.408l-0.782 2.028c39.681-101.329 93.172-188.589 159.299-264.557l-0.919 1.078c88.179-105.702 196.407-191.441 319.247-252.074l5.711-2.548c49.076-26.175 106.388-44.341 167.154-51.041l2.132-0.191c3.293 0 6.514-0.365 9.441-0.365 1.287-0.064 2.795-0.1 4.311-0.1 27.617 0 52.435 11.988 69.532 31.044l0.077 0.087c13.348 15.402 26.828 29.437 40.986 42.762l0.293 0.273 2.342 2.269c8.782 8.344 17.931 17.346 26.567 26.567 18.151 18.81 18.37 34.179 1.025 51.232l-123.616 123.908c-5.564 6.718-13.551 11.261-22.605 12.281l-0.157 0.014c-9.752-0.959-18.292-5.496-24.417-12.263l-0.029-0.032-76.409-76.555c-10.861-11.701-26.246-19.074-43.356-19.321l-0.045-0.001c-10.345 0.158-20.027 2.85-28.499 7.479l0.321-0.161-1.756 0.732-1.903 1.025c-5.599 3.524-12.407 7.3-19.413 10.736l-1.372 0.608-4.904 2.269c-9.585 4.664-17.494 9.146-25.111 14.044l0.958-0.577c-77.953 50.911-144.387 111.548-199.89 181.273l-1.305 1.698c-29.088 34.977-53.924 74.996-72.815 118.209l-1.251 3.211-0.659 1.317c-0.199 0.451-0.398 1.012-0.562 1.586l-0.024 0.098c-2.585 6.332-4.086 13.679-4.086 21.378 0 16.858 7.196 32.035 18.684 42.626l0.040 0.037 1.829 1.756c17.638 15.662 33.886 32.129 51.232 49.622l4.245 4.318c3.22 3.147 6.294 6.294 9.514 9.514s6.368 6.514 9.588 9.661c7.353 6.31 12.398 15.125 13.808 25.109l0.025 0.215c-1.452 10.17-6.494 18.958-13.778 25.204l-0.055 0.046-60.673 60.527c-3.66 3.805-7.318 7.318-10.758 10.832l-10.758 11.125-5.343 5.709c-11.71 11.93-22.762 23.2-34.325 33.886l-0.585 0.585c-5.883 6.784-14.19 11.33-23.561 12.283l-0.153 0.013c-9.904-0.802-18.608-5.373-24.78-12.26l-0.031-0.035z" />
<glyph unicode="&#xe925;" glyph-name="missed-call" d="M722.698 680.15v92.895l-196.938-197.336c-6.903-7.163-16.58-11.612-27.296-11.612-0.015 0-0.029 0-0.045 0h0.002c-10.99 0.010-20.936 4.472-28.134 11.678v0l-216.18 216.247c-4.313 4.971-6.941 11.505-6.941 18.653 0 15.758 12.774 28.532 28.532 28.532 6.95 0 13.318-2.484 18.267-6.614l-0.046 0.037 204.502-203.308 182.804 184.264h-81.748c-0.402-0.021-0.874-0.033-1.348-0.033-15.135 0-27.404 12.269-27.404 27.404s12.269 27.404 27.404 27.404c0.474 0 0.946-0.012 1.414-0.036l-0.065 0.003h123.219v-0.133h27.205c15.258-0.174 27.56-12.584 27.56-27.866 0-0.397-0.008-0.793-0.025-1.186l0.002 0.056v-159.249c0.021-0.402 0.033-0.874 0.033-1.348 0-15.135-12.269-27.404-27.404-27.404s-27.404 12.269-27.404 27.404c0 0.474 0.012 0.946 0.036 1.414l-0.003-0.065zM591.153 457.962c-125.981 11.342-252.010-3.253-371.247-43.6l-5.373-2.053c-52.399-16.214-104.903-43.844-151.722-81.951l-1.516-1.284c-2.863-2.863-5.818-5.349-8.68-8.211-0.839-0.79-1.812-1.736-2.773-2.698-29.064-29.064-42.501-67.837-40.31-105.879l0.012-0.182c-0.024-0.374 0.006-0.746 0.089-1.108l0.005-0.018c1.175-16.589 1.457-32.5 0.906-48.387l-0.015-0.361c-0.234-11.401-0.375-23.178-0.141-34.861-1.148-23.165 7.091-46.609 24.708-64.227 17.729-17.729 41.359-25.959 64.566-24.691l0.106 0.006 148.875 0.141c22.866-1.23 46.023 6.617 63.695 23.535l0.067 0.065c17.004 17.939 25.032 41.137 24.166 64.061l-0.003 0.077v88.771c6.428 1.736 12.997 3.613 18.721 5.865 8.165 2.844 15.12 4.832 22.141 6.466l-1.027-0.274c71.973 14.95 142.909 18.144 212.834 10.259l1.682-0.219c32.125-2.898 64.722-10.123 96.117-21.595l2.366-0.972c-1.126-22.24-0.985-44.151-0.751-65.499 0.141-7.554 0.141-15.249 0.141-22.944-0.996-23.345 6.992-46.913 23.961-65.15l0.109-0.115c18.291-17.184 41.896-25.207 65.173-24.168l0.091 0.005h73.945c8.727 0 16.984-0.094 25.571-0.234 16.516-0.188 33.781-0.282 50.063 0.329 22.572-0.492 45.252 7.669 62.674 24.483l0.057 0.055c16.93 17.755 25.21 40.603 24.915 63.361v0.027l-0.047 92.853c0.355 31.727-10.397 63.521-32.254 89.079l-0.308 0.349c-3.164 3.512-6.975 7.52-10.908 11.452-31.755 31.755-68.453 55.558-107.617 71.407l2.071-0.938c-91.87 40.504-183.703 62.67-276.421 69.074l1.288-0.103zM949.897 279.388c15.38-17.92 22.816-39.954 22.522-61.905v-0.029l-0.047-92.29c0.367-11.912-3.723-23.902-12.268-33.283l-0.072-0.077c-9.37-8.48-21.335-12.305-33.059-11.547l-0.066 0.005c-16-0.61-31.905-0.375-48.843-0.234l-26.040 0.234h-73.945c-12.332-0.925-24.87 2.874-34.743 11.391l-0.117 0.105c-8.621 9.991-12.421 22.529-11.502 34.78l0.007 0.082-0.094 23.178c-0.141 23.225-0.375 45.043 0.985 67.517v1.22c0.523 9.446-2.81 19.023-9.992 26.206-3.41 3.41-7.36 5.952-11.574 7.627l-1.143 0.512c-38.953 15.224-76.895 23.978-115.223 27.393l0.835-0.086c-76.276 8.776-151.855 5.404-225.454-9.88l-3.042-0.723c-7.226-1.641-15.559-4.036-23.774-6.87l-1.516-0.59c-8.165-2.844-15.12-4.832-22.141-6.466l1.027 0.274-2.111-0.61c-5.38-1.568-10.651-4.557-15.092-8.9l-0.016-0.016c-7.078-7.563-10.411-17.289-10.042-26.899l0.001-0.033v-92.806c0.712-11.986-3.154-24.131-11.597-33.64l-0.086-0.094c-9.379-8.286-21.294-11.904-32.901-10.94l-0.083 0.008-149.484-0.094c-12.358-1.295-25.070 2.761-34.466 12.156-9.563 9.563-13.594 22.563-12.094 35.024l0.016 0.114c-0.375 10.792-0.282 21.583 0 33.031 0.58 17.616 0.267 34.872-0.922 52.080l-0.063 0.797c-1.392 26.425 7.963 53.194 28.058 73.289 0.891 0.891 1.795 1.76 2.71 2.609l-0.131-0.123c2.111 2.111 4.364 4.364 6.662 6.194 43.895 35.5 91.472 60.361 141.34 75.775l-2.413-0.845c118.693 40.396 238.771 54.242 357.034 43.491l1.757-0.185c86.663-6 173.731-26.895 255.916-62.586l5.048-2.444c33.052-13.008 65.711-34.006 93.902-62.196 2.995-2.995 5.91-6.041 8.742-9.135l-0.406 0.436zM46.244 326.964c2.863 2.863 5.536 5.536 8.587 8.117l0.47 0.47c49.228 40.121 102.679 68.299 158.739 85.846l-2.733-0.969c125.846 42.927 253.134 57.763 378.542 46.592l1.832-0.188c92.432-6.418 185.273-28.887 272.803-67.302l5.334-2.607c37.918-15.288 75.44-39.655 107.92-72.136 4.163-4.163 8.192-8.407 12.088-12.731l-0.552 0.599c23.587-27.533 35.051-61.326 34.721-95.026v-93.026c0.214-24.942-8.926-49.929-27.418-69.266l-0.078-0.080c-19.133-18.557-43.982-27.596-68.698-27.167l-0.038 0.001c-16.656-0.61-34.11-0.516-50.438-0.234h-0.657c-8.399 0.141-16.375 0.234-24.726 0.234l-74.179-0.141c-25.594-1.101-51.44 7.753-71.314 26.557l-0.097 0.093c-18.798 20.013-27.632 45.805-26.608 71.273l0.004 0.091c0 7.507 0 15.296-0.094 22.803-0.234 19.002-0.375 39.224 0.47 59.775-31.283 10.765-61.19 17.096-91.362 19.886l0.809-0.086c-70.559 8.031-140.452 4.942-208.552-9.049l-2.819-0.663c-6.475-1.408-13.325-3.941-20.222-5.958-4.176-1.36-8.399-2.768-12.762-4.128l-0.141-82.155c0.953-25.352-7.953-50.922-26.716-70.536l-0.075-0.078c-19.475-18.732-44.943-27.409-69.984-26.094l-0.113 0.007h-148.922c-25.278-0.854-50.748 8.050-70.34 26.708l-0.086 0.083c-18.89 19.794-28.106 45.292-27.73 70.673l0.001 0.034c-0.234 10.181-0.188 21.395 0.141 35.236l0.047 3.426c0.474 14.563 0.206 28.834-0.791 43.064l-0.054 0.665c-0.149 0.796-0.224 1.549-0.234 2.304v-0.004c-2.18 40.351 12.078 81.243 42.763 111.927 1.13 1.13 2.275 2.238 3.433 3.325l-0.168-0.16zM66.936 322.507l-0.234-0.234c-2.675-2.675-5.208-5.208-7.836-7.836-0.855-0.802-1.845-1.761-2.824-2.74-27.131-27.131-39.784-63.259-37.957-98.78l0.009-0.153 0.094-1.033c1.12-15.677 1.387-30.716 0.858-45.732l-0.013-0.343-0.094-3.472c-0.329-13.653-0.329-24.633-0.094-34.533-1.341-21.082 6.006-42.501 22.033-58.527s37.446-23.373 58.417-22.041l0.11 0.008 149.156 0.234c20.482-1.111 41.222 5.857 57.118 20.899l0.077 0.074c15.286 16.237 22.47 37.186 21.633 57.871l-0.003 0.075 0.422 95.481 6.428 1.736c6.194 1.689 12.34 3.706 18.251 5.677 8.447 2.91 15.633 4.942 22.885 6.616l-1.068-0.281c72.935 15.227 144.819 18.525 215.685 10.588l1.692-0.219c32.902-2.951 66.281-10.357 98.418-22.136l2.411-0.994 5.583-2.487-0.329-6.24c-1.126-22.24-0.985-44.244-0.751-64.936 0.141-7.648 0.094-15.483 0.141-23.037-0.976-21.105 6.169-42.427 21.428-58.956l0.108-0.115c16.599-15.436 37.954-22.583 58.979-21.541l0.092 0.005h73.945c8.539 0 16.516-0.094 25.008-0.234h0.657c16.422-0.094 33.641-0.329 49.875 0.422v0c20.388-0.484 40.884 6.831 56.663 21.945l0.062 0.060c15.199 16.101 22.632 36.722 22.381 57.265v92.736c0.373 29.73-9.648 59.528-30.061 83.508l-0.295 0.336c-3.019 3.342-6.652 7.159-10.399 10.906-31.001 31.001-66.832 54.225-105.071 69.677l2.019-0.913c-90.934 40.070-181.826 61.994-273.593 68.321l1.274-0.102c-124.805 11.204-249.658-3.287-367.776-43.287l-5.325-2.036c-51.302-15.929-102.744-42.979-148.67-80.216l-1.519-1.281zM76.179 296.842c2.205 2.205 4.691 4.691 7.084 6.521 44.79 36.299 93.37 61.723 144.298 77.482l-2.461-0.863c119.822 40.875 241.046 54.946 360.456 44.193l1.759-0.182c87.651-6.126 175.713-27.34 258.817-63.538l5.103-2.477c33.873-13.388 67.349-34.95 96.261-63.86 3.195-3.195 6.302-6.448 9.318-9.751l-0.432 0.464c16.745-19.547 24.847-43.561 24.539-67.487v-0.030l-0.047-92.196c0.401-14.112-4.501-28.31-14.705-39.379l-0.075-0.080c-11.004-10.183-25.157-14.854-39.063-14.080l-0.067 0.004c-14.029-0.516-27.776-0.375-42.368-0.329l-6.709 0.047-26.087 0.282h-73.851c-14.568-0.969-29.355 3.691-40.897 13.975l-0.11 0.101c-10.384 11.652-15.046 26.439-14.083 40.923l0.006 0.085-0.094 23.178-0.047 5.208c-0.094 21.395-0.234 41.617 1.033 62.59v0.938c0.525 7.223-1.96 14.58-7.45 20.071-2.716 2.716-5.889 4.697-9.272 5.942l0.159-0.066-0.563 0.563c-38.22 14.809-75.439 23.29-113.026 26.541l0.795-0.080c-75.321 8.675-149.955 5.347-222.632-9.749l-3.001-0.713c-5.889-1.288-12.612-3.169-19.238-5.416l-1.172-0.449-4.128-1.314c-6.991-2.393-14.075-4.691-21.677-6.475l-1.033-0.282-0.375-0.375c-4.218-1.202-8.347-3.53-11.814-6.935l-0.009-0.009c-5.33-5.856-7.803-13.311-7.462-20.661l0.002-0.030v-92.806c0.681-14.197-4.079-28.545-14.276-39.701l-0.080-0.086c-11.064-10.092-25.297-14.557-39.179-13.474l-0.092 0.008-149.343-0.141c-14.522-1.182-29.352 3.749-40.39 14.787-11.166 11.166-16.084 26.215-14.751 40.801l0.011 0.106c-0.422 11.307-0.234 22.756 0 33.406l0.047 2.768c0.512 16.35 0.2 32.383-0.924 48.368l-0.061 0.757-0.234 0.234c-1.406 28.849 8.865 58.043 30.807 79.985 0.962 0.962 1.939 1.902 2.929 2.82l-0.142-0.134zM953.802 97.951c7.054 7.842 10.349 17.758 9.949 27.552l-0.002 0.036-0.188 91.961c0.257 20.018-6.531 40.085-20.361 56.183l-0.189 0.214c-2.255 2.459-4.961 5.282-7.74 8.061-27.397 27.397-59.137 47.802-93.004 61.215l1.744-0.774c-86.322 37.716-172.482 58.369-259.464 64.377l1.22-0.097c-118.737 10.721-237.528-3.065-349.885-41.181l-5.057-1.938c-46.441-14.246-93.012-38.543-134.613-72.061l-1.405-1.18c-2.111-2.111-4.41-3.941-6.287-5.818-0.754-0.694-1.619-1.525-2.473-2.377-18.303-18.303-26.849-42.667-25.638-66.632l0.006-0.102c1.246-17.298 1.587-33.851 1.091-50.382l-0.011-0.337-0.047-2.768c-0.234-10.463-0.375-21.583 0-32.562-1.605-10.372 1.554-21.221 9.455-29.122 7.675-7.675 18.131-10.876 28.125-9.601l0.095 0.015h150.141c9.121-0.675 18.385 2.048 25.788 8.163l0.111 0.095c6.759 7.99 9.718 17.942 8.967 27.662l-0.006 0.067v92.806c-0.469 11.892 3.73 23.891 12.595 33.051l0.026 0.027c5.51 5.396 12.025 9.111 18.928 11.159l-0.255-0.086 1.455 0.422 0.375 0.375 0.892 0.234c5.949 1.253 12.774 3.089 19.511 5.274l1.228 0.451 4.128 1.314c8.369 2.85 15.599 4.837 22.898 6.428l-0.94-0.234c77.588 16.334 154.102 19.856 229.509 11.308l1.803-0.235c38.277-3.412 77.013-12.36 114.122-26.759l2.659-1.158 0.563-0.563 1.173-0.516c4.79-1.963 9.534-5.065 13.649-9.18 8.875-8.875 13.036-20.676 12.487-32.298l-0.002-0.047v-1.783c-1.455-20.222-1.126-40.445-1.033-61.652l0.329-5.020 0.094-23.271c-0.824-10.062 2.113-20.299 8.806-28.493l0.109-0.128c8.321-6.801 18.559-9.739 28.547-8.921l0.075 0.007 74.085-0.141 32.796-0.329c14.451-0.094 28.152 0 41.758 0.282v0c9.671-0.799 19.526 2.181 27.226 8.935l0.081 0.074z" />
<glyph unicode="&#xe926;" d="M0.205 447.959c0-0.092 0-0.202 0-0.312 0-77.507 17.39-150.954 48.481-216.649l-1.312 3.082c5.999-13.152 9.495-28.526 9.495-44.718 0-12.923-2.227-25.327-6.32-36.846l0.238 0.769-47.737-142.244c-1.8-5.316-2.839-11.438-2.839-17.803 0-31.612 25.627-57.239 57.239-57.239 6.365 0 12.488 1.039 18.207 2.956l-0.404-0.117 142.244 47.737c10.751 3.857 23.155 6.086 36.080 6.086 16.191 0 31.564-3.499 45.406-9.781l-0.69 0.28c62.705-29.522 136.194-46.754 213.708-46.754 282.657 0 511.796 229.139 511.796 511.796s-229.139 511.796-511.796 511.796c-282.657 0-511.796-229.139-511.796-511.796 0-0.085 0-0.171 0-0.256v0.013z" />
<glyph unicode="&#xe927;" d="M512.285 391.061c-0.076 0-0.166-0.001-0.256-0.001-31.424 0-56.898 25.474-56.898 56.898 0 31.334 25.329 56.752 56.629 56.898h0.526c31.424 0 56.898-25.474 56.898-56.898s-25.474-56.898-56.898-56.898v0zM796.773 447.959c0 31.424-25.474 56.898-56.898 56.898v0h-0.569c-31.203-0.29-56.386-25.652-56.386-56.896 0-31.424 25.474-56.898 56.898-56.898s56.897 25.473 56.898 56.895v0zM341.591 447.959c0 31.424-25.474 56.898-56.898 56.898v0h-0.512c-31.203-0.29-56.386-25.652-56.386-56.896 0-31.424 25.474-56.898 56.898-56.898s56.897 25.473 56.898 56.895v0z" />
<glyph unicode="&#xe928;" d="M21.224 101.038c-0.916-6.116-1.439-13.174-1.439-20.355 0-79.894 64.767-144.662 144.662-144.662 7.181 0 14.239 0.523 21.139 1.534l-0.784-0.094h654.311c6.158-0.93 13.264-1.461 20.495-1.461 79.829 0 144.543 64.714 144.543 144.543 0 7.231-0.531 14.336-1.556 21.281l0.096-0.787v490.852h-981.466z" />
<glyph unicode="&#xe929;" d="M676.307 155.643c0 0.053 0 0.116 0 0.179 0 30.059 24.368 54.426 54.426 54.426 0 0 0 0 0 0h0.476c30.030-0.169 54.308-24.551 54.308-54.604 0-30.158-24.448-54.605-54.605-54.605s-54.605 24.448-54.605 54.604v0zM458.304 155.643c-0.001 0.089-0.001 0.193-0.001 0.298 0 29.931 24.213 54.207 54.121 54.308h0.486c30.158 0 54.605-24.448 54.605-54.605s-24.448-54.605-54.605-54.605c-30.158 0-54.605 24.448-54.605 54.605v0zM240.239 155.643c0 0.071-0.001 0.155-0.001 0.239 0 29.943 24.206 54.232 54.117 54.366h0.489c30.158 0 54.605-24.448 54.605-54.605s-24.448-54.605-54.605-54.605c-30.158 0-54.605 24.448-54.605 54.605v0zM676.307 373.708c0 0.053 0 0.116 0 0.179 0 30.059 24.368 54.426 54.426 54.426 0 0 0 0 0 0h0.476c29.912-0.236 54.070-24.539 54.070-54.484 0-30.092-24.395-54.486-54.486-54.486-30.050 0-54.417 24.326-54.486 54.359v0.007zM458.304 373.708c-0.001 0.089-0.001 0.193-0.001 0.298 0 29.931 24.213 54.207 54.121 54.308h0.486c30.041-0.068 54.367-24.437 54.367-54.486 0-30.092-24.395-54.486-54.486-54.486-30.050 0-54.418 24.327-54.486 54.36v0.007zM240.239 373.708c0 0.071-0.001 0.155-0.001 0.239 0 29.943 24.206 54.232 54.117 54.366h0.489c30.041-0.068 54.367-24.437 54.367-54.486 0-30.092-24.395-54.486-54.486-54.486-30.050 0-54.418 24.327-54.486 54.36v0.007zM21.224 591.772v81.908c-0.914 6.105-1.435 13.152-1.435 20.321 0 79.862 64.741 144.602 144.602 144.602 7.243 0 14.36-0.532 21.316-1.561l-0.788 0.096h68.168v81.908c0 22.568 18.296 40.865 40.865 40.865s40.865-18.296 40.865-40.865c0 0 0 0 0 0v0-81.908h354.398v81.908c0 22.618 18.336 40.954 40.954 40.954s40.954-18.336 40.954-40.954v0-81.908h67.989c6.214 0.948 13.383 1.488 20.678 1.488 79.763 0 144.425-64.661 144.425-144.425 0-7.241-0.533-14.356-1.562-21.31l0.096 0.788v-81.908z" />
<glyph unicode="&#xe92a;" d="M0 128.066v639.93q0 192.004 192.004 192.004h639.992q192.004 0 192.004-192.004v-639.992q0-192.004-192.004-192.004h-639.93q-192.066 0.062-192.066 192.066z" />
<glyph unicode="&#xe92b;" d="M767.953 547.631h-227.562c-23.563 0-42.664 19.102-42.664 42.664s19.102 42.664 42.664 42.664v0h227.562c22.869-0.9 41.067-19.657 41.067-42.664s-18.199-41.764-40.986-42.661l-0.081-0.003zM810.649 305.61c-0.035 23.532-19.102 42.597-42.629 42.633h-227.565c-23.563 0-42.664-19.102-42.664-42.664s19.102-42.664 42.664-42.664v0h227.562c23.527 0.070 42.571 19.159 42.571 42.695 0 0.087 0 0.175-0.001 0.262v-0.013zM324.124 521.939l75.833 75.833c7.732 7.724 12.514 18.399 12.514 30.19 0 23.569-19.106 42.674-42.674 42.674-11.776 0-22.439-4.77-30.16-12.484v0l-45.674-45.674-7.758 7.82c-7.724 7.708-18.385 12.474-30.159 12.474-23.581 0-42.696-19.116-42.696-42.696 0-11.805 4.792-22.493 12.535-30.221l37.918-37.918c7.71-7.739 18.376-12.526 30.159-12.526s22.451 4.788 30.158 12.525l0.001 0.001zM324.124 237.533l75.833 75.833c7.732 7.724 12.514 18.399 12.514 30.19 0 23.569-19.106 42.674-42.674 42.674-11.776 0-22.439-4.77-30.16-12.484v0l-45.674-45.674-7.758 7.82c-7.724 7.708-18.385 12.474-30.159 12.474-23.581 0-42.696-19.116-42.696-42.696 0-11.805 4.792-22.493 12.535-30.221l37.918-37.918c7.71-7.739 18.376-12.526 30.159-12.526s22.451 4.788 30.158 12.525l0.001 0.001z" />
<glyph unicode="&#xe92c;" glyph-name="water" d="M527.698 954.978c-4.36 3.14-9.81 5.022-15.698 5.022s-11.338-1.882-15.778-5.078l0.080 0.055c-15.875-11.347-388.518-281.393-388.518-614.761 0-223.242 180.974-404.216 404.216-404.216s404.216 180.974 404.216 404.216v0c0 333.368-372.702 603.414-388.518 614.761z" />
<glyph unicode="&#xe92d;" d="M118.119-5.582h787.648v787.648c0.889 5.911 1.397 12.731 1.397 19.669 0 76.909-62.347 139.256-139.256 139.256-6.939 0-13.76-0.507-20.427-1.487l0.756 0.092h-472.589c-5.911 0.889-12.731 1.397-19.669 1.397-76.909 0-139.256-62.347-139.256-139.256 0-6.939 0.507-13.76 1.487-20.427l-0.092 0.756z" />
<glyph unicode="&#xe92e;" d="M39.354-44.993c-21.735 0-39.354 17.619-39.354 39.354s17.619 39.354 39.354 39.354c0 0 0 0 0 0h354.47v144.469c-0.448 2.965-0.704 6.387-0.704 9.869 0 38.408 31.135 69.542 69.542 69.542 3.482 0 6.904-0.256 10.249-0.75l-0.379 0.046h78.765c2.978 0.451 6.413 0.709 9.909 0.709 38.47 0 69.657-31.187 69.657-69.657 0-3.443-0.25-6.827-0.732-10.136l0.045 0.377v-144.469h354.47c21.735 0 39.354-17.619 39.354-39.354s-17.619-39.354-39.354-39.354v0zM617 375.181c-21.735 0-39.354 17.619-39.354 39.354s17.619 39.354 39.354 39.354c0 0 0 0 0 0h52.529c21.735 0 39.354-17.619 39.354-39.354s-17.619-39.354-39.354-39.354c0 0 0 0 0 0v0zM354.413 375.181c-21.735 0-39.354 17.619-39.354 39.354s17.619 39.354 39.354 39.354h52.586c21.735 0 39.354-17.619 39.354-39.354s-17.619-39.354-39.354-39.354v0zM617 532.654c-21.735 0-39.354 17.619-39.354 39.354s17.619 39.354 39.354 39.354c0 0 0 0 0 0h52.529c21.735 0 39.354-17.619 39.354-39.354s-17.619-39.354-39.354-39.354c0 0 0 0 0 0v0zM354.413 532.654c-21.735 0-39.354 17.619-39.354 39.354s17.619 39.354 39.354 39.354h52.586c21.735 0 39.354-17.619 39.354-39.354s-17.619-39.354-39.354-39.354v0zM617 690.126c-21.798 0-39.468 17.671-39.468 39.468s17.671 39.468 39.468 39.468h52.529c21.798 0 39.468-17.671 39.468-39.468s-17.671-39.468-39.468-39.468v0zM354.413 690.126c-21.798 0-39.468 17.671-39.468 39.468s17.671 39.468 39.468 39.468h52.586c21.798 0 39.468-17.671 39.468-39.468s-17.671-39.468-39.468-39.468v0z" />
<glyph unicode="&#xe92f;" d="M511.999 960c-252.904-0.267-457.851-205.214-458.118-458.093v-0.026c0-268.569 249.46-433.366 414.553-542.37l28.633-18.99c4.197-2.832 9.368-4.52 14.934-4.52s10.737 1.689 15.029 4.582l-0.096-0.061 28.633 18.99c165.092 109.003 414.553 273.86 414.553 542.37-0.267 252.904-205.214 457.851-458.093 458.118h-0.026z" />
<glyph unicode="&#xe930;" d="M646.753 501.882c0-74.423-60.331-134.754-134.754-134.754s-134.754 60.331-134.754 134.754c0 74.423 60.331 134.754 134.754 134.754s134.754-60.331 134.754-134.754z" />
<glyph unicode="&#xe931;" d="M1.503 192.738v510.524c-0.956 6.372-1.502 13.725-1.502 21.207 0 83.091 67.358 150.449 150.449 150.449 7.482 0 14.835-0.546 22.023-1.601l-0.816 0.098h680.678c6.395 0.964 13.775 1.513 21.282 1.513 83.055 0 150.384-67.33 150.384-150.384 0-7.508-0.551-14.888-1.613-22.101l0.099 0.818v-510.524c0.964-6.395 1.513-13.775 1.513-21.282 0-83.055-67.33-150.384-150.384-150.384-7.508 0-14.888 0.551-22.101 1.613l0.818-0.099h-680.678c-6.372-0.956-13.725-1.502-21.207-1.502-83.091 0-150.449 67.358-150.449 150.449 0 7.482 0.546 14.835 1.601 22.023l-0.098-0.816z" />
<glyph unicode="&#xe932;" d="M512.027 390.555c-21.987 0.062-42.276 7.279-58.675 19.444l0.267-0.189-278.625 202.695c-10.659 7.817-17.501 20.295-17.501 34.371 0 23.473 19.029 42.501 42.501 42.501 9.397 0 18.082-3.050 25.118-8.214l-0.118 0.083 278.689-202.631c2.288-1.695 5.165-2.713 8.28-2.713s5.992 1.018 8.318 2.74l-0.038-0.027 278.689 202.631c6.925 5.093 15.622 8.149 25.032 8.149 23.484 0 42.52-19.037 42.52-42.52 0-14.072-6.837-26.548-17.37-34.288l-0.118-0.083-278.625-202.695c-16.11-11.975-36.378-19.193-58.329-19.255h-0.015z" />
<glyph unicode="&#xe933;" glyph-name="edit-box" d="M980.356 925.513l-1.238 1.13c-22.6 20.684-52.832 33.358-86.023 33.358-37.261 0-70.792-15.971-94.12-41.442l-0.087-0.096-455.928-499.196c-4.024-4.394-7.184-9.654-9.165-15.458l-0.092-0.31-53.816-160.748c-2.043-5.843-3.223-12.577-3.223-19.589 0-33.762 27.368-61.131 61.129-61.135v0c8.906 0.074 17.332 2.049 24.918 5.538l-0.378-0.156 155.205 67.916c5.837 2.624 10.781 6.258 14.819 10.726l0.034 0.038 455.928 499.196c20.661 22.617 33.318 52.852 33.318 86.042 0 37.264-15.954 70.803-41.404 94.156l-0.094 0.085zM383.001 272.512l31.483 94.286 2.637 2.906 59.628-54.462-2.637-2.906zM923.742 804.643l-387.474-424.338-59.951 54.408 387.474 424.338c7.258 7.921 17.649 12.868 29.196 12.868 10.289 0 19.659-3.928 26.695-10.366l-0.030 0.027 1.238-1.13c7.921-7.258 12.868-17.649 12.868-29.196 0-10.289-3.928-19.659-10.366-26.695l0.027 0.030zM891.937 553.807c-24.312 0-44.021-19.709-44.021-44.021v0-373.752c-0.092-61.784-50.153-111.845-111.928-111.937h-533.593c-61.784 0.092-111.845 50.153-111.937 111.928v529.235c0.092 61.784 50.153 111.845 111.928 111.937h386.192c24.312 0 44.021 19.709 44.021 44.021s-19.709 44.021-44.021 44.021v0h-386.183c-110.407-0.122-199.88-89.577-200.033-199.965v-529.241c0.123-110.426 89.608-199.911 200.022-200.033h533.596c110.287 0.306 199.589 89.721 199.711 200.022v373.764c0 0 0 0.001 0 0.001 0 24.218-19.556 43.868-43.738 44.020h-0.015z" />
<glyph unicode="&#xe934;" glyph-name="close" d="M946.815-61.877v0c-0.081 0-0.176 0-0.272 0-21.238 0-40.467 8.599-54.395 22.505l0.001-0.001-380.202 378.471-379.929-378.38c-14.035-13.893-33.347-22.476-54.666-22.476s-40.631 8.583-54.673 22.482l0.007-0.006c-13.957 13.867-22.596 33.073-22.596 54.296 0 0.13 0 0.26 0.001 0.389v-0.020c0 0.077 0 0.166 0 0.257 0 21.115 8.644 40.212 22.586 53.944l0.010 0.009 380.019 377.924-380.111 378.926c-13.952 13.742-22.596 32.838-22.596 53.954 0 0.091 0 0.18 0 0.271v-0.014c0.087 42.655 34.685 77.201 77.352 77.201 21.3 0 40.589-8.609 54.578-22.538l380.017-378.468 380.019 378.289c13.965 14.045 33.301 22.737 54.666 22.737 42.573 0 77.084-34.511 77.084-77.084 0-21.207-8.564-40.414-22.422-54.351l0.004 0.004-380.019-378.926 380.111-378.471c13.966-13.882 22.609-33.106 22.609-54.347s-8.644-40.465-22.606-54.343l-0.004-0.004c-14.009-13.746-33.222-22.231-54.417-22.231-0.056 0-0.111 0-0.166 0h0.009z" />
<glyph unicode="&#xe935;" d="M0 250.158v-273.089h273.089l534.514 532.023-275.252 275.252z" />
<glyph unicode="&#xe936;" d="M600.571-63.891c-0.019 0-0.043 0-0.066 0-22.586 0-40.894 18.309-40.894 40.894 0 0 0 0 0 0v0c0 0.020 0 0.043 0 0.066 0 22.662 18.315 41.044 40.949 41.156h382.217c22.737-0.074 41.148-18.486 41.222-41.215v-0.007c-0.112-22.61-18.466-40.894-41.090-40.894-0.046 0-0.092 0-0.139 0h0.007zM531.956 784.473l142.475 143.458c19.846 19.752 47.212 31.962 77.431 31.962s57.585-12.21 77.435-31.966l121.696-121.762c19.694-19.787 31.868-47.072 31.868-77.201 0-30.325-12.333-57.768-32.257-77.59l-0.005-0.005-143.131-142.475z" />
<glyph unicode="&#xe937;" d="M839.706 538.226c6.148 0.924 13.241 1.452 20.459 1.452 79.997 0 144.846-64.85 144.846-144.846 0-7.218-0.528-14.312-1.547-21.246l0.095 0.787v-273.069c0.924-6.148 1.452-13.241 1.452-20.459 0-79.997-64.85-144.846-144.846-144.846-7.218 0-14.312 0.528-21.246 1.547l0.787-0.095h-655.412c-6.148-0.924-13.241-1.452-20.459-1.452-79.997 0-144.846 64.85-144.846 144.846 0 7.218 0.528 14.312 1.547 21.246l-0.095-0.787v273.069c-0.924 6.148-1.452 13.241-1.452 20.459 0 79.997 64.85 144.846 144.846 144.846 7.218 0 14.312-0.528 21.246-1.547l-0.787 0.095z" />
<glyph unicode="&#xe938;" d="M704.81 403.389c-7.409 7.415-17.647 12.002-28.957 12.002s-21.548-4.586-28.957-12.002v0l-93.962-93.902v611.082c-0.864 21.957-18.873 39.43-40.963 39.43s-40.099-17.473-40.96-39.352l-0.002-0.078v-611.142l-93.962 93.902c-7.411 7.411-17.649 11.994-28.957 11.994-22.617 0-40.951-18.335-40.951-40.951 0-11.308 4.583-21.546 11.994-28.957l163.853-163.853c3.717-3.666 8.128-6.644 13.013-8.715l0.273-0.103c4.626-2 10.012-3.163 15.671-3.163s11.044 1.163 15.933 3.263l-0.263-0.1c5.16 2.174 9.569 5.152 13.291 8.823l163.848 163.848c7.451 7.415 12.061 17.677 12.061 29.017 0 11.31-4.586 21.548-12.002 28.957v0z" />
<glyph unicode="&#xe939;" d="M907.153 746.924l-43.396-650.943c0.062-1.637 0.098-3.559 0.098-5.49 0-85.323-69.167-154.49-154.49-154.49-5.668 0-11.265 0.306-16.775 0.9l0.683-0.060h-362.172c-4.827-0.535-10.424-0.84-16.092-0.84-85.323 0-154.49 69.167-154.49 154.49 0 1.931 0.035 3.853 0.106 5.767l-0.008-0.277-43.396 650.943z" />
<glyph unicode="&#xe93a;" d="M583.356 221.21v284.183c0 23.556 19.096 42.653 42.653 42.653v0c23.495-0.035 42.529-19.090 42.529-42.591 0-0.022 0-0.044 0-0.065v0.003-284.183c-0.035-23.474-19.055-42.493-42.525-42.529h-0.003c-0.018 0-0.040 0-0.062 0-23.5 0-42.555 19.033-42.591 42.525v0.003zM355.835 221.21v284.183c0 23.556 19.096 42.653 42.653 42.653v0c23.556 0 42.653-19.096 42.653-42.653v0-284.183c-0.035-23.495-19.090-42.529-42.591-42.529 0 0 0 0 0 0v0c-0.018 0-0.040 0-0.062 0-23.5 0-42.555 19.033-42.591 42.525v0.003zM57.518 746.862c0 0 0 0 0 0-23.488 0-42.529 19.041-42.529 42.529 0 0.044 0 0.087 0 0.131v-0.007c0 0.037 0 0.080 0 0.124 0 23.488 19.041 42.529 42.529 42.529 0 0 0 0 0 0h239.485c4.798 9.628 9.506 21.243 13.371 33.238l0.515 1.852 11.407 34.407c11.572 34.102 43.25 58.225 80.579 58.337h218.11c37.362-0.051 69.070-24.201 80.417-57.737l0.176-0.599 11.593-34.407c4.271-13.807 8.92-25.43 14.364-36.595l-0.662 1.505h239.485c23.542-0.035 42.617-19.111 42.653-42.649v-0.003c-0.035-23.542-19.111-42.617-42.649-42.653h-0.003z" />
<glyph unicode="&#xe93b;" d="M377.265 731.739h418.474v77.999c0.84 5.586 1.319 12.032 1.319 18.59 0 72.72-58.951 131.671-131.671 131.671-6.558 0-13.004-0.48-19.305-1.405l0.715 0.086h-496.535c-5.586 0.84-12.032 1.319-18.59 1.319-72.72 0-131.671-58.951-131.671-131.671 0-6.558 0.48-13.004 1.405-19.305l-0.086 0.715v-496.535c-0.84-5.586-1.319-12.032-1.319-18.59 0-72.72 58.951-131.671 131.671-131.671 6.558 0 13.004 0.48 19.305 1.405l-0.715-0.086h77.999v418.474c-0.846 5.608-1.33 12.079-1.33 18.663 0 72.72 58.951 131.671 131.671 131.671 6.583 0 13.055-0.483 19.379-1.416l-0.717 0.087z" />
<glyph unicode="&#xe93c;" d="M1022.681 582.797v-496.535c0.84-5.586 1.319-12.032 1.319-18.59 0-72.72-58.951-131.671-131.671-131.671-6.558 0-13.004 0.48-19.305 1.405l0.715-0.086h-496.535c-5.586-0.84-12.032-1.319-18.59-1.319-72.72 0-131.671 58.951-131.671 131.671 0 6.558 0.48 13.004 1.405 19.305l-0.086-0.715v496.535c-0.84 5.586-1.319 12.032-1.319 18.59 0 72.72 58.951 131.671 131.671 131.671 6.558 0 13.004-0.48 19.305-1.405l-0.715 0.086h496.535c5.586 0.84 12.032 1.319 18.59 1.319 72.72 0 131.671-58.951 131.671-131.671 0-6.558-0.48-13.004-1.405-19.305l0.086 0.715z" />
<glyph unicode="&#xe93d;" d="M778.076 647.883v-179.39c-0.058-8.23-6.603-14.913-14.773-15.193l-0.026-0.001c-142.289-7.778-254.986-124.039-257.053-267.077l-0.002-0.202c0-0.134 0-0.293 0-0.45 0-50.193 14.011-97.115 38.335-137.066l-0.659 1.167c1.21-2.169 1.923-4.758 1.923-7.514 0-8.641-7.005-15.646-15.646-15.646-0.080 0-0.16 0.001-0.24 0.002h-373.229c-5.828-0.876-12.553-1.376-19.395-1.376-75.835 0-137.311 61.476-137.311 137.311 0 6.842 0.5 13.568 1.467 20.141l-0.090-0.746v621.316c-0.876 5.828-1.376 12.553-1.376 19.395 0 75.835 61.476 137.311 137.311 137.311 6.842 0 13.568-0.5 20.141-1.467l-0.746 0.090h310.658v-155.329c0-85.786 69.544-155.329 155.329-155.329v0z" />
<glyph unicode="&#xe93e;" d="M957.862-52.51l-80.376 80.15c-29.17-19.571-65.071-31.235-103.698-31.235-0.042 0-0.084 0-0.125 0h0.007c-104.744 0.225-189.591 85.092-189.784 189.822v0.019c0.129 104.774 85.014 189.679 189.768 189.84h0.015c104.807-0.097 189.744-85.034 189.84-189.831v-0.009c0-0.024 0-0.052 0-0.080 0-38.564-11.666-74.404-31.66-104.182l0.425 0.672 80.376-80.376c7.013-7.021 11.349-16.716 11.349-27.423s-4.336-20.402-11.349-27.423v0c-6.972-6.98-16.609-11.297-27.254-11.297-0.089 0-0.179 0-0.268 0.001h0.014c-0.055 0-0.119 0-0.184 0-10.606 0-20.197 4.343-27.092 11.348l-0.005 0.005zM661.721 186.245c0.128-61.788 50.167-111.846 111.934-112.006h0.015c61.891 0.032 112.072 50.133 112.232 111.991v0.015c-0.032 61.971-50.261 112.2-112.229 112.232h-0.003c-61.984 0-112.233-50.248-112.233-112.232 0-0.040 0-0.080 0-0.119v0.006zM208.555 246.796c-0.017 0-0.037 0-0.057 0-21.392 0-38.739 17.309-38.804 38.685v0.006c0 0.017 0 0.037 0 0.057 0 21.462 17.399 38.86 38.86 38.86h207.124c21.493 0 38.917-17.424 38.917-38.917v0c-0.096-21.39-17.458-38.691-38.86-38.691-0.020 0-0.040 0-0.060 0h0.003zM208.555 453.919c-0.017 0-0.037 0-0.057 0-21.411 0-38.772 17.341-38.804 38.744v0.003c0.032 21.46 17.405 38.853 38.854 38.917h362.402c21.456-0.064 38.828-17.457 38.86-38.914v-0.003c-0.032-21.406-17.393-38.747-38.804-38.747-0.020 0-0.040 0-0.060 0h0.003zM622.804 648.052c-5.85-0.884-12.602-1.389-19.471-1.389-75.741 0-137.142 61.4-137.142 137.142 0 6.886 0.507 13.654 1.487 20.269l-0.091-0.748v155.216l310.658-310.658z" />
<glyph unicode="&#xe93f;" d="M716.726 257.837v364.849c0.739 4.926 1.162 10.609 1.162 16.391 0 64.209-52.052 116.26-116.26 116.26-5.783 0-11.466-0.423-17.022-1.238l0.631 0.076h-277.653v73.193c-0.73 4.898-1.148 10.551-1.148 16.302 0 64.239 52.077 116.316 116.316 116.316 5.699 0 11.301-0.41 16.78-1.202l-0.625 0.074h350.735c4.886 0.726 10.524 1.142 16.26 1.142 64.27 0 116.372-52.102 116.372-116.372 0-5.736-0.415-11.374-1.217-16.888l0.075 0.628v-686.742zM371.347 319.649v63.709h-63.765c-0.017 0-0.036 0-0.056 0-21.2 0-38.398 17.139-38.493 38.317v0.009c0 0 0 0 0 0.001 0 21.166 17.159 38.326 38.326 38.326 0.079 0 0.157 0 0.235-0.001h63.753v63.988c0.095 21.148 17.229 38.262 38.375 38.326h0.006c0.017 0 0.036 0 0.056 0 21.166 0 38.326-17.159 38.326-38.326 0-0.020 0-0.039 0-0.059v0.003-63.988h63.932c0.067 0 0.145 0.001 0.224 0.001 21.074 0 38.158-17.084 38.158-38.158 0-0.079 0-0.157-0.001-0.236v0.012c0-0.017 0-0.036 0-0.056 0-21.166-17.159-38.326-38.326-38.326 0 0 0 0 0 0h-63.932v-63.709c0-0.066 0.001-0.145 0.001-0.224 0-21.074-17.084-38.158-38.158-38.158-0.059 0-0.118 0-0.177 0h0.009c-0.033 0-0.073 0-0.112 0-21.197 0-38.381 17.184-38.381 38.381 0 0.059 0 0.118 0 0.177v-0.009z" />
<glyph unicode="&#xe940;" d="M585.123 754.231h-350.735c-4.944 0.745-10.651 1.172-16.457 1.172-64.178 0-116.204-52.027-116.204-116.204 0-5.806 0.426-11.512 1.248-17.089l-0.077 0.632v-686.742l306.83 175.284 306.83-175.284v686.742c0.745 4.942 1.17 10.646 1.17 16.449 0 64.178-52.027 116.204-116.204 116.204-5.786 0-11.472-0.423-17.031-1.24l0.631 0.076z" />
<glyph unicode="&#xe941;" d="M767.246 618.164c-6.384-0.959-13.752-1.508-21.247-1.508-83.077 0-150.425 67.348-150.425 150.425 0 7.496 0.549 14.863 1.607 22.065l-0.099-0.818v170.164h-340.328c-6.384 0.959-13.752 1.508-21.247 1.508-83.077 0-150.425-67.348-150.425-150.425 0-7.496 0.549-14.863 1.607-22.065l-0.099 0.818v-680.656c-0.959-6.384-1.508-13.752-1.508-21.247 0-83.077 67.348-150.425 150.425-150.425 7.496 0 14.863 0.549 22.065 1.607l-0.818-0.099h510.492c6.384-0.959 13.752-1.508 21.247-1.508 83.077 0 150.425 67.348 150.425 150.425 0 7.496-0.549 14.863-1.607 22.065l0.099-0.818v510.492z" />
<glyph unicode="&#xe942;" d="M469.491 192.939v99.004h-99.004c0 0 0 0 0 0-23.477 0-42.51 19.032-42.51 42.51 0 0.022 0 0.043 0 0.066v-0.003c0 0.018 0 0.041 0 0.063 0 23.341 18.921 42.263 42.263 42.263 0.109 0 0.218 0 0.326-0.001h98.988v99.438c0 0.018 0 0.040 0 0.062 0 23.477 19.032 42.51 42.51 42.51 0.022 0 0.043 0 0.066 0h-0.003c0 0 0 0 0.001 0 23.375 0 42.324-18.949 42.324-42.324 0-0.087 0-0.174-0.001-0.261v0.013-99.438h99.438c0.074 0 0.16 0.001 0.248 0.001 23.388 0 42.351-18.942 42.386-42.321v-0.003c-0.035-23.519-19.109-42.572-42.634-42.572 0 0 0 0 0 0h-99.438v-99.004c0-0.074 0.001-0.16 0.001-0.248 0-23.375-18.949-42.324-42.324-42.324 0 0 0 0-0.001 0v0c-0.037 0-0.080 0-0.124 0-23.477 0-42.51 19.032-42.51 42.51 0 0.022 0 0.043 0 0.066v-0.003zM767.308 618.226c-6.419-0.971-13.827-1.524-21.364-1.524-83.077 0-150.425 67.348-150.425 150.425 0 7.48 0.545 14.832 1.599 22.018l-0.099-0.817v170.102l340.328-340.328z" />
<glyph unicode="&#xe943;" d="M205.744-62.651c-6.388-0.785-13.784-1.232-21.284-1.232-101.874 0-184.458 82.585-184.458 184.458 0 7.5 0.447 14.896 1.317 22.162l-0.086-0.878v545.283c-0.785 6.39-1.233 13.788-1.233 21.291 0 101.874 82.585 184.458 184.458 184.458 7.522 0 14.938-0.45 22.224-1.325l-0.879 0.086h163.871c0.018 0 0.039 0 0.060 0 22.445 0 40.64-18.195 40.64-40.64 0-0.042 0-0.084 0-0.126v0.007c0-0.036 0-0.078 0-0.12 0-22.513-18.2-40.777-40.691-40.878h-163.881c-85.744 0-122.516-36.713-122.516-122.755v-545.283c0-86.1 36.713-122.755 122.516-122.755h545.64c85.981 0 122.755 36.713 122.755 122.755v163.573c0 0.018 0 0.039 0 0.060 0 22.567 18.261 40.87 40.813 40.938h0.006c22.642 0 40.997-18.355 40.997-40.997v0-163.573c0.789-6.407 1.239-13.823 1.239-21.345 0-101.874-82.585-184.458-184.458-184.458-7.503 0-14.901 0.448-22.169 1.318l0.878-0.086zM824.275 708.207l-125.253 125.313 102.523 102.999c14.355 14.469 34.247 23.426 56.231 23.426 21.718 0 41.394-8.741 55.702-22.898l87.879-87.879c14.002-14.257 22.644-33.817 22.644-55.396 0-21.994-8.979-41.89-23.47-56.225l-0.007-0.007-103.058-102.523z" />
<glyph unicode="&#xe944;" d="M897.464 634.84l-385.637-383.972h-196.894v196.954l383.972 385.637z" />
<glyph unicode="&#xe945;" d="M767.246 618.164c-6.384-0.959-13.752-1.508-21.247-1.508-83.077 0-150.425 67.348-150.425 150.425 0 7.496 0.549 14.863 1.607 22.065l-0.099-0.818v170.164h-340.328c-6.384 0.959-13.752 1.508-21.247 1.508-83.077 0-150.425-67.348-150.425-150.425 0-7.496 0.549-14.863 1.607-22.065l-0.099 0.818v-680.656c-0.959-6.384-1.508-13.752-1.508-21.247 0-83.077 67.348-150.425 150.425-150.425 7.496 0 14.863 0.549 22.065 1.607l-0.818-0.099h510.492c6.384-0.959 13.752-1.508 21.247-1.508 83.077 0 150.425 67.348 150.425 150.425 0 7.496-0.549 14.863-1.607 22.065l0.099-0.818v510.492z" />
<glyph unicode="&#xe946;" d="M426.548 122.151c-11.611 0.007-22.116 4.738-29.699 12.373l-113.61 113.61c-3.96 3.644-7.033 8.19-8.898 13.316l-0.075 0.234c-2.172 4.779-3.437 10.363-3.437 16.243s1.266 11.464 3.539 16.496l-0.102-0.253c2.259 5.466 5.284 10.159 9.003 14.204l-0.031-0.034 113.608 112.989c7.683 7.827 18.373 12.68 30.196 12.685h0.001c11.737-0.062 22.33-4.904 29.942-12.678l0.007-0.007c7.53-7.783 12.171-18.401 12.171-30.103s-4.641-22.32-12.182-30.115l0.011 0.012-41.087-40.468h181.054c0 0 0 0 0 0 23.571 0 42.687-19.072 42.757-42.628v-0.007c0-23.615-19.143-42.758-42.758-42.758v0h-181.054l41.087-40.468c7.53-7.783 12.171-18.401 12.171-30.103s-4.641-22.32-12.182-30.115l0.011 0.012c-7.588-7.684-18.122-12.443-29.768-12.443-0.237 0-0.475 0.002-0.712 0.006h0.036zM937.782 618.040h-170.412c-6.252-0.916-13.469-1.44-20.808-1.44-83.419 0-151.043 67.625-151.043 151.043 0 7.339 0.524 14.556 1.535 21.616l-0.095-0.808v169.793l340.328-340.328z" />
<glyph unicode="&#xe947;" glyph-name="reply" d="M455.104 647.387c170.658 0 568.882-28.423 568.882-397.851 0.008-1.094 0.013-2.388 0.013-3.682 0-87.703-22.874-170.065-62.98-241.444l1.282 2.482c-4.62-8.408-13.415-14.011-23.521-14.011-14.772 0-26.746 11.975-26.746 26.746 0 0.061 0 0.122 0.001 0.182v-0.009c1.8 146.022-26.685 286.52-456.93 286.52v-199.391c0-0.016 0-0.035 0-0.054 0-31.086-25.2-56.286-56.286-56.286-16.128 0-30.671 6.782-40.933 17.651l-0.026 0.027-337.222 356.707c-12.78 13.499-20.639 31.772-20.639 51.88s7.859 38.381 20.672 51.914l-0.033-0.035 337.222 356.707c10.287 10.896 24.831 17.678 40.958 17.678 31.083 0 56.282-25.196 56.286-56.278v0z" />
<glyph unicode="&#xe948;" glyph-name="send" d="M656.528-63.95c-42.575 0.11-78.493 28.485-89.99 67.345l-0.169 0.666-110.738 387.525-387.564 110.738c-39.643 11.754-68.067 47.852-68.067 90.588 0 42.593 28.234 78.591 67.008 90.3l0.668 0.173 917.695 275.296c2.586 0.807 5.559 1.272 8.642 1.272 16.561 0 29.988-13.426 29.988-29.988 0-3.082-0.465-6.055-1.329-8.854l0.056 0.213-275.336-917.813c-11.867-39.321-47.765-67.464-90.235-67.464-0.221 0-0.442 0.001-0.663 0.002h0.034z" />
<glyph unicode="&#xe949;" glyph-name="call" d="M761.464-63.363h-1.036c-74.754 7.588-143.057 28.715-204.645 60.927l3.096-1.475c-139.949 68.825-257.789 162.152-352.475 275.492l-1.371 1.687c-71.385 81.973-129.778 177.609-170.521 282.077l-2.258 6.578c-19.020 44.758-30.074 96.816-30.074 151.455 0 7.052 0.184 14.062 0.548 21.023l-0.041-0.974c3.464 44.453 22.894 83.802 52.49 112.82l0.029 0.028 76.507 76.666c22.094 22.34 52.539 36.383 86.263 37.056l0.127 0.002c33.561-0.456 63.755-14.5 85.401-36.865l0.032-0.033c14.425-13.229 28.61-27.814 41.999-41.521l0.558-0.638c6.614-6.853 13.070-13.469 19.923-20.242l60.728-60.728c23.819-21.908 38.957-52.935 39.845-87.507l0.003-0.158c-0.91-34.726-16.042-65.747-39.761-87.586l-0.087-0.079c-6.296-6.296-12.512-12.512-18.569-18.729-13.947-14.425-28.849-29.487-44.55-44.231 16.063-31.323 33.942-58.315 54.407-83.090l-0.614 0.765c50.833-63.714 110.127-117.888 176.792-161.778l2.841-1.757c5.599-3.53 12.336-7.247 19.282-10.601l1.28-0.557c2.47-1.275 5.021-2.47 7.969-3.905l62.561 62.481c21.765 23.245 52.414 37.941 86.5 38.65l0.128 0.002c34.176-0.542 64.763-15.457 86.061-38.951l0.089-0.1 122.253-122.253c23.782-21.737 38.644-52.893 38.644-87.519 0-34.322-14.601-65.234-37.93-86.864l-0.076-0.070c-7.969-8.687-17.613-17.932-29.248-29.088l-2.869-2.709c-12.050-11.267-23.267-22.888-33.866-35.059l-0.482-0.565c-1.036-1.355-1.913-2.311-2.39-2.869-33.087-36.804-80.855-59.847-134.006-59.847-1.837 0-3.666 0.028-5.489 0.082l0.267-0.006c-4.782 0.080-9.723 0.319-14.266 0.558zM194.355 858.391l-75.551-75.551c-15.076-14.603-24.945-34.501-26.601-56.689l-0.018-0.293c-0.134-3.414-0.21-7.423-0.21-11.449 0-44.022 9.105-85.917 25.535-123.904l-0.779 2.024c39.516-100.898 92.782-187.786 158.631-263.43l-0.915 1.074c87.88-105.294 195.72-190.71 318.108-251.129l5.693-2.54c48.811-25.916 105.807-43.868 166.222-50.422l2.094-0.184c3.267 0 6.456 0 9.404 0 1.27-0.063 2.757-0.099 4.254-0.099 27.072 0 51.405 11.727 68.195 30.38l0.074 0.083c13.309 15.939 27.575 29.646 41.282 43.035l2.39 2.231c8.687 7.969 17.772 17.294 26.379 26.459 17.533 18.25 17.852 32.435 1.116 49.172l-123.368 123.208c-5.282 6.344-12.815 10.654-21.358 11.699l-0.159 0.016c-9.345-1.162-17.459-5.689-23.234-12.309l-0.037-0.044-76.268-76.268c-11.127-11.973-26.902-19.495-44.436-19.684h-0.034c-10.575 0.074-20.5 2.78-29.176 7.494l0.327-0.162-1.913 0.957-1.913 1.116c-5.582 3.496-12.37 7.238-19.356 10.638l-1.365 0.6-4.543 2.311c-9.714 4.732-17.673 9.214-25.357 14.092l1.051-0.623c-77.915 51.007-144.311 111.749-199.754 181.58l-1.317 1.719c-29.265 34.905-54.222 74.86-73.191 118.041l-1.244 3.176-0.399 1.196c-0.278 0.523-0.523 1.131-0.702 1.768l-0.016 0.066c-2.655 6.498-4.197 14.040-4.197 21.941 0 17.316 7.403 32.903 19.217 43.769l0.042 0.038 1.833 1.833c17.613 15.939 33.87 31.878 51.084 49.411l4.304 4.304 9.324 9.484 9.723 9.723c6.93 5.994 11.728 14.289 13.201 23.687l0.029 0.222c-1.465 9.631-6.272 17.936-13.177 23.864l-0.052 0.044-60.728 60.728-10.759 10.997c-3.586 3.666-7.172 7.172-10.68 10.838l-5.34 5.499c-11.635 11.795-22.793 23.112-34.269 33.791l-0.638 0.638c-5.549 6.438-13.392 10.764-22.246 11.702l-0.149 0.013c-9.6-0.767-18.041-5.183-24.039-11.842l-0.029-0.033z" />
<glyph unicode="&#xe94a;" glyph-name="reply-outline" d="M977.091 804.902c-25.673 0-46.485-20.812-46.485-46.485v0c0.356-4.916 0.56-10.65 0.56-16.432 0-79.145-38.099-149.392-96.956-193.402l-0.632-0.452c-46.604-32.478-104.241-52.166-166.435-52.923l-0.188-0.002h-507.898l230.751 230.31c8.503 8.448 13.766 20.148 13.766 33.078 0 25.749-20.874 46.623-46.623 46.623-12.82 0-24.431-5.174-32.86-13.548l-310.487-310.487c-8.405-8.411-13.603-20.027-13.603-32.857s5.198-24.446 13.603-32.858v0l310.49-310.137c8.492-8.966 20.482-14.546 33.775-14.546 25.673 0 46.485 20.812 46.485 46.485 0 13.293-5.58 25.283-14.524 33.755l-0.021 0.020-230.751 230.751h507.898c82.795 0.813 159.292 27.107 222.205 71.397l-1.246-0.832c82.927 61.503 136.086 159.078 136.086 269.067 0 5.914-0.153 11.792-0.457 17.63l0.034-0.818c0 0.052 0 0.114 0 0.177 0 25.673-20.812 46.485-46.485 46.485 0 0 0 0-0.001 0v0z" />
<glyph unicode="&#xe94b;" glyph-name="tag" d="M616.359 302.244h-3.088c-18.311-77.158-86.629-133.673-168.145-133.673-2.457 0-4.904 0.052-7.336 0.154l0.348-0.012c-1.565-0.054-3.404-0.084-5.251-0.084-52.177 0-98.684 24.279-128.84 62.154l-0.257 0.335c-31.887 42.422-51.064 95.98-51.064 154.015 0 4.905 0.137 9.778 0.408 14.615l-0.030-0.672c-0.168 4.2-0.265 9.131-0.265 14.084 0 81.89 26.282 157.642 70.873 219.28l-0.754-1.095c40.319 56.286 105.512 92.528 179.17 92.528 1.743 0 3.481-0.020 5.215-0.061l-0.257 0.005c0.533 0.008 1.164 0.012 1.795 0.012 28.378 0 54.664-8.949 76.193-24.18l-0.413 0.277c20.635-13.451 36.138-33.279 43.84-56.65l0.216-0.76h2.090q1.908 17.35 9.084 71.398h103.101q-29.158-327.831-29.158-334.099 0-122.994 63.586-122.994c43.626 2.609 80.309 29.821 96.555 67.851l0.277 0.731c24.473 47.439 38.821 103.535 38.821 162.981 0 5.232-0.111 10.439-0.331 15.616l0.025-0.74c0.15 3.835 0.234 8.337 0.234 12.86 0 97.936-39.852 186.563-104.225 250.55l-0.017 0.017c-69.793 63.926-163.179 103.098-265.713 103.098-7.856 0-15.658-0.23-23.4-0.684l1.069 0.050c-3.091 0.089-6.728 0.14-10.377 0.14-111.647 0-212.195-47.516-282.527-123.428l-0.228-0.249c-72.056-77.27-116.29-181.304-116.29-295.67 0-4.634 0.073-9.249 0.216-13.848l-0.017 0.672c-0.251-5.308-0.395-11.53-0.395-17.786 0-108.088 42.779-206.184 112.33-278.281l-0.115 0.12c72.76-69.858 171.75-112.875 280.787-112.875 7.154 0 14.264 0.185 21.327 0.551l-0.989-0.041c4.764-0.14 10.37-0.218 15.993-0.218 86.656 0 168.918 18.816 242.922 52.585l-3.664-1.497v-95.652c-74.307-29.353-160.381-46.37-250.431-46.37-7.381 0-14.736 0.115-22.061 0.341l1.072-0.026c-6.647-0.314-14.438-0.492-22.272-0.492-133.937 0-255.673 52.23-345.956 137.433l0.246-0.23c-86.67 86.513-140.286 206.113-140.286 338.236 0 6.851 0.145 13.669 0.43 20.449l-0.033-0.969c-0.155 4.706-0.242 10.239-0.242 15.792 0 140.737 56.517 268.273 148.094 361.151l-0.059-0.060c92.019 92.593 219.45 149.902 360.265 149.902 6.067 0 12.11-0.107 18.127-0.317l-0.872 0.024c5.531 0.211 12.026 0.332 18.549 0.332 129.562 0 248.009-47.588 338.817-126.238l-0.649 0.55c86.942-76.785 141.487-188.52 141.487-312.994 0-4.93-0.086-9.839-0.255-14.728l0.020 0.709c0.205-4.626 0.322-10.050 0.322-15.502 0-85.779-28.958-164.796-77.631-227.806l0.641 0.864c-42.783-57.768-110.651-94.851-187.188-95.016h-0.027q-142.796 0-143.432 133.531zM517.619 635.708c-47.566-0.433-88.788-27.178-109.856-66.367l-0.33-0.672c-26.449-44.658-42.078-98.43-42.078-155.852 0-3.938 0.074-7.859 0.219-11.761l-0.017 0.563c-0.174-2.936-0.273-6.369-0.273-9.825 0-35.724 10.608-68.97 28.845-96.76l-0.413 0.67c16.195-23.561 42.999-38.812 73.367-38.812 0.745 0 1.488 0.009 2.229 0.028l-0.11-0.002c47.775 0.678 88.762 29.046 107.695 69.746l0.31 0.743c25.32 49.454 40.159 107.885 40.159 169.781 0 5.908-0.136 11.784-0.403 17.626l0.030-0.828q0 121.722-99.376 121.722z" />
<glyph unicode="&#xe94c;" glyph-name="send-outline" d="M990.183 813.327c-16.86 14.625-37.577 23.062-59.212 24.374l-0.628 0.014-826.594 40.621c-14.054 0.847-29.156-1.579-43.614-7.716-50.159-21.294-73.559-79.219-52.264-129.378 5.185-12.213 12.541-22.841 21.43-31.622l-0.477 0.512 245.68-247.387 7.329-348.576c0.135-11.727 2.673-24.329 7.83-36.476 21.314-50.206 79.294-73.628 129.5-52.313 14.393 6.11 26.585 15.234 36.152 26.324l-0.433-0.464 544.876 622.964c24.067 28.021 31.539 67.639 16.39 103.326-6.128 14.435-15.29 26.653-26.428 36.229l0.463-0.43zM405.365 94.307c-3.055-3.585-7.143-6.66-11.979-8.712-16.703-7.091-35.994 0.701-43.086 17.405-1.732 4.080-2.576 8.314-2.62 12.487l0.012-0.232-7.248 339.788 604.641 256.694zM314.837 515.361l-239.292 241.176c-2.896 2.762-5.416 6.338-7.173 10.474-3.698 8.709-3.255 18.137 0.442 26.090l0.017 0.034c3.097 7.413 8.988 13.675 16.976 17.066 4.865 2.066 9.956 2.832 14.885 2.454l-0.197 0.007 818.873-40.35z" />
<glyph unicode="&#xe94d;" d="M209.132 33.839c-13.444 0-24.342 10.899-24.342 24.342v0 129.151c-0.336 4.625-0.527 10.019-0.527 15.459 0 125.221 101.512 226.732 226.732 226.732 5.141 0 10.243-0.171 15.298-0.508l-0.686 0.036h173.265c4.418 0.307 9.574 0.482 14.772 0.482 125.221 0 226.732-101.512 226.732-226.732 0-5.444-0.192-10.842-0.569-16.189l0.040 0.72v-129.151c0 0 0 0 0 0 0-13.444-10.899-24.342-24.342-24.342-0.019 0-0.037 0-0.056 0h0.003zM925.63 131.421c-0.018 0-0.039 0-0.060 0-7.071 0-12.832 5.613-13.067 12.628l-0.001 0.022v43.316c0.056 2.248 0.087 4.894 0.087 7.548 0 84.678-32.342 161.803-85.347 219.695l0.222-0.245c-2.77 2.797-4.68 6.448-5.301 10.524l-0.013 0.106c-0.006 0.147-0.009 0.319-0.009 0.493 0 7.837 6.354 14.191 14.191 14.191 0.227 0 0.454-0.006 0.678-0.016l-0.032 0.001c3.479 0.246 7.539 0.386 11.631 0.386 96.866 0 175.391-78.526 175.391-175.391 0-4.251-0.151-8.465-0.448-12.639l0.032 0.561v-96.89c0.001-0.063 0.001-0.138 0.001-0.214 0-13.356-10.827-24.182-24.182-24.182-0.075 0-0.15 0-0.225 0.001h0.011zM24.758 131.421c-0.063-0.001-0.138-0.001-0.213-0.001-13.327 0-24.13 10.803-24.13 24.13 0 0.057 0 0.112 0.001 0.169v-0.009 96.89c-0.265 3.614-0.417 7.829-0.417 12.079 0 96.866 78.526 175.391 175.391 175.391 4.092 0 8.152-0.14 12.174-0.416l-0.544 0.030c0.353 0.032 0.763 0.049 1.177 0.049 7.837 0 14.191-6.354 14.191-14.191 0-0.167-0.003-0.332-0.009-0.498l0.001 0.024c-0.635-4.182-2.545-7.833-5.317-10.632l0.002 0.002c-52.784-57.655-85.125-134.786-85.125-219.471 0-2.647 0.032-5.287 0.095-7.919l-0.007 0.391v-43.369c-0.207-7.030-5.955-12.651-13.016-12.651-0.058 0-0.116 0-0.174 0.001h0.009z" />
<glyph unicode="&#xe94e;" d="M698.047 509.84c-3.553 2.611-5.833 6.773-5.833 11.468 0 3.799 1.493 7.25 3.925 9.797l-0.005-0.006c37.123 42.708 59.787 98.845 59.898 160.273v0.023c0.001 0.176 0.001 0.383 0.001 0.59 0 18.446-2.131 36.394-6.159 53.612l0.312-1.585c-0.406 1.499-0.743 3.305-0.942 5.152l-0.015 0.163c0.014 7.86 6.142 14.286 13.882 14.773l0.043 0.002c0.478 0 6.537 0.319 8.929 0.319 76.303-0.021 138.15-61.882 138.15-138.187 0-16.657-2.947-32.625-8.348-47.412l0.307 0.96c-14.88-42.519-49.225-74.797-92.063-86.518l-0.948-0.221c-11.153-3.035-23.964-4.797-37.181-4.836h-0.023c-27.452 0.011-53.018 8.075-74.467 21.957l0.537-0.326zM218.061 493.257c-43.808 11.927-78.174 44.208-92.774 85.792l-0.29 0.946c-5.094 13.827-8.042 29.795-8.042 46.452 0 76.318 61.869 138.187 138.187 138.187 0.043 0 0.087 0 0.129 0h-0.006c2.445 0 8.504-0.319 8.982-0.319 7.783-0.489 13.911-6.915 13.925-14.774v-0.002c-0.214-2.010-0.551-3.816-1.014-5.571l0.057 0.256c-3.75-15.702-5.9-33.729-5.9-52.258 0-0.126 0-0.253 0-0.379v0.020c0.070-61.431 22.678-117.569 59.998-160.602l-0.259 0.305c2.41-2.545 3.892-5.992 3.892-9.784 0-4.691-2.268-8.853-5.767-11.448l-0.038-0.028c-20.797-13.337-46.173-21.26-73.401-21.26-0.149 0-0.298 0-0.446 0.001h0.023c-0.316-0.002-0.69-0.004-1.064-0.004-12.854 0-25.328 1.63-37.225 4.694l1.032-0.226zM341.791 691.555c0 0.015 0 0.035 0 0.053 0 94.195 76.359 170.554 170.554 170.554s170.554-76.359 170.554-170.554c0-94.195-76.359-170.554-170.554-170.554v0c-0.015 0-0.035 0-0.053 0-94.166 0-170.502 76.336-170.502 170.502v0z" />
<glyph unicode="&#xe94f;" d="M1022.642 239.229c-2.92 195.868-34.046 383.392-89.479 560.16l3.763-13.919c-11.239 69.355-70.689 121.67-142.358 121.67-16.288 0-31.944-2.702-46.546-7.682l1.014 0.301-40-13.315c-14.388-6.039-24.309-20.011-24.309-36.301 0-21.682 17.577-39.258 39.258-39.258 3.522 0 6.936 0.464 10.183 1.334l-0.275-0.063 40 13.315c6.182 2.132 13.305 3.363 20.717 3.363 12.581 0 24.332-3.548 34.311-9.696l-0.283 0.162c17.209-11.105 29.087-29.205 31.625-50.182l0.033-0.333c31.615-101.445 57.518-222.27 72.79-346.387l1.039-10.364c53.831-31.517 89.413-89.064 89.413-154.921 0-6.298-0.326-12.52-0.961-18.65l0.064 0.767z" />
<glyph unicode="&#xe950;" d="M89.764 411.689c16.659 136.415 42.898 258.86 78.861 377.069l-4.060-15.518c5.127 31.494 32.13 55.242 64.681 55.242 7.402 0 14.518-1.228 21.154-3.492l-0.461 0.137 40-13.315c2.973-0.807 6.387-1.271 9.909-1.271 21.682 0 39.258 17.577 39.258 39.258 0 16.289-9.921 30.262-24.050 36.204l-0.259 0.097-40 13.315c-13.603 4.703-29.279 7.42-45.59 7.42-27.641 0-53.459-7.8-75.376-21.318l0.62 0.356c-34.405-20.677-58.914-54.825-66.326-94.968l-0.132-0.863c-52.144-164.204-83.687-353.315-86.895-549.318l-0.021-1.666c-0.559 5.305-0.877 11.46-0.877 17.689 0 65.9 35.651 123.473 88.718 154.485l0.847 0.457z" />
<glyph unicode="&#xe951;" d="M577.432 239.229c0 8.743 1.143 16.515 1.772 24.743-19.752 9.195-42.879 14.56-67.258 14.56s-47.506-5.365-68.264-14.978l1.006 0.418c0.628-8.228 1.772-16 1.772-24.743v-52.401c0-5.715-0.914-11.028-1.2-16.743 17.065 17.072 40.642 27.632 66.687 27.632s49.623-10.56 66.687-27.632v0c-0.286 5.715-1.2 10.857-1.2 16.743z" />
<glyph unicode="&#xe952;" d="M934.012 411.689c-29.75 15.177-64.886 24.069-102.099 24.069-1.976 0-3.945-0.025-5.909-0.075l0.291 0.006h-52.401c-6.229 0.79-13.436 1.242-20.747 1.242-95.609 0-173.197-77.162-173.885-172.609v-0.065c-0.628-8.228-1.772-16-1.772-24.743v-52.401c0-5.715 0.914-11.028 1.2-16.743-0.069-1.83-0.107-3.978-0.107-6.135 0-96.51 78.237-174.747 174.747-174.747 7.268 0 14.432 0.444 21.467 1.305l-0.844-0.084h52.401c6.153-0.757 13.275-1.19 20.498-1.19 97.835 0 177.147 79.312 177.147 177.147 0 7.205-0.431 14.31-1.267 21.291l0.082-0.843v52.401c0.524 5.136 0.822 11.099 0.822 17.133 0 65.943-35.674 123.553-88.776 154.585l-0.848 0.457z" />
<glyph unicode="&#xe953;" d="M446.458 239.229c0 8.743-1.143 16.515-1.772 24.743-0.688 95.512-78.276 172.675-173.885 172.675-7.312 0-14.519-0.451-21.594-1.328l0.846 0.085h-52.401c-1.673 0.044-3.642 0.069-5.618 0.069-37.213 0-72.349-8.893-103.399-24.669l1.3 0.6c-53.935-31.464-89.603-89.049-89.603-154.965 0-6.161 0.312-12.25 0.92-18.252l-0.062 0.755v-52.401c-0.758-6.155-1.191-13.28-1.191-20.506 0-97.835 79.312-177.147 177.147-177.147 7.226 0 14.35 0.432 21.35 1.274l-0.844-0.082h52.401c6.191-0.778 13.355-1.221 20.623-1.221 96.51 0 174.747 78.237 174.747 174.747 0 2.157-0.039 4.306-0.116 6.445l0.009-0.31c0.286 5.715 1.2 10.857 1.2 16.743z" />
<glyph unicode="&#xe954;" glyph-name="file-download" horiz-adv-x="1225" d="M931.702 712.22c-36.772 143.445-164.901 247.776-317.397 247.776-152.363 0-280.401-104.147-316.807-245.136l-0.498-2.271c-167.267-16.163-296.979-156.011-296.979-326.155 0-180.922 146.666-327.588 327.588-327.588 0.036 0 0.072 0 0.108 0h122.84c22.615 0 40.949 18.333 40.949 40.949s-18.333 40.949-40.949 40.949v0h-122.846c-0.213-0.001-0.465-0.001-0.717-0.001-135.692 0-245.692 110-245.692 245.692 0 135.44 109.592 245.284 244.937 245.691h0.039c0.955-0.076 2.068-0.12 3.191-0.12 20.854 0 38.201 15.019 41.814 34.83l0.039 0.26c17.56 119.771 119.595 210.69 242.866 210.69s225.306-90.919 242.705-209.358l0.161-1.332c4.417-20.131 22.098-34.975 43.246-34.975 0.243 0 0.486 0.002 0.728 0.006h-0.037c135.692 0 245.691-110 245.691-245.691s-110-245.691-245.691-245.691v0h-122.846c-22.615 0-40.949-18.333-40.949-40.949s18.333-40.949 40.949-40.949v0h122.846c179.441 1.938 324.16 147.854 324.16 327.57 0 168.897-127.817 307.94-291.999 325.677l-1.449 0.127zM790.143 357.483c7.457-7.713 17.896-12.501 29.454-12.501 22.615 0 40.949 18.333 40.949 40.949 0 11.558-4.788 21.997-12.49 29.443l-204.754 204.754c-7.41 7.408-17.645 11.989-28.951 11.989s-21.541-4.582-28.951-11.989l-204.743-204.743c-7.713-7.457-12.501-17.896-12.501-29.454 0-22.615 18.333-40.949 40.949-40.949 11.558 0 21.997 4.788 29.443 12.49l134.855 134.855v-515.378c0-22.615 18.333-40.949 40.949-40.949s40.949 18.333 40.949 40.949v0 515.378z" />
<glyph unicode="&#xe955;" glyph-name="circle-next" d="M512-64c-282.629 0.349-511.65 229.37-512 511.966v0.034c0.291 282.652 229.347 511.708 511.973 512h0.028c282.629-0.349 511.65-229.37 512-511.966v-0.034c-0.407-282.605-229.393-511.592-511.961-512h-0.040zM295.987 410.471h367.257l-11.264-5.12c-7.185-3.696-13.346-8.223-18.688-13.568v0l-103.168-103.629c-7.427-7.050-12.048-16.995-12.048-28.019 0-8.035 2.455-15.498 6.656-21.677l-0.086 0.134c1.051-1.352 2.107-2.554 3.229-3.69l-0.004 0.004c6.725-6.768 16.040-10.957 26.332-10.957 0.013 0 0.025 0 0.038 0h-0.002c10.313 0.041 19.642 4.219 26.421 10.959l187.031 186.98c6.768 6.741 10.958 16.069 10.958 26.375 0 0.069 0 0.139-0.001 0.208v-0.011c0 0.025 0 0.054 0 0.083 0 10.246-4.191 19.512-10.953 26.178l-187.037 186.986c-1.14 1.135-2.359 2.192-3.648 3.161l-0.089 0.064c-6.098 4.541-13.781 7.27-22.099 7.27-0.007 0-0.013 0-0.020 0h0.001c-0.048 0-0.105 0-0.162 0-12.303 0-23.201-6.010-29.921-15.254l-0.074-0.106c-4.118-6.052-6.575-13.523-6.575-21.566 0-11.034 4.622-20.987 12.037-28.030l0.017-0.016 103.321-103.321c5.945-6.053 12.924-11.068 20.654-14.761l0.44-0.189 8.038-3.737h-368.64c-0.098 0.001-0.214 0.002-0.329 0.002-2.167 0-4.281-0.224-6.321-0.651l0.2 0.035c-10.103-1.594-18.685-7.102-24.296-14.893l-0.075-0.109c-4.388-6.003-7.022-13.533-7.022-21.676 0-2.182 0.189-4.32 0.552-6.398l-0.032 0.221c3.47-17.969 19.060-31.359 37.783-31.386h1.641z" />
<glyph unicode="&#xe956;" d="M974.095 327.425l-25.153-25.153c-15.421-15.42-24.958-36.722-24.958-60.253 0-0.016 0-0.033 0-0.049v0.002-35.293c0-94.227-76.386-170.614-170.614-170.614v0h-35.342c-0.014 0-0.030 0-0.047 0-23.531 0-44.833-9.537-60.253-24.958l-25.153-25.153c-30.868-30.835-73.495-49.905-120.575-49.905s-89.706 19.070-120.576 49.906l-25.152 25.152c-15.42 15.421-36.722 24.958-60.253 24.958-0.016 0-0.033 0-0.049 0h-35.339c-94.227 0-170.614 76.386-170.614 170.614v0 35.293c0 0.014 0 0.030 0 0.047 0 23.531-9.537 44.833-24.958 60.253l-25.153 25.153c-30.835 30.868-49.905 73.495-49.905 120.575s19.070 89.706 49.906 120.576l25.152 25.152c15.421 15.42 24.958 36.722 24.958 60.253 0 0.016 0 0.033 0 0.049v-0.002 35.293c0 94.227 76.386 170.614 170.614 170.614v0h35.342c0.014 0 0.030 0 0.047 0 23.531 0 44.833 9.537 60.253 24.958l25.153 25.153c30.868 30.835 73.495 49.905 120.575 49.905s89.706-19.070 120.576-49.906l25.152-25.152c15.42-15.421 36.722-24.958 60.253-24.958 0.016 0 0.033 0 0.049 0h35.339c94.227 0 170.614-76.386 170.614-170.614v0-35.293c0-0.014 0-0.030 0-0.047 0-23.531 9.537-44.833 24.958-60.253l25.153-25.153c30.835-30.868 49.905-73.495 49.905-120.575s-19.070-89.706-49.906-120.576l0.001 0.001z" />
<glyph unicode="&#xe957;" d="M455.284 291.547c-0.021 0-0.047 0-0.072 0-11.751 0-22.383 4.791-30.051 12.525l-113.729 113.729c-7.716 7.716-12.489 18.375-12.489 30.15 0 23.549 19.090 42.639 42.639 42.639 11.774 0 22.434-4.773 30.15-12.489v0l83.601-83.552 197.327 197.278c7.63 7.246 17.968 11.702 29.348 11.702 23.557 0 42.654-19.097 42.654-42.654 0-11.38-4.457-21.719-11.72-29.367l0.017 0.019-227.501-227.501c-7.666-7.709-18.278-12.48-30.005-12.48-0.059 0-0.119 0-0.178 0h0.009z" />
<glyph unicode="&#xe958;" glyph-name="verify" d="M953.013 549.202c-13.428 9.101-25.021 19.493-35.066 31.248l-0.199 0.238c0.841 17.836 4.444 34.582 10.39 50.171l-0.371-1.109c8.358 17.074 13.245 37.156 13.245 58.38 0 22.582-5.534 43.872-15.318 62.588l0.355-0.746c-24.639 24.757-58.74 40.079-96.419 40.079-6.375 0-12.647-0.439-18.788-1.287l0.711 0.081c-1.977-0.084-4.298-0.131-6.63-0.131-15 0-29.539 1.969-43.375 5.665l1.171-0.267c-8.267 12.759-15.048 27.5-19.576 43.195l-0.29 1.172c-13.053 37.154-29.311 83.411-72.82 97.322-6.538 1.145-14.065 1.799-21.747 1.799-35.688 0-68.075-14.131-91.873-37.102l0.039 0.037c-12.773-10.261-27.554-18.739-43.554-24.715l-1.099-0.36c-17.1 6.331-31.881 14.809-44.964 25.316l0.31-0.241c-23.774 22.93-56.174 37.057-91.873 37.057-7.667 0-15.182-0.652-22.492-1.903l0.784 0.111c-43.509-14.141-59.767-60.34-72.82-97.322-4.804-16.824-11.505-31.523-20.044-44.939l0.409 0.686c-12.655-3.509-27.188-5.526-42.191-5.526-2.416 0-4.82 0.052-7.211 0.156l0.341-0.012c-5.43 0.768-11.702 1.207-18.077 1.207-37.68 0-71.782-15.321-96.414-40.073l-0.005-0.005c-9.425-17.971-14.956-39.261-14.956-61.842 0-21.222 4.885-41.303 13.591-59.182l-0.353 0.802c5.492-14.378 9.105-31.010 10.057-48.35l0.019-0.426c-10.217-12.169-21.858-22.664-34.788-31.396l-0.592-0.376c-31.257-23.816-70.53-53.757-70.53-100.128s39.273-76.255 70.817-100.241c13.428-9.101 25.021-19.493 35.066-31.248l0.199-0.238c-0.841-17.836-4.444-34.582-10.39-50.171l0.371 1.109c-8.358-17.074-13.245-37.156-13.245-58.38 0-22.582 5.534-43.872 15.318-62.588l-0.355 0.746c24.639-24.757 58.74-40.079 96.419-40.079 6.375 0 12.647 0.439 18.788 1.287l-0.711-0.081c1.979 0.084 4.302 0.132 6.636 0.132 14.998 0 29.535-1.969 43.368-5.665l-1.171 0.266c8.267-12.759 15.048-27.5 19.576-43.195l0.29-1.172c13.053-37.154 29.311-83.411 72.82-97.322 7.126-2.424 15.333-3.827 23.869-3.836h0.004c34.59 4.19 65.292 18.273 89.883 39.295l-0.232-0.193c12.772 10.284 27.553 18.779 43.555 24.772l1.098 0.36c17.1-6.332 31.881-14.81 44.964-25.316l-0.311 0.242c23.782-22.928 56.188-37.053 91.891-37.053 7.66 0 15.169 0.65 22.473 1.899l-0.784-0.111c43.509 14.141 59.767 60.34 72.82 97.322 4.804 16.824 11.505 31.523 20.044 44.939l-0.409-0.686c12.655 3.509 27.188 5.526 42.191 5.526 2.416 0 4.82-0.052 7.211-0.156l-0.341 0.012c5.43-0.768 11.702-1.207 18.077-1.207 37.68 0 71.782 15.321 96.414 40.073l0.005 0.005c9.425 17.971 14.956 39.261 14.956 61.842 0 21.222-4.885 41.303-13.591 59.182l0.353-0.802c-5.492 14.378-9.105 31.010-10.057 48.35l-0.019 0.426c10.217 12.169 21.858 22.664 34.788 31.396l0.592 0.376c31.544 24.044 70.759 53.985 70.759 100.356s-39.33 76.14-70.988 99.956zM702.036 525.33l-213.307-213.022c-7.719-7.726-18.386-12.504-30.169-12.504s-22.451 4.779-30.169 12.504l-106.596 106.654c-7.99 7.761-12.949 18.605-12.949 30.608 0 23.555 19.095 42.65 42.65 42.65 11.619 0 22.152-4.646 29.844-12.181l77.221-77.221 183.194 183.194c7.761 7.99 18.605 12.949 30.608 12.949 23.555 0 42.65-19.095 42.65-42.65 0-11.619-4.646-22.152-12.181-29.844l0.007 0.007z" />
<glyph unicode="&#xe959;" d="M172.483-62.492c-6.384-0.96-13.751-1.509-21.247-1.509-83.078 0-150.425 67.348-150.425 150.425 0 7.496 0.548 14.863 1.607 22.065l-0.099-0.818v680.656c-0.96 6.384-1.509 13.751-1.509 21.247 0 83.078 67.348 150.425 150.425 150.425 7.496 0 14.863-0.548 22.065-1.607l-0.818 0.099h453.77c6.384 0.96 13.751 1.509 21.247 1.509 83.078 0 150.425-67.348 150.425-150.425 0-7.496-0.548-14.863-1.607-22.065l0.099 0.818v-737.378c0-62.653 50.79-113.443 113.443-113.443v0z" />
<glyph unicode="&#xe95a;" d="M796.304 51.008v510.492h141.803c0 0 0 0 0.001 0 46.87 0 84.888-37.899 85.082-84.723v-425.429c0-0.003 0-0.006 0-0.009 0-31.308-12.752-59.636-33.345-80.075l-0.007-0.007c-20.067-20.62-48.087-33.413-79.095-33.413-0.35 0-0.699 0.002-1.049 0.005h0.053c-62.488 0.161-113.121 50.693-113.443 113.129v0.031zM342.874 178.688c-0.119-0.001-0.258-0.002-0.398-0.002-23.338 0-42.257 18.919-42.257 42.257 0 0.101 0 0.2 0.001 0.301v-0.015c0 0.017 0 0.037 0 0.057 0 23.464 19.021 42.484 42.484 42.484 0.060 0 0.12 0 0.179 0h254.897c0.017 0 0.037 0 0.057 0 23.464 0 42.484-19.021 42.484-42.484 0-0.020 0-0.040 0-0.060v0.003c0.001-0.085 0.001-0.184 0.001-0.284 0-23.338-18.919-42.257-42.257-42.257-0.1 0-0.2 0-0.3 0.001h0.015zM158.416 221.228c0 0.017 0 0.037 0 0.057 0 23.464 19.021 42.484 42.484 42.484 0.020 0 0.040 0 0.060 0h-0.003c23.456-0.097 42.445-19.085 42.541-42.531v-0.009c0-0.034 0-0.074 0-0.114 0-23.432-18.996-42.428-42.428-42.428-0.040 0-0.080 0-0.12 0h0.006c-0.119-0.001-0.258-0.002-0.398-0.002-23.338 0-42.257 18.919-42.257 42.257 0 0.101 0 0.2 0.001 0.301v-0.015zM342.874 405.629c-0.119-0.001-0.258-0.002-0.398-0.002-23.338 0-42.257 18.919-42.257 42.257 0 0.101 0 0.2 0.001 0.301v-0.015c0 0.017 0 0.037 0 0.057 0 23.464 19.021 42.484 42.484 42.484 0.060 0 0.12 0 0.179 0h254.897c0.017 0 0.037 0 0.057 0 23.464 0 42.484-19.021 42.484-42.484 0-0.020 0-0.040 0-0.060v0.003c0.001-0.085 0.001-0.184 0.001-0.284 0-23.338-18.919-42.257-42.257-42.257-0.1 0-0.2 0-0.3 0.001h0.015zM158.416 448.17c0 0.017 0 0.037 0 0.057 0 23.464 19.021 42.484 42.484 42.484 0.020 0 0.040 0 0.060 0h-0.003c23.456-0.097 42.445-19.085 42.541-42.531v-0.009c0-0.034 0-0.074 0-0.114 0-23.432-18.996-42.428-42.428-42.428-0.040 0-0.080 0-0.12 0h0.006c-0.119-0.001-0.258-0.002-0.398-0.002-23.338 0-42.257 18.919-42.257 42.257 0 0.101 0 0.2 0.001 0.301v-0.015zM342.874 632.174c-0.051 0-0.111 0-0.17 0-23.464 0-42.484 19.021-42.484 42.484 0 0.020 0 0.040 0 0.060v-0.003c-0.001 0.085-0.001 0.185-0.001 0.285 0 23.338 18.919 42.257 42.257 42.257 0.14 0 0.28-0.001 0.42-0.002h254.885c0.085 0.001 0.184 0.001 0.284 0.001 23.338 0 42.257-18.919 42.257-42.257 0-0.1 0-0.2-0.001-0.3v0.015c0-0.017 0-0.037 0-0.057 0-23.464-19.021-42.484-42.484-42.484-0.020 0-0.040 0-0.060 0h0.003zM158.416 674.715c-0.001 0.085-0.001 0.184-0.001 0.284 0 23.338 18.919 42.257 42.257 42.257 0.1 0 0.2 0 0.3-0.001h-0.015c0.034 0 0.074 0 0.114 0 23.432 0 42.428-18.996 42.428-42.428 0-0.040 0-0.080 0-0.12v0.006c-0.097-23.456-19.085-42.445-42.531-42.541h-0.009c-0.051 0-0.111 0-0.17 0-23.464 0-42.484 19.021-42.484 42.484 0 0.020 0 0.040 0 0.060v-0.003z" />
<glyph unicode="&#xe95b;" glyph-name="remove" d="M715.956-64h-407.847c-78.234 0.074-141.639 63.456-141.75 141.675v635.968h-34.545c-19.115 0-34.61 15.495-34.61 34.61v0c0.037 19.086 15.518 34.545 34.61 34.545 0 0 0 0 0 0h760.435c19.078 0 34.545-15.466 34.545-34.545v0c0 0 0 0 0 0 0-19.091-15.458-34.573-34.542-34.61h-34.613v-635.958c-0.111-78.206-63.479-141.574-141.675-141.685h-0.010zM633.036 558.127c-19.115 0-34.61-15.495-34.61-34.61v-345.641c0-19.115 15.495-34.61 34.61-34.61v0c19.086 0.037 34.545 15.518 34.545 34.61 0 0 0 0 0 0v0 345.641c0 0 0 0 0 0 0 19.091-15.458 34.573-34.542 34.61h-0.003zM391.029 558.127c-19.086-0.037-34.545-15.518-34.545-34.61 0 0 0 0 0 0v0-345.641c0 0 0 0 0 0 0-19.091 15.458-34.573 34.542-34.61h0.003c19.115 0 34.61 15.495 34.61 34.61v0 345.641c0 19.115-15.495 34.61-34.61 34.61v0zM684.463 873.768c23.812 0 43.116 19.303 43.116 43.116s-19.303 43.116-43.116 43.116h-344.861c-23.812 0-43.116-19.303-43.116-43.116s19.303-43.116 43.116-43.116v0z" />
<glyph unicode="&#xe95c;" glyph-name="back" d="M1023.999 447.95c0-28.276-22.922-51.198-51.198-51.198v0h-797.971l270.991-270.991c9.644-9.323 15.63-22.375 15.63-36.827 0-28.276-22.922-51.198-51.198-51.198-14.45 0-27.503 5.987-36.813 15.615l-358.4 358.4c-9.293 9.27-15.041 22.087-15.041 36.249s5.749 26.979 15.040 36.248l358.387 358.387c9.323 9.644 22.375 15.63 36.827 15.63 28.276 0 51.198-22.922 51.198-51.198 0-14.45-5.987-27.503-15.615-36.813l-271.005-271.107h797.971c28.276 0 51.198-22.922 51.198-51.198v0z" />
<glyph unicode="&#xe95d;" d="M768 550.229l193.57 154.863c6.517 5.263 14.902 8.448 24.030 8.448 21.202 0 38.39-17.182 38.4-38.382v-454.657c-0.010-21.2-17.198-38.383-38.4-38.383-9.129 0-17.513 3.185-24.103 8.505l0.073-0.057-193.57 154.863z" />
<glyph unicode="&#xe95e;" d="M614.4 89.6h-460.8q-153.6 0-153.6 153.6v409.6q0 153.6 153.6 153.6h460.8q153.6 0 153.6-153.6v-409.6q0-153.6-153.6-153.6z" />
<glyph unicode="&#xe95f;" d="M924.26 507.844c0 22.034-17.862 39.896-39.896 39.896s-39.896-17.862-39.896-39.896v0c0-183.617-148.851-332.468-332.468-332.468s-332.468 148.851-332.468 332.468v0c0 22.034-17.862 39.896-39.896 39.896s-39.896-17.862-39.896-39.896v0c0.287-213.508 162.638-389.008 370.621-410.095l1.742-0.143v-121.71c0-22.034 17.862-39.896 39.896-39.896s39.896 17.862 39.896 39.896v0 121.71c209.726 21.231 372.077 196.73 372.364 410.209v0.029z" />
<glyph unicode="&#xe960;" d="M512.001 960c-132.139-0.161-239.215-107.237-239.377-239.361v-212.795c0-132.204 107.173-239.377 239.377-239.377s239.377 107.173 239.377 239.377v0 212.779c-0.161 132.139-107.237 239.215-239.361 239.377h-0.016z" />
<glyph unicode="&#xe961;" d="M811.377 421.405v93.191h-93.226c-22.032 0-39.893 17.86-39.893 39.893v0c0 22.013 17.845 39.858 39.858 39.858 0.013 0 0.025 0 0.038 0h93.224v93.014c0 0.011 0 0.023 0 0.036 0 22 17.825 39.837 39.82 39.858h0.002c22.008-0.060 39.833-17.885 39.893-39.888v-93.020h93.014c0.011 0 0.023 0 0.036 0 22.013 0 39.858-17.845 39.858-39.858v0c0-22.032-17.86-39.893-39.893-39.893v0h-93.014v-93.191c-0.040-22.016-17.877-39.853-39.89-39.893h-0.004c0 0 0 0 0 0-21.994 0-39.822 17.829-39.822 39.822 0 0.025 0 0.050 0 0.075v-0.004zM186.665 740.551c0 117.506 95.258 212.765 212.765 212.765v0c117.506 0 212.765-95.258 212.765-212.765v0c0-117.506-95.258-212.765-212.765-212.765v0c-117.476 0.040-212.693 95.283-212.693 212.765v0z" />
<glyph unicode="&#xe962;" d="M797.866 127.825v-158.546c0-14.689-11.908-26.595-26.595-26.595v0h-744.676c-14.689 0-26.595 11.908-26.595 26.595v0 158.546c0 135.425 76.595 293.58 292.551 293.58h212.765c215.956 0 292.551-158.119 292.551-293.58z" />
<glyph unicode="&#xe963;" d="M0 620.692v-345.458c0-40.884 33.143-74.027 74.027-74.027v0h87.187c24.398-0.009 46.73-8.854 63.969-23.509l-0.141 0.117 182.106-154.37c14.267-12.135 32.904-19.516 53.266-19.516 45.514 0 82.415 36.88 82.449 82.387v723.163c0.001 0.101 0.001 0.22 0.001 0.34 0 45.427-36.825 82.252-82.252 82.252-20.448 0-39.153-7.461-53.541-19.81l0.11 0.092-182.139-154.305c-17.085-14.574-39.418-23.445-63.825-23.458h-87.19c0 0 0 0 0 0-40.838 0-73.952-33.068-74.027-73.888v-0.007z" />
<glyph unicode="&#xe964;" d="M702.63 201.569c-0.014 0-0.030 0-0.047 0-20.424 0-36.981 16.557-36.981 36.981 0 10.248 4.168 19.522 10.903 26.22l0.002 0.002c47.012 46.768 76.106 111.508 76.106 183.044s-29.094 136.275-76.096 183.032l-0.011 0.011c-7.114 6.759-11.54 16.289-11.54 26.853 0 20.442 16.572 37.014 37.014 37.014 10.523 0 20.020-4.391 26.759-11.441l0.013-0.014c60.424-60.182 97.813-143.452 97.813-235.455s-37.389-175.273-97.803-235.444l-0.010-0.010c-6.683-6.668-15.908-10.792-26.095-10.792-0.010 0-0.019 0-0.029 0h0.002zM868.45 72.696c96.1 95.938 155.55 228.561 155.55 375.070s-59.451 279.132-155.543 375.063l-0.007 0.007c-6.695 6.679-15.935 10.808-26.14 10.808-20.442 0-37.014-16.572-37.014-37.014 0-10.237 4.156-19.504 10.873-26.205l0.001-0.001c82.686-82.544 133.838-196.652 133.838-322.707s-51.152-240.164-133.832-322.701l-0.006-0.006c-6.718-6.701-10.874-15.968-10.874-26.205 0-20.442 16.572-37.014 37.014-37.014 10.204 0 19.445 4.129 26.14 10.809l-0.001-0.001z" />
<glyph unicode="&#xe965;" horiz-adv-x="1037" d="M26.927-64c-14.872 0-26.927 12.056-26.927 26.927v160.682c-0.415 5.699-0.651 12.347-0.651 19.050 0 154.073 124.901 278.973 278.973 278.973 6.373 0 12.696-0.214 18.962-0.634l-0.849 0.046h215.536c5.417 0.375 11.74 0.589 18.113 0.589 154.073 0 278.973-124.901 278.973-278.973 0-6.703-0.236-13.351-0.701-19.936l0.050 0.886v-160.623c0-14.872-12.056-26.927-26.927-26.927v0zM821.869 421.043v94.069h-94.069c-0.46-0.019-1-0.029-1.542-0.029-22.34 0-40.45 18.11-40.45 40.45s18.11 40.45 40.45 40.45c0.542 0 1.082-0.011 1.619-0.032l-0.077 0.002h94.069v94.539c-0.019 0.46-0.029 1-0.029 1.542 0 22.34 18.11 40.45 40.45 40.45s40.45-18.11 40.45-40.45c0-0.542-0.011-1.082-0.032-1.619l0.002 0.077v-94.069h94.069c0.46 0.019 1 0.029 1.542 0.029 22.34 0 40.45-18.11 40.45-40.45s-18.11-40.45-40.45-40.45c-0.542 0-1.082 0.011-1.619 0.032l0.077-0.002h-94.069v-94.069c-0.852-21.666-18.623-38.908-40.42-38.908s-39.568 17.241-40.418 38.831l-0.002 0.077z" />
<glyph unicode="&#xe966;" horiz-adv-x="1037" d="M620.326 744.406c0-119.070-96.525-215.594-215.594-215.594s-215.594 96.525-215.594 215.594c0 119.070 96.525 215.594 215.594 215.594s215.594-96.525 215.594-215.594z" />
<glyph unicode="&#xe967;" d="M0 128.016v639.969q0 192.016 192.016 192.016h640.031q192.016 0 192.016-192.016v-640.031q0-192.016-192.016-192.016h-639.969q-192.078 0.062-192.078 192.078z" />
<glyph unicode="&#xe968;" d="M585.976 362.418h-2.048c-9.802-54.786-57.091-95.829-113.965-95.829-0.472 0-0.944 0.003-1.415 0.008l0.072-0.001c-1.067-0.037-2.321-0.059-3.58-0.059-34.264 0-64.846 15.768-84.884 40.444l-0.159 0.202c-21.104 27.581-33.817 62.558-33.817 100.505 0 3.155 0.088 6.29 0.261 9.402l-0.019-0.432c-0.108 2.683-0.169 5.833-0.169 8.997 0 53.414 17.486 102.745 47.047 142.578l-0.457-0.644c27.011 36.623 69.992 60.116 118.461 60.116 1.227 0 2.45-0.015 3.669-0.045l-0.181 0.004c0.412 0.007 0.897 0.010 1.384 0.010 18.687 0 36.074-5.562 50.598-15.12l-0.347 0.215c13.806-8.415 24.13-21.377 28.979-36.768l0.127-0.469h1.614q0.807 11.233 4.034 46.235h50.207q-18.618-221.432-18.618-225.466 0-83.161 47.849-83.161c31.483 1.208 58.397 19.625 71.709 46.065l0.219 0.481c18.213 32.258 28.945 70.829 28.945 111.907 0 3.466-0.076 6.914-0.228 10.343l0.017-0.488c0.118 2.837 0.185 6.167 0.185 9.512 0 66.738-26.771 127.223-70.159 171.303l0.031-0.032c-46.62 43.531-109.418 70.258-178.457 70.258-5.337 0-10.637-0.16-15.895-0.475l0.724 0.035c-2.139 0.064-4.655 0.1-7.18 0.1-75.196 0-142.883-32.148-190.067-83.449l-0.167-0.184c-48.403-52.324-78.092-122.575-78.092-199.76 0-3.235 0.052-6.457 0.156-9.666l-0.012 0.468c-0.169-3.583-0.265-7.782-0.265-12.004 0-72.533 28.338-138.447 74.546-187.275l-0.119 0.126c48.070-47.029 113.926-76.047 186.561-76.047 4.691 0 9.354 0.121 13.985 0.36l-0.649-0.027c3.237-0.095 7.045-0.149 10.866-0.149 57.419 0 111.992 12.184 161.275 34.107l-2.529-1.005v-49.648c-47.466-18.95-102.478-29.939-160.057-29.939-4.822 0-9.626 0.077-14.411 0.23l0.698-0.018c-4.313-0.207-9.368-0.325-14.451-0.325-85.883 0-163.891 33.717-221.509 88.635l0.129-0.122c-55.44 55.976-89.694 133.021-89.694 218.066 0 4.502 0.096 8.981 0.286 13.436l-0.022-0.636c-0.098 3.038-0.155 6.611-0.155 10.196 0 90.776 35.952 173.155 94.394 233.675l-0.094-0.098c58.102 59.848 139.311 96.987 229.193 96.987 3.687 0 7.359-0.062 11.016-0.186l-0.532 0.014c3.489 0.135 7.586 0.211 11.7 0.211 82.562 0 157.916-30.861 215.155-81.678l-0.334 0.291c55.094-50.031 89.546-121.941 89.546-201.899 0-3.465-0.065-6.914-0.193-10.347l0.015 0.496c0.141-3.133 0.221-6.808 0.221-10.501 0-55.022-17.794-105.888-47.942-147.158l0.493 0.707c-25.513-36.953-67.463-60.978-115.051-61.439l-0.071-0.001q-88.002 0-88.374 95.822zM513.986 580.996c-34.459-0.144-64.464-19.077-80.315-47.078l-0.24-0.461c-19.56-31.506-31.154-69.731-31.154-110.664 0-2.55 0.045-5.090 0.134-7.618l-0.010 0.367c-0.098-1.825-0.154-3.962-0.154-6.112 0-25.538 7.902-49.231 21.395-68.765l-0.264 0.405c12.102-16.639 31.506-27.332 53.408-27.332 0.642 0 1.282 0.009 1.92 0.027l-0.094-0.002c34.51 0.231 64.307 20.18 78.71 49.134l0.232 0.514c18.51 34.733 29.381 75.957 29.381 119.72 0 4.189-0.1 8.355-0.297 12.495l0.022-0.585q0.062 85.954-72.673 85.954z" />
</font>
</defs>
</svg>
