<svg xmlns="http://www.w3.org/2000/svg" width="86" height="86" viewBox="0 0 86 86">
  <g id="Group_193981" data-name="Group 193981" transform="translate(-917 -323)">
    <circle id="Ellipse_10062" data-name="Ellipse 10062" cx="43" cy="43" r="43" transform="translate(917 323)" fill="#e84949"/>
    <path id="Path_5990" data-name="Path 5990" d="M1308.914,2662.326l9.122-9.128a4.654,4.654,0,1,0-6.582-6.583l-9.128,9.122-9.128-9.122a4.655,4.655,0,0,0-6.583,6.583l9.122,9.128-9.122,9.128a4.655,4.655,0,1,0,6.583,6.583l9.128-9.122,9.128,9.122a4.654,4.654,0,1,0,6.582-6.583Z" transform="translate(-342.325 -2296.75)" fill="#fff"/>
    <path id="Path_5990_-_Outline" data-name="Path 5990 - Outline" d="M1314.744,2680.9a6.1,6.1,0,0,1-4.353-1.807l-8.066-8.061-8.068,8.062a6.148,6.148,0,0,1-8.707,0,6.161,6.161,0,0,1,0-8.7l8.062-8.067-8.062-8.068a6.155,6.155,0,1,1,8.7-8.7l8.067,8.062,8.068-8.062a6.154,6.154,0,1,1,8.7,8.7l-8.062,8.068,8.062,8.068a6.157,6.157,0,0,1-4.352,10.509Zm-12.419-14.108,10.192,10.185a3.154,3.154,0,0,0,4.458-4.465l-10.182-10.189,10.181-10.188a3.154,3.154,0,1,0-4.46-4.462l-10.189,10.182-10.188-10.181a3.155,3.155,0,1,0-4.462,4.461l10.182,10.189-10.181,10.188a3.158,3.158,0,0,0,0,4.462,3.148,3.148,0,0,0,4.458,0Z" transform="translate(-342.325 -2296.75)" fill="#e84949"/>
  </g>
</svg>
