<svg xmlns="http://www.w3.org/2000/svg" width="205.569" height="80.425" viewBox="0 0 205.569 80.425">
  <g id="Group_193862" data-name="Group 193862" transform="translate(-1337 -81.999)">
    <g id="Group_193414" data-name="Group 193414" transform="translate(26335 12884.719)">
      <circle id="Ellipse_10069" data-name="Ellipse 10069" cx="5.698" cy="5.698" r="5.698" transform="translate(-24944.945 -12770.633)" fill="#38abc8"/>
      <path id="Path_258758" data-name="Path 258758" d="M16.02,5.756A10.265,10.265,0,1,0,26.285,16.02,10.276,10.276,0,0,0,16.02,5.756M16.02,0A16.02,16.02,0,1,1,0,16.02,16.021,16.021,0,0,1,16.02,0Z" transform="translate(-24954.689 -12798.44)" fill="#38abc8"/>
      <path id="Ellipse_10067" data-name="Ellipse 10067" d="M15.925,5.756A10.169,10.169,0,1,0,26.093,15.925,10.18,10.18,0,0,0,15.925,5.756m0-5.756A15.925,15.925,0,1,1,0,15.925,15.925,15.925,0,0,1,15.925,0Z" transform="translate(-24969.797 -12771.82)" fill="#38abc8"/>
      <path id="Path_258759" data-name="Path 258759" d="M16.308,5.756A10.552,10.552,0,1,0,26.861,16.308,10.564,10.564,0,0,0,16.308,5.756m0-5.756A16.308,16.308,0,1,1,0,16.308,16.308,16.308,0,0,1,16.308,0Z" transform="translate(-24939.676 -12772.203)" fill="#38abc8"/>
      <g id="Group_193413" data-name="Group 193413" transform="translate(-24998 -12802.72)">
        <path id="Path_258750" data-name="Path 258750" d="M-1923.679-568.647c.753.063,1.5.153,2.245.287a19.836,19.836,0,0,1,9.048,4.106,20.115,20.115,0,0,1,7.193,11.5,19.9,19.9,0,0,1,.472,4.592,20.494,20.494,0,0,1-.922,6.009c-.029.091-.047.185-.076.3a9.435,9.435,0,0,0,1.239.343c.392.12.788.227,1.177.357q.606.2,1.2.439.571.229,1.127.494c.385.184.757.393,1.139.583a6.674,6.674,0,0,0,1.1.584c.021-.205.04-.381.061-.585a1.3,1.3,0,0,1,.258-.078c.146-.015.295-.008.443-.008q3.743,0,7.486,0c.211,0,.422.012.635.019a1.574,1.574,0,0,1,.152.589c.179,1.234.351,2.468.529,3.7.022.157.068.31.105.476.191-.08.218-.239.284-.364a12.642,12.642,0,0,1,1.1-1.747,9.823,9.823,0,0,1,5.434-3.605,15.075,15.075,0,0,1,3.452-.493,18.745,18.745,0,0,1,4.02.273,14.963,14.963,0,0,1,8.966,5.2,18.918,18.918,0,0,1,3.518,6.494,23.836,23.836,0,0,1,1.007,4.807,26.084,26.084,0,0,1,.067,4.769,23.723,23.723,0,0,1-2.156,8.488,17.1,17.1,0,0,1-3.464,4.93,14.558,14.558,0,0,1-7.323,3.91,18.232,18.232,0,0,1-5.043.329,16.314,16.314,0,0,1-3.582-.606,10.34,10.34,0,0,1-5.643-4.062c-.1-.144-.209-.285-.347-.474a.867.867,0,0,0-.091.212c-.01.18-.008.361-.008.541q0,8.175,0,16.35c0,.211-.006.422-.01.647a4.459,4.459,0,0,1-.942.143c-1.272.138-2.546.264-3.819.391-1.126.113-2.253.22-3.38.331-.359.035-.719.067-1.077.11a2.132,2.132,0,0,0-.328.092h-.3c.009-.179.027-.359.027-.538q0-7.61,0-15.22c0-.131,0-.263,0-.394a1.8,1.8,0,0,0-.047-.242,1.585,1.585,0,0,0-.549.275,20.19,20.19,0,0,1-8.541,2.78,20.29,20.29,0,0,1-4.959-.152,20.141,20.141,0,0,1-7.948-3.011,20.4,20.4,0,0,1-3.878-3.25,1.077,1.077,0,0,0-.409-.359c-.124.127-.239.241-.35.36a20.039,20.039,0,0,1-5.326,4.09,20.051,20.051,0,0,1-8.515,2.361c-.819.039-1.641.048-2.461.049q-20.862,0-41.723,0c-.164,0-.329.006-.492,0a2.682,2.682,0,0,1-.321-.056,1.653,1.653,0,0,1-.064-.7q0-24.479,0-48.959c0-.148,0-.3.006-.443a2.245,2.245,0,0,1,.05-.275,1.274,1.274,0,0,1,.558-.062q4.605,0,9.211,0a2.265,2.265,0,0,1,.246,0c.094.01.186.034.308.057.007.263.02.506.02.749q0,20.637,0,41.275c0,.2-.006.395.008.591a1.069,1.069,0,0,0,.08.254c.328.04,16.913.069,17.363.031a.611.611,0,0,0,.145-.056c-.019-.2-.169-.322-.273-.459a20.188,20.188,0,0,1-4.092-11.056,20.038,20.038,0,0,1,.494-5.867,20.389,20.389,0,0,1,11.187-13.781,20.494,20.494,0,0,1,4.327-1.461c.111-.024.233-.028.286-.182-.037-.125-.077-.266-.121-.406a20.536,20.536,0,0,1-.9-5.323,19.781,19.781,0,0,1,.354-4.506,19.961,19.961,0,0,1,5.437-10.405,20,20,0,0,1,10.424-5.7,22.685,22.685,0,0,1,2.728-.381A22.744,22.744,0,0,1-1923.679-568.647Zm3.209,48.631a13.8,13.8,0,0,1-.815-6.678,13.97,13.97,0,0,1,3.13-7.222,14.556,14.556,0,0,1,2.343-2.24,15.054,15.054,0,0,0,6.009-10.828,14.708,14.708,0,0,0-.584-5.8,15.287,15.287,0,0,0-13.1-10.768,15.364,15.364,0,0,0-4.267.157,15.044,15.044,0,0,0-9.114,5.334,14.892,14.892,0,0,0-3.413,8.349,15.372,15.372,0,0,0,.388,5.084,15.916,15.916,0,0,0,.684,2.1.475.475,0,0,0,.47.35c.294.008.589.05.882.087a19.516,19.516,0,0,1,7.6,2.559,9.963,9.963,0,0,0,6.432,1.348,10.146,10.146,0,0,0,5.2-2.176,10.253,10.253,0,0,0,3.235-4.444c.063-.165.254-.626.254-.626s-.073.469-.115.627a13.269,13.269,0,0,1-3.472,6.091,13.568,13.568,0,0,1-11.208,4.131,11.058,11.058,0,0,1-3.563-.91q-.854-.38-1.731-.709a14.264,14.264,0,0,0-7.8-.7,15.008,15.008,0,0,0-10.9,8.035,14.531,14.531,0,0,0-1.673,6.177,14.593,14.593,0,0,0,.292,3.915,15.011,15.011,0,0,0,7.386,10.158,14.908,14.908,0,0,0,6.59,1.986,14.579,14.579,0,0,0,4.017-.273,15.248,15.248,0,0,0,9.033-5.565c.091-.114.166-.24.248-.361-.042-.11-.074-.2-.112-.291-.187-.437-.392-.868-.562-1.312a18.354,18.354,0,0,1-1.347-7.161c0-.049,0-.1,0-.148a10.386,10.386,0,0,0-.282-2.488,10.026,10.026,0,0,0-8.628-7.746c-.054-.006-.728-.063-.728-.063s1.3-.122,1.607-.107a13.5,13.5,0,0,1,4.357.957A14.052,14.052,0,0,1-1925-520.107c.081.585.171,1.171.3,1.745a15.3,15.3,0,0,0,18.189,11.533,15.3,15.3,0,0,0,11.824-17.744,15.325,15.325,0,0,0-12.993-12.417,2.656,2.656,0,0,0-.369,0,.781.781,0,0,0-.089.083c-.1.131-.195.264-.292.4a19.438,19.438,0,0,1-6.185,5.618c-.157.088-.312.181-.466.276a10.211,10.211,0,0,0-2.837,2.557,10.067,10.067,0,0,0-2.045,5.2,12.18,12.18,0,0,0,.4,4.532c.043.153.175.589.175.589S-1920.231-519.371-1920.47-520.016Zm31.523-1.449c.015.492.023.984.045,1.476a18.149,18.149,0,0,0,.6,3.98,10.771,10.771,0,0,0,1.559,3.43,7.631,7.631,0,0,0,3.963,2.936,10.061,10.061,0,0,0,4.323.429,7.687,7.687,0,0,0,5.591-3.286,10.141,10.141,0,0,0,1.244-2.394,17.043,17.043,0,0,0,.974-5.2,26.728,26.728,0,0,0-.066-3.688,19.313,19.313,0,0,0-.52-3.1,11.081,11.081,0,0,0-1.609-3.622,7.639,7.639,0,0,0-4.186-3.022,9.853,9.853,0,0,0-3.162-.376,8.363,8.363,0,0,0-3.46.851,8.187,8.187,0,0,0-3.54,3.449,12.372,12.372,0,0,0-1.21,3.16A21.445,21.445,0,0,0-1888.947-521.466Z" transform="translate(1984.297 568.691)" fill="#204478"/>
        <path id="Path_258751" data-name="Path 258751" d="M1505.876,86.621c-.054-.34-.115-.679-.16-1.02q-.347-2.609-.684-5.22a2.563,2.563,0,0,1-.045-.8c.172-.008.332-.021.492-.021,1.411,0,2.823,0,4.235,0a15.356,15.356,0,0,0,2.261-.106c.292-.044.584-.085.872-.15a4.575,4.575,0,0,0,2.708-1.757,9.422,9.422,0,0,0,.961-1.6,25.621,25.621,0,0,0,1.279-3.353c.121-.375.211-.759.344-1.129a.977.977,0,0,0-.042-.758c-.77-1.829-1.529-3.663-2.292-5.5l-12.219-29.344c-.081-.195-.157-.392-.227-.566.067-.142.173-.127.266-.132.131-.006.262,0,.394,0q4.26,0,8.52,0c.21,0,.42.016.645.025.092.219.177.412.255.608l8.28,20.906q.535,1.35,1.073,2.7c.053.132.117.259.176.387.2-.047.19-.206.229-.318.309-.882.608-1.768.91-2.653q3.6-10.57,7.21-21.14c.052-.153.115-.3.165-.435a1.176,1.176,0,0,1,.609-.077q2.216,0,4.432,0,2.265,0,4.531,0c.2,0,.392.021.588.032v.1a2.439,2.439,0,0,0-.292.719q-7.4,19.23-14.795,38.464a40.431,40.431,0,0,1-1.884,4.273,20.294,20.294,0,0,1-2.007,3.149,11.22,11.22,0,0,1-5.832,3.986,17.748,17.748,0,0,1-3.777.627,1.93,1.93,0,0,0-.773.107Z" transform="translate(-1336.071 -6.196)" fill="#204478"/>
        <path id="Path_258752" data-name="Path 258752" d="M939.208-247.124c.409-.057,6.69-.07,7.291-.017a1.271,1.271,0,0,1,.074.257c.014.163.007.328.007.492q0,6.033,0,12.065a1.623,1.623,0,0,0,.057.641,1.5,1.5,0,0,0,.585.056q2.684,0,5.369,0,1.256,0,2.512,0c.179,0,.359.011.564.018a2.12,2.12,0,0,1,.079.337c.013.2.006.394.006.591q0,2.118,0,4.235c0,.2-.01.391-.017.6a1.6,1.6,0,0,1-.293.085c-.163.014-.328.008-.492.008h-7.634c-.212,0-.423.01-.654.015a1.879,1.879,0,0,0-.075.293c-.013.147-.007.3-.007.443q0,7.806,0,15.611c0,.87.027,1.74.07,2.609a10.725,10.725,0,0,0,.285,2.094c.056.222.122.443.2.659a3.2,3.2,0,0,0,2.143,2.077,7.233,7.233,0,0,0,1.343.294,10.777,10.777,0,0,0,2.456.059c.635-.073,1.276-.092,1.915-.131.161-.01.323,0,.489,0a.9.9,0,0,1,.073.2q.269,3.361.531,6.723a1.541,1.541,0,0,1-.022.251,1.476,1.476,0,0,1-.243.065c-1.226.11-2.452.212-3.677.325a19.476,19.476,0,0,1-2.46.062,21.563,21.563,0,0,1-5.062-.673,11.914,11.914,0,0,1-2.2-.84,8.589,8.589,0,0,1-3.73-3.6,13.126,13.126,0,0,1-1.27-3.5,25.484,25.484,0,0,1-.516-3.651c-.121-1.622-.156-3.246-.156-4.871q0-6.895,0-13.789a2.46,2.46,0,0,0-.033-.635.871.871,0,0,0-.532-.082c-.69,0-1.379,0-2.069,0-1.067,0-2.134,0-3.2,0a1.045,1.045,0,0,1-.562-.077,13.694,13.694,0,0,1,.111-1.442c.037-.474.1-.947.142-1.42.046-.49.066-.984.136-1.47a9.96,9.96,0,0,1,.168-1.4,1.408,1.408,0,0,1,.613-.069q2.29,0,4.58,0c.195,0,.39-.011.6-.017a1.738,1.738,0,0,0,.109-.286q.556-3.074,1.105-6.15.519-2.881,1.041-5.761c.05-.274.091-.55.144-.824C939.127-246.826,939.172-246.981,939.208-247.124Z" transform="translate(-790.545 262.596)" fill="#204478"/>
        <path id="Path_258753" data-name="Path 258753" d="M669,72.212c-.514.1-6.5.139-9.361.07-.127,0-.254-.026-.385-.04a.988.988,0,0,1-.053-.212q0-18.292,0-36.584a.7.7,0,0,1,.042-.173.731.731,0,0,1,.491-.086c.771,0,1.543,0,2.314,0q3.127,0,6.254,0c.21,0,.421.015.647.023a2.407,2.407,0,0,1,.064.307c.01.147.005.3.005.443q0,17.775,0,35.55C669.019,71.737,669.008,71.964,669,72.212Z" transform="translate(-532.404 -6.218)" fill="#204478"/>
        <path id="Path_258754" data-name="Path 258754" d="M659.087-268.215c.126-.008.27-.023.413-.024,4.336-.04,8.981-.012,9.343.053a.2.2,0,0,1,.034.035.1.1,0,0,1,.012.047q.009,3.619.017,7.237c0,.18-.006.361-.012.541a.561.561,0,0,1-.045.124,2.463,2.463,0,0,1-.257.051,2.857,2.857,0,0,1-.3.005h-8.667c-.178,0-.357-.012-.506-.018a.611.611,0,0,1-.115-.5c0-.952,0-1.9,0-2.856q0-2.068,0-4.136A.947.947,0,0,1,659.087-268.215Z" transform="translate(-532.215 282.668)" fill="#204478"/>
      </g>
    </g>
  </g>
</svg>
