<svg xmlns="http://www.w3.org/2000/svg" width="53.476" height="50.205" viewBox="0 0 53.476 50.205">
  <g id="Group_193932" data-name="Group 193932" transform="translate(-22.977 -12.796)">
    <circle id="Ellipse_10069" data-name="Ellipse 10069" cx="4.241" cy="4.241" r="4.241" transform="translate(45.07 36.907)" fill="#38abc8"/>
    <path id="Path_258758" data-name="Path 258758" d="M11.974,4.3a7.672,7.672,0,1,0,7.672,7.672A7.681,7.681,0,0,0,11.974,4.3m0-4.3A11.974,11.974,0,1,1,0,11.974,11.974,11.974,0,0,1,11.974,0Z" transform="translate(37.715 15.994)" fill="#38abc8"/>
    <path id="Ellipse_10067" data-name="Ellipse 10067" d="M11.9,4.3a7.6,7.6,0,1,0,7.6,7.6,7.609,7.609,0,0,0-7.6-7.6m0-4.3A11.9,11.9,0,1,1,0,11.9,11.9,11.9,0,0,1,11.9,0Z" transform="translate(26.422 35.892)" fill="#38abc8"/>
    <path id="Path_258759" data-name="Path 258759" d="M12.189,4.3a7.887,7.887,0,1,0,7.887,7.887A7.9,7.9,0,0,0,12.189,4.3m0-4.3A12.189,12.189,0,1,1,0,12.189,12.189,12.189,0,0,1,12.189,0Z" transform="translate(48.936 35.604)" fill="#38abc8"/>
    <g id="Group_193413" data-name="Group 193413" transform="translate(22.977 12.796)">
      <path id="Path_258750" data-name="Path 258750" d="M-1464.718-568.658c.562.047,1.122.114,1.678.214a14.826,14.826,0,0,1,6.762,3.069,15.036,15.036,0,0,1,5.376,8.6,14.88,14.88,0,0,1,.353,3.432,15.32,15.32,0,0,1-.689,4.491c-.021.068-.035.138-.057.224a7.044,7.044,0,0,0,.926.256c.293.09.589.17.88.267s.6.21.9.328.566.237.842.369.566.294.851.435.821.436.821.436a15.3,15.3,0,0,1,7.163,13.056,14.692,14.692,0,0,1-7.584,12.855,15.089,15.089,0,0,1-6.384,2.078,15.161,15.161,0,0,1-3.706-.113,15.054,15.054,0,0,1-5.941-2.25,15.237,15.237,0,0,1-2.9-2.429.806.806,0,0,0-.305-.268c-.093.1-.179.18-.261.269a14.98,14.98,0,0,1-3.981,3.057,14.988,14.988,0,0,1-6.364,1.765,16.935,16.935,0,0,1-7.948-1.765,14.919,14.919,0,0,1-5.173-4.166,15.076,15.076,0,0,1-2.9-8.317,14.974,14.974,0,0,1,.369-4.385,15.239,15.239,0,0,1,8.361-10.3,15.314,15.314,0,0,1,3.234-1.092c.083-.018.174-.021.213-.136-.028-.094-.057-.2-.09-.3a15.36,15.36,0,0,1-.675-3.978,14.806,14.806,0,0,1,.265-3.368,14.919,14.919,0,0,1,4.063-7.777,14.948,14.948,0,0,1,7.791-4.264,16.98,16.98,0,0,1,2.039-.285A17.017,17.017,0,0,1-1464.718-568.658Zm2.4,36.347a10.312,10.312,0,0,1-.609-4.991,10.442,10.442,0,0,1,2.339-5.4,10.87,10.87,0,0,1,1.751-1.674,11.251,11.251,0,0,0,4.491-8.093,11,11,0,0,0-.437-4.331,11.426,11.426,0,0,0-9.789-8.048,11.486,11.486,0,0,0-3.189.118,11.244,11.244,0,0,0-6.812,3.987,11.13,11.13,0,0,0-2.551,6.24,11.489,11.489,0,0,0,.29,3.8,11.93,11.93,0,0,0,.511,1.573.355.355,0,0,0,.351.262c.22.006.44.037.659.065a14.584,14.584,0,0,1,5.678,1.913,7.448,7.448,0,0,0,4.808,1.007,7.583,7.583,0,0,0,3.885-1.626,7.666,7.666,0,0,0,2.418-3.321c.047-.123.19-.468.19-.468s-.055.351-.086.469a9.919,9.919,0,0,1-2.6,4.553,10.141,10.141,0,0,1-8.377,3.088,8.266,8.266,0,0,1-2.663-.68q-.639-.284-1.294-.53a10.659,10.659,0,0,0-5.829-.524,11.217,11.217,0,0,0-8.146,6.006,10.86,10.86,0,0,0-1.25,4.617,10.9,10.9,0,0,0,.219,2.926,11.219,11.219,0,0,0,5.521,7.592,11.144,11.144,0,0,0,4.926,1.484,10.9,10.9,0,0,0,3-.2,11.4,11.4,0,0,0,6.751-4.16c.068-.085.124-.179.186-.27-.031-.082-.055-.151-.084-.218-.14-.327-.293-.649-.42-.981a13.72,13.72,0,0,1-1.007-5.352c0-.037,0-.074,0-.11a7.768,7.768,0,0,0-.211-1.86,7.493,7.493,0,0,0-6.449-5.789c-.04,0-.544-.047-.544-.047s.969-.091,1.2-.08a10.091,10.091,0,0,1,3.256.716,10.5,10.5,0,0,1,6.528,8.275c.06.437.128.875.227,1.3a11.437,11.437,0,0,0,13.594,8.62,11.434,11.434,0,0,0,8.837-13.262,11.453,11.453,0,0,0-9.711-9.281,1.965,1.965,0,0,0-.276,0,.579.579,0,0,0-.067.062c-.074.1-.146.2-.218.3a14.529,14.529,0,0,1-4.623,4.2c-.118.066-.233.136-.348.206a7.636,7.636,0,0,0-2.12,1.911,7.523,7.523,0,0,0-1.528,3.885,9.1,9.1,0,0,0,.3,3.387c.032.114.131.44.131.44S-1462.141-531.829-1462.32-532.311Z" transform="translate(1492.39 568.691)" fill="#fff"/>
    </g>
  </g>
</svg>
