<svg xmlns="http://www.w3.org/2000/svg" width="63.595" height="24.88" viewBox="0 0 63.595 24.88">
  <g id="Group_193428" data-name="Group 193428" transform="translate(-346.88 -5052.726)">
    <g id="Group_193427" data-name="Group 193427" transform="translate(346.88 5052.726)">
      <circle id="Ellipse_10069" data-name="Ellipse 10069" cx="1.763" cy="1.763" r="1.763" transform="translate(16.413 9.926)" fill="#38abc8"/>
      <path id="Path_258758" data-name="Path 258758" d="M4.956,1.781A3.175,3.175,0,1,0,8.132,4.956,3.179,3.179,0,0,0,4.956,1.781M4.956,0A4.956,4.956,0,1,1,0,4.956,4.956,4.956,0,0,1,4.956,0Z" transform="translate(13.399 1.324)" fill="#38abc8"/>
      <path id="Ellipse_10067" data-name="Ellipse 10067" d="M4.926,1.781A3.146,3.146,0,1,0,8.072,4.926,3.149,3.149,0,0,0,4.926,1.781M4.926,0A4.926,4.926,0,1,1,0,4.926,4.926,4.926,0,0,1,4.926,0Z" transform="translate(8.725 9.559)" fill="#38abc8"/>
      <path id="Path_258759" data-name="Path 258759" d="M5.045,1.781A3.265,3.265,0,1,0,8.31,5.045,3.268,3.268,0,0,0,5.045,1.781M5.045,0A5.045,5.045,0,1,1,0,5.045,5.045,5.045,0,0,1,5.045,0Z" transform="translate(18.044 9.441)" fill="#38abc8"/>
      <g id="Group_193413" data-name="Group 193413">
        <path id="Path_258750" data-name="Path 258750" d="M-1965.545-568.678c.233.02.465.047.695.089a6.138,6.138,0,0,1,2.8,1.27,6.222,6.222,0,0,1,2.225,3.558,6.132,6.132,0,0,1,.146,1.421,6.333,6.333,0,0,1-.285,1.859c-.009.028-.015.057-.024.093a2.906,2.906,0,0,0,.383.106c.121.037.244.07.364.11s.249.087.372.136.234.1.348.153.234.122.353.18a2.066,2.066,0,0,0,.34.181c.006-.063.012-.118.019-.181a.4.4,0,0,1,.08-.024c.045,0,.091,0,.137,0h2.316c.065,0,.131,0,.2.006a.486.486,0,0,1,.047.182c.056.382.109.764.164,1.145.007.048.021.1.033.147.059-.025.068-.074.088-.113a3.892,3.892,0,0,1,.341-.541,3.038,3.038,0,0,1,1.681-1.115,4.652,4.652,0,0,1,1.068-.152,5.8,5.8,0,0,1,1.243.084,4.631,4.631,0,0,1,2.774,1.61,5.859,5.859,0,0,1,1.088,2.009,7.353,7.353,0,0,1,.311,1.487,8.069,8.069,0,0,1,.021,1.475,7.34,7.34,0,0,1-.667,2.626,5.3,5.3,0,0,1-1.072,1.525,4.5,4.5,0,0,1-2.266,1.21,5.637,5.637,0,0,1-1.56.1,5.03,5.03,0,0,1-1.108-.187,3.2,3.2,0,0,1-1.746-1.257c-.031-.045-.064-.088-.107-.146a.282.282,0,0,0-.028.066c0,.056,0,.112,0,.167v5.058c0,.065,0,.13,0,.2a1.4,1.4,0,0,1-.292.044c-.394.043-.787.082-1.181.121l-1.046.1c-.111.011-.222.021-.333.034a.667.667,0,0,0-.1.029h-.092c0-.055.009-.111.009-.167q0-2.354,0-4.708c0-.041,0-.081,0-.122a.626.626,0,0,0-.015-.075.49.49,0,0,0-.17.085,6.248,6.248,0,0,1-2.642.86,6.281,6.281,0,0,1-1.534-.047,6.233,6.233,0,0,1-2.459-.931,6.3,6.3,0,0,1-1.2-1.005.33.33,0,0,0-.126-.111c-.038.039-.074.075-.108.111a6.2,6.2,0,0,1-1.647,1.265,6.206,6.206,0,0,1-2.634.731c-.253.012-.508.015-.761.015h-12.907c-.051,0-.1,0-.152,0a.826.826,0,0,1-.1-.017.511.511,0,0,1-.02-.218q0-7.573,0-15.146c0-.046,0-.091,0-.137a.744.744,0,0,1,.015-.085.394.394,0,0,1,.172-.019h2.85a.7.7,0,0,1,.076,0c.029,0,.057.01.1.018,0,.081.006.157.006.232q0,6.385,0,12.769c0,.061,0,.122,0,.183a.335.335,0,0,0,.025.079c.1.012,5.232.021,5.371.01a.194.194,0,0,0,.045-.017c-.006-.063-.052-.1-.085-.142a6.245,6.245,0,0,1-1.266-3.42,6.212,6.212,0,0,1,.153-1.815,6.308,6.308,0,0,1,3.461-4.263,6.327,6.327,0,0,1,1.339-.452c.034-.008.072-.009.088-.056l-.037-.126a6.352,6.352,0,0,1-.28-1.646,6.142,6.142,0,0,1,.109-1.394,6.174,6.174,0,0,1,1.682-3.219,6.187,6.187,0,0,1,3.225-1.765,7.034,7.034,0,0,1,.844-.118A7.046,7.046,0,0,1-1965.545-568.678Zm.993,15.044a4.266,4.266,0,0,1-.252-2.066,4.321,4.321,0,0,1,.968-2.234,4.5,4.5,0,0,1,.725-.693,4.658,4.658,0,0,0,1.859-3.35,4.556,4.556,0,0,0-.181-1.793,4.73,4.73,0,0,0-4.052-3.331,4.747,4.747,0,0,0-1.32.049,4.654,4.654,0,0,0-2.82,1.65,4.61,4.61,0,0,0-1.056,2.583,4.76,4.76,0,0,0,.12,1.573,4.964,4.964,0,0,0,.212.651.147.147,0,0,0,.146.108c.091,0,.182.015.273.027a6.039,6.039,0,0,1,2.35.792,3.083,3.083,0,0,0,1.99.417,3.136,3.136,0,0,0,1.608-.673,3.173,3.173,0,0,0,1-1.375c.019-.051.079-.194.079-.194s-.022.145-.036.194a4.1,4.1,0,0,1-1.074,1.884,4.2,4.2,0,0,1-3.467,1.278,3.424,3.424,0,0,1-1.1-.281q-.264-.117-.535-.219a4.414,4.414,0,0,0-2.413-.217,4.642,4.642,0,0,0-3.371,2.486,4.486,4.486,0,0,0-.518,1.911,4.479,4.479,0,0,0,.09,1.211,4.642,4.642,0,0,0,2.285,3.142,4.607,4.607,0,0,0,2.039.614,4.512,4.512,0,0,0,1.243-.084,4.717,4.717,0,0,0,2.794-1.722c.028-.035.051-.074.077-.112-.013-.034-.023-.062-.035-.09-.058-.135-.121-.269-.174-.406a5.677,5.677,0,0,1-.417-2.215c0-.015,0-.031,0-.046a3.229,3.229,0,0,0-.088-.77,3.1,3.1,0,0,0-2.669-2.4l-.225-.019s.4-.038.5-.033a4.171,4.171,0,0,1,1.348.3,4.348,4.348,0,0,1,2.7,3.425c.025.181.053.362.094.54a4.735,4.735,0,0,0,5.627,3.568,4.733,4.733,0,0,0,3.658-5.489,4.741,4.741,0,0,0-4.02-3.841.8.8,0,0,0-.114,0,.208.208,0,0,0-.028.026l-.09.123a6.016,6.016,0,0,1-1.914,1.738c-.049.027-.1.056-.144.085a3.156,3.156,0,0,0-.877.791,3.112,3.112,0,0,0-.633,1.608,3.774,3.774,0,0,0,.124,1.4c.013.047.054.182.054.182S-1964.478-553.433-1964.552-553.633Zm9.752-.448c0,.152.008.3.014.457a5.628,5.628,0,0,0,.185,1.231,3.344,3.344,0,0,0,.483,1.061,2.36,2.36,0,0,0,1.226.908,3.114,3.114,0,0,0,1.337.133,2.378,2.378,0,0,0,1.73-1.016,3.127,3.127,0,0,0,.385-.741,5.285,5.285,0,0,0,.3-1.609,8.281,8.281,0,0,0-.021-1.141,5.977,5.977,0,0,0-.161-.959,3.417,3.417,0,0,0-.5-1.121,2.362,2.362,0,0,0-1.295-.935,3.047,3.047,0,0,0-.978-.116,2.588,2.588,0,0,0-1.071.263,2.531,2.531,0,0,0-1.095,1.067,3.808,3.808,0,0,0-.375.978A6.64,6.64,0,0,0-1954.8-554.081Z" transform="translate(1984.297 568.691)" fill="#fff"/>
        <path id="Path_258751" data-name="Path 258751" d="M1504.137,51.08c-.017-.105-.036-.21-.05-.315q-.107-.807-.211-1.615a.774.774,0,0,1-.014-.249c.053,0,.1-.006.152-.006h1.311a4.75,4.75,0,0,0,.7-.033c.09-.014.181-.026.27-.046a1.415,1.415,0,0,0,.838-.544,2.9,2.9,0,0,0,.3-.5,7.949,7.949,0,0,0,.4-1.037c.037-.116.065-.235.106-.349a.3.3,0,0,0-.013-.234c-.238-.566-.473-1.133-.71-1.7l-3.78-9.078c-.025-.06-.048-.121-.07-.175.021-.044.054-.039.082-.041s.081,0,.122,0h2.635c.065,0,.13,0,.2.008.028.068.055.127.079.188l2.562,6.467q.165.417.332.835c.016.041.036.08.054.12.061-.015.059-.064.071-.1.1-.273.188-.547.281-.821l2.23-6.54c.016-.047.036-.094.051-.134a.364.364,0,0,1,.188-.024h2.773c.06,0,.121.006.182.01v.03a.744.744,0,0,0-.09.222q-2.29,5.949-4.577,11.9a12.634,12.634,0,0,1-.583,1.322,6.3,6.3,0,0,1-.621.974,3.471,3.471,0,0,1-1.8,1.233,5.5,5.5,0,0,1-1.169.194.6.6,0,0,0-.239.033Z" transform="translate(-1451.606 -26.2)" fill="#fff"/>
        <path id="Path_258752" data-name="Path 258752" d="M933.089-247.159c.126-.018,2.07-.022,2.255-.005a.418.418,0,0,1,.023.08c0,.05,0,.1,0,.152q0,1.866,0,3.733a.5.5,0,0,0,.017.2.464.464,0,0,0,.181.017h2.438c.055,0,.111,0,.175.006a.67.67,0,0,1,.024.1c0,.061,0,.122,0,.183q0,.655,0,1.31c0,.06,0,.121-.005.186a.494.494,0,0,1-.091.026c-.05,0-.1,0-.152,0H935.6c-.065,0-.131,0-.2,0a.542.542,0,0,0-.023.091c0,.045,0,.091,0,.137q0,2.415,0,4.83c0,.269.008.538.022.807a3.317,3.317,0,0,0,.088.648c.017.069.037.137.061.2a.99.99,0,0,0,.663.643,2.244,2.244,0,0,0,.416.091,3.337,3.337,0,0,0,.76.018c.2-.023.4-.029.593-.041.05,0,.1,0,.151,0a.273.273,0,0,1,.023.063q.083,1.04.164,2.08a.508.508,0,0,1-.007.078.45.45,0,0,1-.075.02c-.379.034-.759.065-1.138.1a6.015,6.015,0,0,1-.761.019,6.672,6.672,0,0,1-1.566-.208,3.682,3.682,0,0,1-.682-.26,2.657,2.657,0,0,1-1.154-1.115,4.06,4.06,0,0,1-.393-1.084,7.874,7.874,0,0,1-.16-1.13c-.037-.5-.048-1-.048-1.507q0-2.133,0-4.266a.757.757,0,0,0-.01-.2.27.27,0,0,0-.165-.025c-.213,0-.427,0-.64,0h-.99a.324.324,0,0,1-.174-.024,4.266,4.266,0,0,1,.035-.446c.011-.147.03-.293.044-.439s.021-.3.042-.455a3.063,3.063,0,0,1,.052-.432.436.436,0,0,1,.189-.021h1.417c.06,0,.12,0,.185-.005a.534.534,0,0,0,.034-.089q.172-.951.342-1.9.16-.891.322-1.782c.015-.085.028-.17.045-.255C933.064-247.067,933.078-247.114,933.089-247.159Z" transform="translate(-887.099 251.945)" fill="#fff"/>
        <path id="Path_258753" data-name="Path 258753" d="M662.233,46.638c-.159.031-2.01.043-2.9.022-.039,0-.079-.008-.119-.012a.307.307,0,0,1-.016-.065q0-5.659,0-11.318a.218.218,0,0,1,.013-.054.226.226,0,0,1,.152-.027c.239,0,.477,0,.716,0h1.935c.065,0,.13,0,.2.007a.733.733,0,0,1,.02.095c0,.045,0,.091,0,.137q0,5.5,0,11C662.238,46.491,662.235,46.561,662.233,46.638Z" transform="translate(-619.975 -26.222)" fill="#fff"/>
        <path id="Path_258754" data-name="Path 258754" d="M659.028-268.244c.039,0,.083-.007.128-.008,1.341-.012,2.778,0,2.891.016a.063.063,0,0,1,.01.011.032.032,0,0,1,0,.015q0,1.119.005,2.239c0,.056,0,.112,0,.167a.169.169,0,0,1-.014.038.775.775,0,0,1-.08.016.894.894,0,0,1-.091,0H659.2c-.055,0-.11,0-.156-.005a.188.188,0,0,1-.036-.155c0-.295,0-.589,0-.884,0-.426,0-.853,0-1.28A.293.293,0,0,1,659.028-268.244Z" transform="translate(-619.779 272.715)" fill="#fff"/>
      </g>
    </g>
  </g>
</svg>
