<svg xmlns="http://www.w3.org/2000/svg" width="140.583" height="55" viewBox="0 0 140.583 55"><g transform="translate(-346.88 -5052.726)"><g transform="translate(346.88 5052.726)"><circle cx="3.897" cy="3.897" r="3.897" transform="translate(36.282 21.943)" fill="#38abc8"/><path d="M10.956,3.936a7.02,7.02,0,1,0,7.02,7.02,7.028,7.028,0,0,0-7.02-7.02m0-3.936A10.956,10.956,0,1,1,0,10.956,10.956,10.956,0,0,1,10.956,0Z" transform="translate(29.62 2.927)" fill="#38abc8"/><path d="M10.89,3.936a6.954,6.954,0,1,0,6.954,6.954A6.962,6.962,0,0,0,10.89,3.936M10.89,0A10.89,10.89,0,1,1,0,10.89,10.89,10.89,0,0,1,10.89,0Z" transform="translate(19.288 21.132)" fill="#38abc8"/><path d="M11.153,3.936a7.216,7.216,0,1,0,7.216,7.216,7.225,7.225,0,0,0-7.216-7.216m0-3.936A11.153,11.153,0,1,1,0,11.153,11.153,11.153,0,0,1,11.153,0Z" transform="translate(39.887 20.87)" fill="#38abc8"/><path d="M-1942.842-568.661c.515.043,1.026.1,1.535.2a13.566,13.566,0,0,1,6.188,2.808,13.758,13.758,0,0,1,4.919,7.866,13.621,13.621,0,0,1,.323,3.141,14.014,14.014,0,0,1-.63,4.109c-.02.062-.032.127-.052.2a6.451,6.451,0,0,0,.847.234c.268.082.539.156.8.245s.551.192.822.3.517.217.77.338.518.269.779.4a4.567,4.567,0,0,0,.752.4c.014-.14.027-.261.042-.4a.89.89,0,0,1,.176-.053c.1-.01.2-.005.3-.005h5.12c.144,0,.288.009.434.013a1.074,1.074,0,0,1,.1.4c.123.844.24,1.688.362,2.532.016.107.047.212.072.325.13-.055.149-.164.194-.249a8.655,8.655,0,0,1,.753-1.2,6.718,6.718,0,0,1,3.716-2.466,10.3,10.3,0,0,1,2.361-.337,12.809,12.809,0,0,1,2.749.187,10.234,10.234,0,0,1,6.132,3.559,12.934,12.934,0,0,1,2.406,4.441,16.3,16.3,0,0,1,.688,3.287,17.812,17.812,0,0,1,.045,3.261,16.214,16.214,0,0,1-1.474,5.8,11.688,11.688,0,0,1-2.369,3.371,9.955,9.955,0,0,1-5.008,2.674,12.466,12.466,0,0,1-3.449.225,11.148,11.148,0,0,1-2.45-.414,7.073,7.073,0,0,1-3.859-2.778c-.069-.1-.142-.2-.237-.324a.583.583,0,0,0-.062.145c-.007.123-.006.247-.006.37q0,5.591,0,11.181c0,.144,0,.289-.007.443a3.059,3.059,0,0,1-.644.1c-.87.095-1.741.181-2.612.268-.77.077-1.541.151-2.312.226-.246.024-.492.046-.737.075a1.447,1.447,0,0,0-.225.063h-.2c.006-.123.019-.246.019-.368q0-5.2,0-10.408c0-.09,0-.18,0-.269a1.233,1.233,0,0,0-.032-.165,1.083,1.083,0,0,0-.375.188,13.808,13.808,0,0,1-5.841,1.9,13.875,13.875,0,0,1-3.391-.1,13.774,13.774,0,0,1-5.436-2.059,13.951,13.951,0,0,1-2.652-2.223.734.734,0,0,0-.279-.245c-.085.087-.164.165-.239.246a13.7,13.7,0,0,1-3.642,2.8,13.713,13.713,0,0,1-5.823,1.615c-.56.027-1.122.033-1.683.033q-14.266,0-28.533,0c-.112,0-.225,0-.337,0a1.84,1.84,0,0,1-.219-.038,1.136,1.136,0,0,1-.044-.482q0-16.741,0-33.481c0-.1,0-.2,0-.3a1.6,1.6,0,0,1,.034-.188.87.87,0,0,1,.381-.043h6.3a1.547,1.547,0,0,1,.168,0c.064.007.127.023.21.039,0,.18.014.346.014.512q0,14.113,0,28.227c0,.135,0,.27.005.4a.746.746,0,0,0,.055.174c.224.027,11.566.047,11.874.022a.42.42,0,0,0,.1-.039c-.013-.14-.116-.22-.187-.314a13.806,13.806,0,0,1-2.8-7.561,13.7,13.7,0,0,1,.338-4.013,13.943,13.943,0,0,1,7.651-9.425,14.011,14.011,0,0,1,2.959-1c.076-.017.159-.019.2-.124-.025-.086-.053-.182-.082-.278a14.05,14.05,0,0,1-.618-3.64,13.541,13.541,0,0,1,.242-3.081,13.653,13.653,0,0,1,3.718-7.116,13.679,13.679,0,0,1,7.129-3.9,15.525,15.525,0,0,1,1.866-.26A15.548,15.548,0,0,1-1942.842-568.661Zm2.194,33.257a9.436,9.436,0,0,1-.557-4.567,9.557,9.557,0,0,1,2.141-4.939,9.948,9.948,0,0,1,1.6-1.532,10.3,10.3,0,0,0,4.109-7.4,10.064,10.064,0,0,0-.4-3.963,10.454,10.454,0,0,0-8.957-7.364,10.515,10.515,0,0,0-2.918.108,10.288,10.288,0,0,0-6.233,3.648,10.184,10.184,0,0,0-2.334,5.71,10.519,10.519,0,0,0,.265,3.477,10.914,10.914,0,0,0,.468,1.439.325.325,0,0,0,.321.239c.2.005.4.034.6.059a13.346,13.346,0,0,1,5.2,1.75,6.815,6.815,0,0,0,4.4.922,6.938,6.938,0,0,0,3.554-1.488,7.013,7.013,0,0,0,2.213-3.039c.043-.113.174-.428.174-.428s-.05.321-.079.429a9.073,9.073,0,0,1-2.375,4.166,9.278,9.278,0,0,1-7.665,2.825,7.563,7.563,0,0,1-2.437-.622q-.584-.26-1.184-.485a9.757,9.757,0,0,0-5.334-.479,10.263,10.263,0,0,0-7.453,5.5,9.936,9.936,0,0,0-1.144,4.224,9.963,9.963,0,0,0,.2,2.678,10.265,10.265,0,0,0,5.051,6.946,10.2,10.2,0,0,0,4.507,1.358,9.968,9.968,0,0,0,2.747-.187,10.427,10.427,0,0,0,6.177-3.806c.062-.078.113-.164.17-.247-.029-.075-.051-.138-.077-.2-.128-.3-.268-.594-.384-.9a12.546,12.546,0,0,1-.921-4.9c0-.034,0-.067,0-.1a7.117,7.117,0,0,0-.193-1.7,6.856,6.856,0,0,0-5.9-5.3c-.037,0-.5-.043-.5-.043s.886-.083,1.1-.073a9.233,9.233,0,0,1,2.979.655,9.61,9.61,0,0,1,5.973,7.572c.055.4.117.8.207,1.194a10.465,10.465,0,0,0,12.439,7.887,10.462,10.462,0,0,0,8.086-12.135,10.48,10.48,0,0,0-8.886-8.492,1.805,1.805,0,0,0-.253,0,.562.562,0,0,0-.061.057c-.067.09-.133.181-.2.271a13.294,13.294,0,0,1-4.23,3.842c-.108.06-.213.124-.319.189a6.984,6.984,0,0,0-1.94,1.749,6.883,6.883,0,0,0-1.4,3.555,8.333,8.333,0,0,0,.274,3.1c.03.1.12.4.12.4S-1940.484-534.963-1940.648-535.4Zm21.558-.991c.01.337.016.673.031,1.009a12.416,12.416,0,0,0,.41,2.722,7.37,7.37,0,0,0,1.066,2.346,5.218,5.218,0,0,0,2.71,2.008,6.882,6.882,0,0,0,2.957.293,5.257,5.257,0,0,0,3.824-2.247,6.929,6.929,0,0,0,.851-1.637,11.656,11.656,0,0,0,.666-3.557,18.3,18.3,0,0,0-.045-2.522,13.223,13.223,0,0,0-.355-2.12,7.574,7.574,0,0,0-1.1-2.477,5.221,5.221,0,0,0-2.863-2.066,6.734,6.734,0,0,0-2.162-.257,5.716,5.716,0,0,0-2.366.582,5.6,5.6,0,0,0-2.421,2.359,8.475,8.475,0,0,0-.827,2.161A14.682,14.682,0,0,0-1919.09-536.4Z" transform="translate(1984.297 568.691)" fill="#204478"/><path d="M1505.08,70.352c-.037-.232-.079-.464-.11-.7q-.237-1.785-.468-3.57a1.747,1.747,0,0,1-.031-.55c.118-.005.227-.014.337-.014.966,0,1.931,0,2.9,0a10.5,10.5,0,0,0,1.546-.073c.2-.03.4-.058.6-.1a3.129,3.129,0,0,0,1.852-1.2,6.414,6.414,0,0,0,.657-1.1,17.473,17.473,0,0,0,.875-2.293c.083-.256.145-.519.236-.772a.667.667,0,0,0-.029-.518c-.526-1.251-1.046-2.5-1.568-3.758l-8.357-20.067c-.055-.133-.107-.268-.155-.387.046-.1.118-.087.182-.09.089,0,.18,0,.269,0h5.826c.144,0,.288.011.441.017.063.15.121.282.175.416l5.663,14.3q.366.923.733,1.845c.036.09.08.177.12.264.135-.032.13-.141.157-.217.211-.6.416-1.209.622-1.814q2.465-7.228,4.931-14.457c.036-.1.078-.207.113-.3a.805.805,0,0,1,.417-.053q1.516,0,3.031,0,1.549,0,3.1,0c.134,0,.268.014.4.022v.067a1.661,1.661,0,0,0-.2.492q-5.062,13.151-10.117,26.3a27.721,27.721,0,0,1-1.289,2.922,13.869,13.869,0,0,1-1.373,2.154,7.673,7.673,0,0,1-3.988,2.726,12.139,12.139,0,0,1-2.583.429,1.32,1.32,0,0,0-.529.073Z" transform="translate(-1388.956 -15.352)" fill="#204478"/><path d="M936.407-247.14c.28-.039,4.575-.048,4.986-.012a.871.871,0,0,1,.051.176c.009.112.005.224.005.337q0,4.126,0,8.251a1.11,1.11,0,0,0,.039.438,1.027,1.027,0,0,0,.4.038h3.671q.859,0,1.718,0c.122,0,.245.008.386.013a1.451,1.451,0,0,1,.054.231c.009.134,0,.269,0,.4q0,1.448,0,2.9c0,.134-.007.267-.011.412a1.1,1.1,0,0,1-.2.058c-.111.01-.224.006-.337.006h-5.221c-.145,0-.29.007-.447.01a1.282,1.282,0,0,0-.051.2c-.009.1,0,.2,0,.3q0,5.338,0,10.676c0,.595.018,1.19.048,1.784a7.32,7.32,0,0,0,.195,1.432c.038.152.083.3.136.451a2.186,2.186,0,0,0,1.466,1.421,4.952,4.952,0,0,0,.918.2,7.371,7.371,0,0,0,1.68.04c.434-.05.873-.063,1.31-.09.11-.007.221,0,.335,0a.624.624,0,0,1,.05.139q.184,2.3.363,4.6a1.078,1.078,0,0,1-.015.172,1.008,1.008,0,0,1-.166.045c-.838.075-1.677.145-2.515.222a13.316,13.316,0,0,1-1.682.042,14.747,14.747,0,0,1-3.462-.46,8.15,8.15,0,0,1-1.507-.575,5.873,5.873,0,0,1-2.551-2.465,8.976,8.976,0,0,1-.869-2.4,17.442,17.442,0,0,1-.353-2.5c-.083-1.109-.107-2.22-.107-3.331q0-4.715,0-9.43a1.686,1.686,0,0,0-.022-.434.6.6,0,0,0-.364-.056c-.472,0-.943,0-1.415,0-.73,0-1.46,0-2.189,0a.715.715,0,0,1-.384-.053,9.357,9.357,0,0,1,.076-.986c.025-.324.066-.647.1-.971s.045-.673.093-1.005a6.809,6.809,0,0,1,.115-.955.963.963,0,0,1,.419-.047q1.566,0,3.132,0c.133,0,.266-.007.409-.012a1.207,1.207,0,0,0,.074-.2q.38-2.1.756-4.206.355-1.97.712-3.94c.034-.188.062-.376.1-.564C936.352-246.936,936.383-247.042,936.407-247.14Z" transform="translate(-834.742 257.721)" fill="#204478"/><path d="M665.9,60.506c-.352.069-4.445.095-6.4.048-.087,0-.174-.018-.263-.027a.675.675,0,0,1-.036-.145q0-12.509,0-25.019a.482.482,0,0,1,.029-.119.5.5,0,0,1,.336-.059c.528,0,1.055,0,1.583,0h4.277c.144,0,.288.01.443.016a1.652,1.652,0,0,1,.044.21c.007.1,0,.2,0,.3q0,12.156,0,24.312C665.915,60.181,665.908,60.336,665.9,60.506Z" transform="translate(-572.488 -15.374)" fill="#204478"/><path d="M659.06-268.228c.086-.005.184-.016.282-.017,2.965-.027,6.142-.008,6.39.036a.13.13,0,0,1,.023.024.068.068,0,0,1,.008.032q.006,2.475.011,4.949c0,.123,0,.247-.008.37a.372.372,0,0,1-.03.084,1.687,1.687,0,0,1-.176.035,1.962,1.962,0,0,1-.2,0h-5.927c-.122,0-.244-.008-.346-.012a.418.418,0,0,1-.079-.342c0-.651,0-1.3,0-1.953q0-1.414,0-2.829A.648.648,0,0,1,659.06-268.228Z" transform="translate(-572.296 278.112)" fill="#204478"/></g></g></svg>