<svg xmlns="http://www.w3.org/2000/svg" width="264.072" height="224.039" viewBox="0 0 264.072 224.039">
  <g id="Group_193380" data-name="Group 193380" transform="translate(-190.166 -239.698)">
    <g id="Background_Complete" data-name="Background Complete" transform="translate(13.77 44.597)">
      <g id="Group_192747" data-name="Group 192747" transform="translate(81 135)">
        <circle id="Ellipse_10016" data-name="Ellipse 10016" cx="25.244" cy="25.244" r="25.244" transform="translate(291.068 111.605) rotate(-61.668)" fill="#f5f5f5"/>
        <g id="Group_192743" data-name="Group 192743">
          <path id="Path_258599" data-name="Path 258599" d="M316.559,95c.956-.079,1.824.977,1.938,2.358s-.569,2.564-1.526,2.643-1.825-.977-1.938-2.358S315.6,95.084,316.559,95Z" fill="#e0e0e0"/>
          <g id="Group_192742" data-name="Group 192742">
            <path id="Path_258600" data-name="Path 258600" d="M318.779,88.614c-.018.217-2.132.017-4.5.912-2.38.855-3.857,2.379-4.013,2.225-.163-.091,1.184-1.97,3.762-2.906C316.6,87.884,318.844,88.439,318.779,88.614Z" fill="#e0e0e0"/>
          </g>
        </g>
        <g id="Group_192745" data-name="Group 192745">
          <path id="Path_258601" data-name="Path 258601" d="M332.608,94.675c-.959-.04-1.782,1.05-1.84,2.435s.675,2.538,1.635,2.578,1.782-1.052,1.839-2.436S333.567,94.713,332.608,94.675Z" fill="#e0e0e0"/>
          <g id="Group_192744" data-name="Group 192744">
            <path id="Path_258602" data-name="Path 258602" d="M330.126,88.38c-.072-.172,2.148-.82,4.753.036,2.615.828,4.037,2.65,3.878,2.748-.149.16-1.687-1.3-4.1-2.058C332.257,88.309,330.154,88.6,330.126,88.38Z" fill="#e0e0e0"/>
          </g>
        </g>
        <g id="Group_192746" data-name="Group 192746">
          <path id="Path_258603" data-name="Path 258603" d="M337.722,101.108a3.97,3.97,0,0,1-.176,1.352,11.478,11.478,0,0,1-1.466,3.427,13.392,13.392,0,0,1-3.85,3.983,12.213,12.213,0,0,1-13.029.679,13.365,13.365,0,0,1-4.242-3.564,11.444,11.444,0,0,1-1.814-3.255,4,4,0,0,1-.316-1.326,19.027,19.027,0,0,0,2.527,4.257,13.57,13.57,0,0,0,4.156,3.3,11.864,11.864,0,0,0,12.347-.643,13.561,13.561,0,0,0,3.791-3.708A18.974,18.974,0,0,0,337.722,101.108Z" fill="#e0e0e0"/>
        </g>
      </g>
      <path id="Path_258604" data-name="Path 258604" d="M300.315,217.683a3.541,3.541,0,0,0-4.946-.238,6.054,6.054,0,0,0-2.248,4.566,6.168,6.168,0,0,0-2.957-4.224,3.585,3.585,0,0,0-4.909.886,4.737,4.737,0,0,0-.505,3.412,6.522,6.522,0,0,0,1.421,3.191c2.768,2.947,4.2,3.409,7.634,5.407,3.119-2.428,4.13-3.05,6.468-6.334a6.533,6.533,0,0,0,.983-3.348A4.767,4.767,0,0,0,300.315,217.683Z" transform="translate(-26 -21.455)" fill="#e0e0e0"/>
      <path id="Path_258605" data-name="Path 258605" d="M154.07,406.141a3.541,3.541,0,0,0-4.946-.239,6.054,6.054,0,0,0-2.248,4.566,6.17,6.17,0,0,0-2.957-4.224,3.585,3.585,0,0,0-4.909.886,4.737,4.737,0,0,0-.5,3.412,6.52,6.52,0,0,0,1.422,3.191c2.767,2.948,4.2,3.41,7.633,5.407,3.119-2.428,4.13-3.05,6.469-6.333a6.553,6.553,0,0,0,.983-3.349A4.77,4.77,0,0,0,154.07,406.141Z" transform="translate(38)" fill="#e0e0e0"/>
    </g>
    <g id="Character_2" data-name="Character 2">
      <g id="Group_193161" data-name="Group 193161">
        <path id="Path_258660" data-name="Path 258660" d="M395.125,325.013l-35.307,5.952a75.193,75.193,0,1,0,18.826,24.552Z" fill="#e8edee"/>
        <g id="Group_192938" data-name="Group 192938">
          <g id="Group_192934" data-name="Group 192934">
            <g id="Group_192929" data-name="Group 192929">
              <g id="Group_192928" data-name="Group 192928">
                <path id="Path_258661" data-name="Path 258661" d="M240.388,308.895a1.961,1.961,0,1,0,1.961-1.961A1.961,1.961,0,0,0,240.388,308.895Z" fill="#263238"/>
              </g>
            </g>
            <g id="Group_192931" data-name="Group 192931">
              <g id="Group_192930" data-name="Group 192930">
                <path id="Path_258662" data-name="Path 258662" d="M232.544,308.895a1.96,1.96,0,1,0,1.961-1.961A1.961,1.961,0,0,0,232.544,308.895Z" fill="#263238"/>
              </g>
            </g>
            <g id="Group_192933" data-name="Group 192933">
              <g id="Group_192932" data-name="Group 192932">
                <path id="Path_258663" data-name="Path 258663" d="M224.72,307.915a1.961,1.961,0,1,0,2.678-.718A1.959,1.959,0,0,0,224.72,307.915Z" fill="#263238"/>
              </g>
            </g>
          </g>
          <g id="Group_192937" data-name="Group 192937">
            <g id="Group_192936" data-name="Group 192936">
              <g id="Group_192935" data-name="Group 192935">
                <path id="Path_258664" data-name="Path 258664" d="M234.383,286a2.319,2.319,0,0,1-.395.046l-1.159.085c-.254.02-.54.028-.852.063l-1.018.168-1.186.194-1.323.353a21.822,21.822,0,0,0-6.387,2.879,22.672,22.672,0,0,0-10.252,17.017,23.553,23.553,0,0,0-.049,3.081c.039.52.03,1.05.108,1.574s.163,1.052.245,1.584a22.62,22.62,0,0,0,2.158,6.252,24.158,24.158,0,0,0,4.1,5.611,23.672,23.672,0,0,0,5.889,4.215,21.382,21.382,0,0,0,7.167,2.192,14.293,14.293,0,0,0,1.911.161,17.279,17.279,0,0,0,1.932.035,22.991,22.991,0,0,0,3.868-.49,22.639,22.639,0,0,0,7.7-3.238l.114-.075.126.051,8.021,3.23-.339.3-2.342-8.585-.032-.116.073-.1a22.623,22.623,0,0,0,4.224-9.591,20.493,20.493,0,0,0,.325-4.924,15.677,15.677,0,0,0-.213-2.369q-.087-.58-.172-1.153c-.069-.38-.183-.747-.271-1.117a22.824,22.824,0,0,0-18.249-16.929c-.6-.089-1.128-.206-1.592-.242l-1.171-.079-.718-.057a1.112,1.112,0,0,1-.243-.033,1.075,1.075,0,0,1,.244-.009l.72.016,1.18.04c.467.023,1,.128,1.607.2.3.046.625.08.959.145l1.043.258,1.139.289,1.2.43a21.941,21.941,0,0,1,5.329,2.811,22.949,22.949,0,0,1,8.954,13.054c.091.376.209.75.281,1.136s.121.78.182,1.174a16.1,16.1,0,0,1,.228,2.412,20.89,20.89,0,0,1-.312,5.023,23.039,23.039,0,0,1-4.283,9.805l.041-.212q1.142,4.155,2.359,8.58l.135.493-.475-.191-8.025-3.221.239-.024a23.138,23.138,0,0,1-7.879,3.316,23.442,23.442,0,0,1-3.958.5,17.826,17.826,0,0,1-1.976-.035,14.638,14.638,0,0,1-1.955-.167,21.836,21.836,0,0,1-7.328-2.249,24.111,24.111,0,0,1-6.012-4.319,24.616,24.616,0,0,1-4.173-5.742,23.041,23.041,0,0,1-2.182-6.389l-.244-1.617c-.077-.535-.067-1.075-.1-1.606a22.669,22.669,0,0,1,3.873-13.822,23.313,23.313,0,0,1,6.715-6.539,21.7,21.7,0,0,1,6.493-2.831l1.339-.332,1.2-.173,1.028-.144c.314-.026.6-.026.858-.038l1.165-.033A2.241,2.241,0,0,1,234.383,286Z" fill="#263238"/>
              </g>
            </g>
          </g>
        </g>
        <g id="Group_193160" data-name="Group 193160">
          <g id="Group_193075" data-name="Group 193075">
            <g id="Group_192940" data-name="Group 192940">
              <g id="Group_192939" data-name="Group 192939">
                <path id="Path_258665" data-name="Path 258665" d="M318.837,272.139a12.036,12.036,0,0,1,21.6-.721c1.247,2.348,1.739,5.144,3.543,7.1a7.042,7.042,0,0,0,9.051.847,6.127,6.127,0,0,1-3.823,7.06l4.422.453c-2.386,5.207-8.919,7.592-14.568,6.575s-10.448-4.753-14.292-9" fill="#263238"/>
              </g>
            </g>
            <g id="Group_193060" data-name="Group 193060">
              <g id="Group_192942" data-name="Group 192942">
                <g id="Group_192941" data-name="Group 192941">
                  <path id="Path_258666" data-name="Path 258666" d="M318.869,272.212l13.642,4.467a26.564,26.564,0,0,1,10.5,13.258c.639,1.841,1.074,3.756,1.881,5.529a8.17,8.17,0,0,0,3.841,4.239c1.311.585,2.8.653,4.144,1.15a7.572,7.572,0,0,1,4.577,5.277,9.169,9.169,0,0,1-1.237,6.964c-.646,1.027-1.507,2.023-1.563,3.235a8.762,8.762,0,0,0,.5,2.4,6.6,6.6,0,0,1-10.838,6.437c-.873,2-2.033,4.065-4.009,5.007s-4.892.1-5.3-2.05a5.221,5.221,0,0,1-9.918-1.878L287.7,285.469C293.283,270.55,315.1,271.869,318.869,272.212Z" fill="#263238"/>
                </g>
              </g>
              <g id="Group_193059" data-name="Group 193059">
                <g id="Group_193058" data-name="Group 193058">
                  <g id="Group_193041" data-name="Group 193041">
                    <g id="Group_193040" data-name="Group 193040">
                      <g id="Group_193023" data-name="Group 193023">
                        <g id="Group_193022" data-name="Group 193022">
                          <g id="Group_193021" data-name="Group 193021">
                            <g id="Group_192950" data-name="Group 192950">
                              <g id="Group_192949" data-name="Group 192949">
                                <g id="Group_192948" data-name="Group 192948">
                                  <g id="Group_192947" data-name="Group 192947">
                                    <g id="Group_192946" data-name="Group 192946">
                                      <g id="Group_192945" data-name="Group 192945">
                                        <g id="Group_192944" data-name="Group 192944">
                                          <g id="Group_192943" data-name="Group 192943">
                                            <path id="Path_258667" data-name="Path 258667" d="M325.2,286.4a4.654,4.654,0,0,1,4.17,4.715h0L326.729,353.9c-.1,7.415-13.589,16.182-21.548,16.015h0c-8.039-.169-5.675-8.677-5.791-15.731-.194-11.785-.19-16.209-.194-16.142,0,0-10.157-1.682-12.261-14.9-1.046-6.573-.715-17.35-.159-26.159.5-7.929,5.768-17.658,13.689-16.822Z" fill="#ffbe9d"/>
                                          </g>
                                        </g>
                                      </g>
                                    </g>
                                  </g>
                                </g>
                              </g>
                            </g>
                            <g id="Group_192968" data-name="Group 192968">
                              <g id="Group_192958" data-name="Group 192958">
                                <g id="Group_192957" data-name="Group 192957">
                                  <g id="Group_192956" data-name="Group 192956">
                                    <g id="Group_192955" data-name="Group 192955">
                                      <g id="Group_192954" data-name="Group 192954">
                                        <g id="Group_192953" data-name="Group 192953">
                                          <g id="Group_192952" data-name="Group 192952">
                                            <g id="Group_192951" data-name="Group 192951">
                                              <path id="Path_258668" data-name="Path 258668" d="M290.219,305.538a1.7,1.7,0,0,0,1.638,1.711,1.624,1.624,0,0,0,1.752-1.529,1.7,1.7,0,0,0-1.636-1.711A1.626,1.626,0,0,0,290.219,305.538Z" fill="#263238"/>
                                            </g>
                                          </g>
                                        </g>
                                      </g>
                                    </g>
                                  </g>
                                </g>
                              </g>
                              <g id="Group_192967" data-name="Group 192967">
                                <g id="Group_192966" data-name="Group 192966">
                                  <g id="Group_192965" data-name="Group 192965">
                                    <g id="Group_192964" data-name="Group 192964">
                                      <g id="Group_192963" data-name="Group 192963">
                                        <g id="Group_192962" data-name="Group 192962">
                                          <g id="Group_192961" data-name="Group 192961">
                                            <g id="Group_192960" data-name="Group 192960">
                                              <g id="Group_192959" data-name="Group 192959">
                                                <path id="Path_258669" data-name="Path 258669" d="M289.12,302.589c.211.221,1.5-.729,3.327-.724,1.827-.021,3.169.917,3.367.693.1-.1-.117-.5-.7-.922a4.68,4.68,0,0,0-2.7-.829,4.492,4.492,0,0,0-2.648.853C289.207,302.09,289.016,302.49,289.12,302.589Z" fill="#263238"/>
                                              </g>
                                            </g>
                                          </g>
                                        </g>
                                      </g>
                                    </g>
                                  </g>
                                </g>
                              </g>
                            </g>
                            <g id="Group_192986" data-name="Group 192986">
                              <g id="Group_192976" data-name="Group 192976">
                                <g id="Group_192975" data-name="Group 192975">
                                  <g id="Group_192974" data-name="Group 192974">
                                    <g id="Group_192973" data-name="Group 192973">
                                      <g id="Group_192972" data-name="Group 192972">
                                        <g id="Group_192971" data-name="Group 192971">
                                          <g id="Group_192970" data-name="Group 192970">
                                            <g id="Group_192969" data-name="Group 192969">
                                              <path id="Path_258670" data-name="Path 258670" d="M308.1,305.538a1.7,1.7,0,0,0,1.639,1.711,1.623,1.623,0,0,0,1.751-1.529,1.7,1.7,0,0,0-1.637-1.711A1.625,1.625,0,0,0,308.1,305.538Z" fill="#263238"/>
                                            </g>
                                          </g>
                                        </g>
                                      </g>
                                    </g>
                                  </g>
                                </g>
                              </g>
                              <g id="Group_192985" data-name="Group 192985">
                                <g id="Group_192984" data-name="Group 192984">
                                  <g id="Group_192983" data-name="Group 192983">
                                    <g id="Group_192982" data-name="Group 192982">
                                      <g id="Group_192981" data-name="Group 192981">
                                        <g id="Group_192980" data-name="Group 192980">
                                          <g id="Group_192979" data-name="Group 192979">
                                            <g id="Group_192978" data-name="Group 192978">
                                              <g id="Group_192977" data-name="Group 192977">
                                                <path id="Path_258671" data-name="Path 258671" d="M307.1,302.93c.211.221,1.5-.73,3.327-.725,1.827-.021,3.17.917,3.368.694.1-.1-.115-.5-.7-.922a4.664,4.664,0,0,0-2.695-.829,4.482,4.482,0,0,0-2.649.853C307.185,302.431,306.993,302.831,307.1,302.93Z" fill="#263238"/>
                                              </g>
                                            </g>
                                          </g>
                                        </g>
                                      </g>
                                    </g>
                                  </g>
                                </g>
                              </g>
                            </g>
                            <g id="Group_192995" data-name="Group 192995">
                              <g id="Group_192994" data-name="Group 192994">
                                <g id="Group_192993" data-name="Group 192993">
                                  <g id="Group_192992" data-name="Group 192992">
                                    <g id="Group_192991" data-name="Group 192991">
                                      <g id="Group_192990" data-name="Group 192990">
                                        <g id="Group_192989" data-name="Group 192989">
                                          <g id="Group_192988" data-name="Group 192988">
                                            <g id="Group_192987" data-name="Group 192987">
                                              <path id="Path_258672" data-name="Path 258672" d="M300.459,316.457a12.093,12.093,0,0,0-2.97-.535c-.467-.048-.909-.141-.988-.458a2.37,2.37,0,0,1,.312-1.381q.659-1.691,1.381-3.547c1.918-5.049,3.306-9.2,3.1-9.277s-1.926,3.957-3.843,9.007q-.693,1.867-1.323,3.568a2.683,2.683,0,0,0-.242,1.828,1.17,1.17,0,0,0,.767.681,3.2,3.2,0,0,0,.794.11A11.989,11.989,0,0,0,300.459,316.457Z" fill="#263238"/>
                                            </g>
                                          </g>
                                        </g>
                                      </g>
                                    </g>
                                  </g>
                                </g>
                              </g>
                            </g>
                            <g id="Group_193003" data-name="Group 193003">
                              <g id="Group_193002" data-name="Group 193002">
                                <g id="Group_193001" data-name="Group 193001">
                                  <g id="Group_193000" data-name="Group 193000">
                                    <g id="Group_192999" data-name="Group 192999">
                                      <g id="Group_192998" data-name="Group 192998">
                                        <g id="Group_192997" data-name="Group 192997">
                                          <g id="Group_192996" data-name="Group 192996">
                                            <path id="Path_258673" data-name="Path 258673" d="M299.2,338.041a33.774,33.774,0,0,0,17.747-4.722s-4.306,9.08-17.568,7.843Z" fill="#eb996e"/>
                                          </g>
                                        </g>
                                      </g>
                                    </g>
                                  </g>
                                </g>
                              </g>
                            </g>
                            <g id="Group_193011" data-name="Group 193011">
                              <g id="Group_193010" data-name="Group 193010">
                                <g id="Group_193009" data-name="Group 193009">
                                  <g id="Group_193008" data-name="Group 193008">
                                    <g id="Group_193007" data-name="Group 193007">
                                      <g id="Group_193006" data-name="Group 193006">
                                        <g id="Group_193005" data-name="Group 193005">
                                          <g id="Group_193004" data-name="Group 193004">
                                            <path id="Path_258674" data-name="Path 258674" d="M301.233,320.853a3.3,3.3,0,0,1,2.954-1.221,3.011,3.011,0,0,1,2.077,1.111,1.9,1.9,0,0,1,.145,2.175,2.214,2.214,0,0,1-2.4.6,6.925,6.925,0,0,1-2.338-1.391,2.024,2.024,0,0,1-.522-.539.609.609,0,0,1,0-.68" transform="translate(271.096 -115.966) rotate(40)" fill="#eb996e"/>
                                          </g>
                                        </g>
                                      </g>
                                    </g>
                                  </g>
                                </g>
                              </g>
                            </g>
                            <g id="Group_193020" data-name="Group 193020">
                              <g id="Group_193019" data-name="Group 193019">
                                <g id="Group_193018" data-name="Group 193018">
                                  <g id="Group_193017" data-name="Group 193017">
                                    <g id="Group_193016" data-name="Group 193016">
                                      <g id="Group_193015" data-name="Group 193015">
                                        <g id="Group_193014" data-name="Group 193014">
                                          <g id="Group_193013" data-name="Group 193013">
                                            <g id="Group_193012" data-name="Group 193012">
                                              <path id="Path_258675" data-name="Path 258675" d="M305.841,317.718c-.3-.017-.3,1.963-2,3.368s-3.812,1.188-3.828,1.465c-.027.124.472.384,1.365.408a4.949,4.949,0,0,0,3.2-1.11,4.293,4.293,0,0,0,1.55-2.824C306.2,318.2,305.977,317.707,305.841,317.718Z" transform="translate(271.096 -115.966) rotate(40)" fill="#263238"/>
                                            </g>
                                          </g>
                                        </g>
                                      </g>
                                    </g>
                                  </g>
                                </g>
                              </g>
                            </g>
                          </g>
                        </g>
                      </g>
                      <g id="Group_193031" data-name="Group 193031">
                        <g id="Group_193030" data-name="Group 193030">
                          <g id="Group_193029" data-name="Group 193029">
                            <g id="Group_193028" data-name="Group 193028">
                              <g id="Group_193027" data-name="Group 193027">
                                <g id="Group_193026" data-name="Group 193026">
                                  <g id="Group_193025" data-name="Group 193025">
                                    <g id="Group_193024" data-name="Group 193024">
                                      <path id="Path_258676" data-name="Path 258676" d="M306.273,299.736c.181.5,2.007.261,4.152.519,2.151.215,3.881.841,4.166.4.127-.213-.175-.68-.874-1.16a7.289,7.289,0,0,0-6.337-.7C306.593,299.111,306.2,299.5,306.273,299.736Z" fill="#263238"/>
                                    </g>
                                  </g>
                                </g>
                              </g>
                            </g>
                          </g>
                        </g>
                      </g>
                      <g id="Group_193039" data-name="Group 193039">
                        <g id="Group_193038" data-name="Group 193038">
                          <g id="Group_193037" data-name="Group 193037">
                            <g id="Group_193036" data-name="Group 193036">
                              <g id="Group_193035" data-name="Group 193035">
                                <g id="Group_193034" data-name="Group 193034">
                                  <g id="Group_193033" data-name="Group 193033">
                                    <g id="Group_193032" data-name="Group 193032">
                                      <path id="Path_258677" data-name="Path 258677" d="M289.793,297.31c.321.415,1.581-.015,3.1-.036,1.514-.073,2.8.279,3.093-.155.129-.21-.073-.625-.633-1.017a4.492,4.492,0,0,0-4.987.154C289.826,296.681,289.651,297.108,289.793,297.31Z" fill="#263238"/>
                                    </g>
                                  </g>
                                </g>
                              </g>
                            </g>
                          </g>
                        </g>
                      </g>
                    </g>
                  </g>
                  <g id="Group_193046" data-name="Group 193046">
                    <g id="Group_193045" data-name="Group 193045">
                      <g id="Group_193044" data-name="Group 193044">
                        <g id="Group_193043" data-name="Group 193043">
                          <g id="Group_193042" data-name="Group 193042">
                            <path id="Path_258678" data-name="Path 258678" d="M327.9,307.537a3.329,3.329,0,0,1,3.465.173,6.127,6.127,0,0,1-3.872,11.38" fill="#ffbe9d"/>
                          </g>
                        </g>
                      </g>
                    </g>
                  </g>
                  <g id="Group_193051" data-name="Group 193051">
                    <g id="Group_193050" data-name="Group 193050">
                      <g id="Group_193049" data-name="Group 193049">
                        <g id="Group_193048" data-name="Group 193048">
                          <g id="Group_193047" data-name="Group 193047">
                            <path id="Path_258679" data-name="Path 258679" d="M307.069,275.758c-4.829.16-8.492,1.626-12.731,3.939a18.386,18.386,0,0,0-9.089,10.771,3.753,3.753,0,0,0,.107,2.977,2.926,2.926,0,0,0,3.634.782,8.515,8.515,0,0,0,2.956-2.719,5.669,5.669,0,0,0,11-.122c.02,2.537,2.566,4.635,5.109,4.544a6.546,6.546,0,0,0,5.64-4.441,16.5,16.5,0,0,0,2.331,6.453c1.353,1.867,3.8,3.152,6,2.438-.311,1.969-.614,4.043.087,5.911s2.781,3.38,4.672,2.732c1.836-.629,2.548-2.8,2.978-4.686a44,44,0,0,0,1.42-11.078,16.242,16.242,0,0,0-13.125-16.448,43.04,43.04,0,0,0-11.533-1.047" fill="#263238"/>
                          </g>
                        </g>
                      </g>
                    </g>
                  </g>
                  <g id="Group_193057" data-name="Group 193057">
                    <g id="Group_193056" data-name="Group 193056">
                      <g id="Group_193055" data-name="Group 193055">
                        <g id="Group_193054" data-name="Group 193054">
                          <g id="Group_193053" data-name="Group 193053">
                            <g id="Group_193052" data-name="Group 193052">
                              <path id="Path_258680" data-name="Path 258680" d="M328.829,315.147c.037-.093.515.113,1.154-.18a2.3,2.3,0,0,0,1.137-2.258,2.335,2.335,0,0,0-1.414-2.12c-.663-.271-1.151-.138-1.178-.24-.047-.066.45-.417,1.325-.221a2.435,2.435,0,0,1,1.3.806,2.945,2.945,0,0,1,.658,1.739,2.627,2.627,0,0,1-1.659,2.75C329.246,315.659,328.758,315.2,328.829,315.147Z" fill="#eb996e"/>
                            </g>
                          </g>
                        </g>
                      </g>
                    </g>
                  </g>
                </g>
              </g>
            </g>
            <g id="Group_193062" data-name="Group 193062">
              <g id="Group_193061" data-name="Group 193061">
                <ellipse id="Ellipse_10018" data-name="Ellipse 10018" cx="1.728" cy="1.724" rx="1.728" ry="1.724" transform="translate(327.496 317.252)" fill="#e8505b"/>
              </g>
            </g>
            <g id="Group_193065" data-name="Group 193065">
              <g id="Group_193064" data-name="Group 193064">
                <g id="Group_193063" data-name="Group 193063">
                  <path id="Path_258681" data-name="Path 258681" d="M319.046,271.542a5.14,5.14,0,0,1,2.152-.245,11.107,11.107,0,0,1,8.813,5.078,5.128,5.128,0,0,1,.865,1.986c-.085.036-.407-.723-1.17-1.78a12.148,12.148,0,0,0-8.534-4.917C319.876,271.533,319.057,271.634,319.046,271.542Z" fill="#e8505b"/>
                </g>
              </g>
            </g>
            <g id="Group_193068" data-name="Group 193068">
              <g id="Group_193067" data-name="Group 193067">
                <g id="Group_193066" data-name="Group 193066">
                  <path id="Path_258682" data-name="Path 258682" d="M325.973,271.549a1.239,1.239,0,0,1-.047-.416,3.107,3.107,0,0,1,.253-1.177,4.82,4.82,0,0,1,3.422-2.648c1.89-.516,4.284.453,5.946,2.282A13.061,13.061,0,0,1,337.7,272.8c.59,1.2,1.069,2.5,1.577,3.8a24.559,24.559,0,0,0,1.7,3.671,10.433,10.433,0,0,0,2.408,2.812,6.268,6.268,0,0,0,2.994,1.364,5.1,5.1,0,0,0,2.824-.394,6.051,6.051,0,0,0,2.98-2.9,13.235,13.235,0,0,0,.488-1.5,1.285,1.285,0,0,1-.008.418,4.809,4.809,0,0,1-.294,1.162,6.07,6.07,0,0,1-3.013,3.151,5.437,5.437,0,0,1-3.037.487,6.641,6.641,0,0,1-3.23-1.414,10.78,10.78,0,0,1-2.549-2.926,24.249,24.249,0,0,1-1.745-3.745c-.993-2.618-1.954-5.126-3.6-6.875-1.577-1.76-3.764-2.678-5.518-2.248a4.694,4.694,0,0,0-3.313,2.372A4.921,4.921,0,0,0,325.973,271.549Z" fill="#455a64"/>
                </g>
              </g>
            </g>
            <g id="Group_193071" data-name="Group 193071">
              <g id="Group_193070" data-name="Group 193070">
                <g id="Group_193069" data-name="Group 193069">
                  <path id="Path_258683" data-name="Path 258683" d="M301.007,291.961a1.061,1.061,0,0,1-.085-.363,9.008,9.008,0,0,1-.122-1.061,15.355,15.355,0,0,1,.245-3.92,17.579,17.579,0,0,1,2.025-5.471,16.746,16.746,0,0,1,4.8-5.29,19.461,19.461,0,0,1,6.511-2.935,19.245,19.245,0,0,1,5.8-.593,14.272,14.272,0,0,1,3.864.7,7.742,7.742,0,0,1,.993.394c.222.1.335.161.327.178a20.264,20.264,0,0,0-5.2-.909,19.833,19.833,0,0,0-5.665.69,19.583,19.583,0,0,0-6.33,2.9,16.7,16.7,0,0,0-4.683,5.107,18.048,18.048,0,0,0-2.079,5.3A24.149,24.149,0,0,0,301.007,291.961Z" fill="#455a64"/>
                </g>
              </g>
            </g>
            <g id="Group_193074" data-name="Group 193074">
              <g id="Group_193073" data-name="Group 193073">
                <g id="Group_193072" data-name="Group 193072">
                  <path id="Path_258684" data-name="Path 258684" d="M309.356,291.071a3.465,3.465,0,0,1-.036-1.029,15.413,15.413,0,0,1,.384-2.782,17.752,17.752,0,0,1,12.107-13.043,15.535,15.535,0,0,1,2.743-.6,3.531,3.531,0,0,1,1.029-.043c.015.1-1.452.218-3.657.988a18.437,18.437,0,0,0-11.864,12.783C309.461,289.606,309.455,291.079,309.356,291.071Z" fill="#455a64"/>
                </g>
              </g>
            </g>
          </g>
          <g id="Group_193159" data-name="Group 193159">
            <g id="Group_193077" data-name="Group 193077">
              <g id="Group_193076" data-name="Group 193076">
                <path id="Path_258685" data-name="Path 258685" d="M307.069,369.142c-2.893-8.868-9.969-17.9-17.743-14.641-8.653,3.626-11.058,8.222-15.8,15.344s-7.651,15.272-10.514,23.33c-1.12,3.152-2.2,6.809-.483,9.681,1.482,2.477,4.53,3.456,7.324,4.2q10.809,2.875,21.818,4.923c2.941.546,6.168,1.005,8.768-.47,3.3-1.874,4.311-6.07,5-9.8l7.244-39.252" fill="#38abc8"/>
              </g>
            </g>
            <g id="Group_193085" data-name="Group 193085">
              <g id="Group_193081" data-name="Group 193081">
                <g id="Group_193080" data-name="Group 193080">
                  <g id="Group_193079" data-name="Group 193079">
                    <g id="Group_193078" data-name="Group 193078">
                      <path id="Path_258686" data-name="Path 258686" d="M298.747,350.246l-11.383,4.907c-5.753,4.53-7.38,12.289-7.184,19.6l-4.733,80.138s33.2,20.522,72-.939c1.011-.559-6.5-18.887-6.5-18.887l10.568-40.017c.814-5.754,1.311-17.683-.19-23.345-3.852-14.523-14.151-18.867-24.73-21.775,0,0-10.583,8.879-20.907,7.008C305.689,356.933,299.39,356.348,298.747,350.246Z" fill="#38abc8"/>
                    </g>
                  </g>
                </g>
              </g>
              <g id="Group_193084" data-name="Group 193084" opacity="0.2">
                <g id="Group_193083" data-name="Group 193083">
                  <g id="Group_193082" data-name="Group 193082">
                    <path id="Path_258687" data-name="Path 258687" d="M283.46,416.964l19.7,28.549c2.568,3.721,5.237,7.542,9.047,9.976a17.029,17.029,0,0,0,25.934-17.331,4.1,4.1,0,0,0-.875-2.131,3.336,3.336,0,0,0-3.365-.644,18.106,18.106,0,0,0-3.22,1.611c-6.186,3.283-14.042,1.518-19.845-2.4s-10.063-9.668-14.506-15.081c-1.643-2-3.437-4.051-5.868-4.945s-5.659-.163-6.688,2.214"/>
                  </g>
                </g>
              </g>
            </g>
            <g id="Group_193087" data-name="Group 193087">
              <g id="Group_193086" data-name="Group 193086">
                <ellipse id="Ellipse_10019" data-name="Ellipse 10019" cx="6.801" cy="6.784" rx="6.801" ry="6.784" transform="translate(309.838 364.133)" fill="#204478" opacity="0.1"/>
              </g>
            </g>
            <g id="Group_193089" data-name="Group 193089">
              <g id="Group_193088" data-name="Group 193088">
                <path id="Path_258688" data-name="Path 258688" d="M284.939,365.128a6.8,6.8,0,1,0,6.8-6.783A6.792,6.792,0,0,0,284.939,365.128Z" fill="#204478" opacity="0.1"/>
              </g>
            </g>
            <g id="Group_193091" data-name="Group 193091">
              <g id="Group_193090" data-name="Group 193090">
                <path id="Path_258689" data-name="Path 258689" d="M279.452,430.084a6.8,6.8,0,1,0,6.8-6.783A6.792,6.792,0,0,0,279.452,430.084Z" fill="#204478" opacity="0.1"/>
              </g>
            </g>
            <g id="Group_193093" data-name="Group 193093">
              <g id="Group_193092" data-name="Group 193092">
                <ellipse id="Ellipse_10020" data-name="Ellipse 10020" cx="6.801" cy="6.784" rx="6.801" ry="6.784" transform="translate(291.74 442.832)" fill="#204478" opacity="0.1"/>
              </g>
            </g>
            <g id="Group_193095" data-name="Group 193095">
              <g id="Group_193094" data-name="Group 193094">
                <ellipse id="Ellipse_10021" data-name="Ellipse 10021" cx="6.801" cy="6.784" rx="6.801" ry="6.784" transform="translate(323.44 444.477)" fill="#204478" opacity="0.1"/>
              </g>
            </g>
            <g id="Group_193097" data-name="Group 193097">
              <g id="Group_193096" data-name="Group 193096">
                <ellipse id="Ellipse_10022" data-name="Ellipse 10022" cx="6.801" cy="6.784" rx="6.801" ry="6.784" transform="translate(296.583 402.711)" fill="#204478" opacity="0.1"/>
              </g>
            </g>
            <g id="Group_193099" data-name="Group 193099">
              <g id="Group_193098" data-name="Group 193098">
                <ellipse id="Ellipse_10023" data-name="Ellipse 10023" cx="6.801" cy="6.784" rx="6.801" ry="6.784" transform="translate(289.782 381.322)" fill="#204478" opacity="0.1"/>
              </g>
            </g>
            <g id="Group_193102" data-name="Group 193102">
              <g id="Group_193101" data-name="Group 193101">
                <g id="Group_193100" data-name="Group 193100">
                  <path id="Path_258690" data-name="Path 258690" d="M296.583,351.894a16.135,16.135,0,0,0,3.505,4.314,15.891,15.891,0,0,0,5.275,2.861,17.66,17.66,0,0,0,7.292.741,22.018,22.018,0,0,0,7.057-2.136,29.2,29.2,0,0,0,5.129-3.237,40.687,40.687,0,0,0,3.107-2.688,9.665,9.665,0,0,1,1.118-1.022,7.459,7.459,0,0,1-.974,1.165,30.8,30.8,0,0,1-3.022,2.833,27.677,27.677,0,0,1-5.144,3.379,21.825,21.825,0,0,1-7.211,2.224,17.687,17.687,0,0,1-7.5-.8,15.676,15.676,0,0,1-5.364-3.036,12.211,12.211,0,0,1-2.64-3.208,7.764,7.764,0,0,1-.5-1.014A1.16,1.16,0,0,1,296.583,351.894Z" fill="#263238"/>
                </g>
              </g>
            </g>
            <g id="Group_193126" data-name="Group 193126">
              <g id="Group_193104" data-name="Group 193104">
                <g id="Group_193103" data-name="Group 193103">
                  <path id="Path_258691" data-name="Path 258691" d="M330.851,351.43c7.777,3.251,15.871,6.732,21.242,13.215,5.46,6.591,7.362,15.546,6.965,24.086s-2.884,16.829-5.352,25.016c-.965,3.2-2.261,6.789-5.348,8.092-2.663,1.124-5.7.116-8.4-.932q-10.42-4.056-20.513-8.9c-2.7-1.293-5.57-2.826-6.793-5.55-1.554-3.46.122-7.437,1.777-10.85l17.425-35.928" fill="#38abc8"/>
                </g>
              </g>
              <g id="Group_193106" data-name="Group 193106">
                <g id="Group_193105" data-name="Group 193105">
                  <ellipse id="Ellipse_10024" data-name="Ellipse 10024" cx="6.801" cy="6.784" rx="6.801" ry="6.784" transform="translate(340.643 386.089)" fill="#204478" opacity="0.1"/>
                </g>
              </g>
              <g id="Group_193108" data-name="Group 193108">
                <g id="Group_193107" data-name="Group 193107">
                  <ellipse id="Ellipse_10025" data-name="Ellipse 10025" cx="6.801" cy="6.784" rx="6.801" ry="6.784" transform="translate(322.632 398.49)" fill="#204478" opacity="0.1"/>
                </g>
              </g>
              <g id="Group_193110" data-name="Group 193110">
                <g id="Group_193109" data-name="Group 193109">
                  <path id="Path_258692" data-name="Path 258692" d="M331.232,371.975a6.669,6.669,0,1,0,6.669-6.652A6.66,6.66,0,0,0,331.232,371.975Z" fill="#204478" opacity="0.1"/>
                </g>
              </g>
              <g id="Group_193122" data-name="Group 193122">
                <g id="Group_193112" data-name="Group 193112">
                  <g id="Group_193111" data-name="Group 193111">
                    <path id="Path_258693" data-name="Path 258693" d="M317.411,410.962l-1.734,6.678L281.12,392.453l-10.582-15.04a9.542,9.542,0,0,0-5.976-3.871h0a9.554,9.554,0,0,0-7.356,1.585l-9.845,6.986s.265,5.3,2.658,4.242,7.177-3.712,7.177-3.712l1.329,12.726,5.848,4.242,5.848,4.508,39.019,38.733a17.425,17.425,0,0,0,27.84-4.54l5.782-16.417Z" fill="#ffbe9d"/>
                  </g>
                </g>
                <g id="Group_193115" data-name="Group 193115">
                  <g id="Group_193114" data-name="Group 193114">
                    <g id="Group_193113" data-name="Group 193113">
                      <path id="Path_258694" data-name="Path 258694" d="M314.807,416.689a2.88,2.88,0,0,1,1.451.893,7.6,7.6,0,0,1,2.021,3.579,14.182,14.182,0,0,1,.375,4.073,5.078,5.078,0,0,1-.2,1.675,5.953,5.953,0,0,1-.167-1.672,19.589,19.589,0,0,0-.51-3.943,8.5,8.5,0,0,0-1.782-3.455C315.325,417.084,314.763,416.764,314.807,416.689Z" fill="#eb996e"/>
                    </g>
                  </g>
                </g>
                <g id="Group_193118" data-name="Group 193118">
                  <g id="Group_193117" data-name="Group 193117">
                    <g id="Group_193116" data-name="Group 193116">
                      <path id="Path_258695" data-name="Path 258695" d="M257.136,383.3c-.056-.037.111-.444.518-1.032a4.644,4.644,0,0,1,2.194-1.772,2.844,2.844,0,0,1,2.786.536c.566.544.546,1.079.493,1.072-.085.029-.2-.412-.728-.789a2.738,2.738,0,0,0-2.382-.327,5.325,5.325,0,0,0-2.076,1.512C257.478,383.008,257.2,383.345,257.136,383.3Z" fill="#eb996e"/>
                    </g>
                  </g>
                </g>
                <g id="Group_193121" data-name="Group 193121">
                  <g id="Group_193120" data-name="Group 193120">
                    <g id="Group_193119" data-name="Group 193119">
                      <path id="Path_258696" data-name="Path 258696" d="M263.322,386.7c-.059.052-.321-.185-.795-.449a3.91,3.91,0,0,0-3.972.016c-.472.267-.732.507-.791.455s.117-.379.583-.759a3.55,3.55,0,0,1,4.385-.018C263.2,386.322,263.372,386.66,263.322,386.7Z" fill="#eb996e"/>
                    </g>
                  </g>
                </g>
              </g>
              <g id="Group_193125" data-name="Group 193125">
                <g id="Group_193124" data-name="Group 193124">
                  <g id="Group_193123" data-name="Group 193123">
                    <path id="Path_258697" data-name="Path 258697" d="M317.411,410.962a1.943,1.943,0,0,1-.663-.158,3.689,3.689,0,0,1-1.561-1.183,5.681,5.681,0,0,1-1.136-2.885,8.369,8.369,0,0,1,.734-4.039c.567-1.419,1.419-2.847,2.144-4.448a43.33,43.33,0,0,0,1.978-5.267c1.184-3.792,2.038-8.092,3.234-12.548a39.88,39.88,0,0,1,5.047-11.974,19.491,19.491,0,0,1,7.941-6.98,14.371,14.371,0,0,1,6.994-1.419,9.144,9.144,0,0,1,2.579.489c-.013.064-.914-.226-2.588-.287a14.663,14.663,0,0,0-6.827,1.549,19.379,19.379,0,0,0-7.7,6.915,40.172,40.172,0,0,0-4.944,11.844c-1.189,4.429-2.059,8.739-3.278,12.555a42.574,42.574,0,0,1-2.045,5.3c-.755,1.621-1.621,3.03-2.2,4.407a8.179,8.179,0,0,0-.784,3.87,5.571,5.571,0,0,0,1.007,2.79,3.785,3.785,0,0,0,1.441,1.209C317.184,410.9,317.419,410.931,317.411,410.962Z" fill="#263238"/>
                  </g>
                </g>
              </g>
            </g>
            <g id="Group_193129" data-name="Group 193129">
              <g id="Group_193128" data-name="Group 193128">
                <g id="Group_193127" data-name="Group 193127">
                  <path id="Path_258698" data-name="Path 258698" d="M279.06,389.248a72.877,72.877,0,0,1,.855-8.669,72.977,72.977,0,0,1,1.373-8.6,73.065,73.065,0,0,1-.856,8.67A73.119,73.119,0,0,1,279.06,389.248Z" fill="#263238"/>
                </g>
              </g>
            </g>
            <g id="Group_193155" data-name="Group 193155">
              <g id="Group_193135" data-name="Group 193135">
                <g id="Group_193131" data-name="Group 193131">
                  <g id="Group_193130" data-name="Group 193130">
                    <path id="Path_258699" data-name="Path 258699" d="M263.517,404.1l-1.835,14.44-22.019-18.767-12.043,2.908s12.417,26.072,22.226,36.4,15.1,11.8,18.8,11.958c5.089.223,7.415-5.975,7.415-5.975l2.217-35.888Z" fill="#ffbe9d"/>
                  </g>
                </g>
                <g id="Group_193134" data-name="Group 193134">
                  <g id="Group_193133" data-name="Group 193133">
                    <g id="Group_193132" data-name="Group 193132">
                      <path id="Path_258700" data-name="Path 258700" d="M261.767,418.154a14.3,14.3,0,0,1,2.067,7.482,462.984,462.984,0,0,0-2.067-7.482Z" fill="#eb996e"/>
                    </g>
                  </g>
                </g>
              </g>
              <g id="Group_193140" data-name="Group 193140">
                <g id="Group_193137" data-name="Group 193137">
                  <g id="Group_193136" data-name="Group 193136">
                    <path id="Path_258701" data-name="Path 258701" d="M237.535,363.173H220.96c-2.507,0-4.746,2.907-3.845,5.283l16.668,32.466a3.773,3.773,0,0,0,3.358,2.049l20.206-.042a2.894,2.894,0,0,0,2.2-4.278l-16.083-31.785A6.6,6.6,0,0,0,237.535,363.173Z" fill="#455a64"/>
                  </g>
                </g>
                <g id="Group_193139" data-name="Group 193139">
                  <g id="Group_193138" data-name="Group 193138">
                    <path id="Path_258702" data-name="Path 258702" d="M236.416,365.128H219.841a2.773,2.773,0,0,0-2.475,4.034l16.272,31.76a3.77,3.77,0,0,0,3.357,2.049h19.976a1.631,1.631,0,0,0,1.46-2.365l-16.083-31.785A6.605,6.605,0,0,0,236.416,365.128Z" fill="#263238"/>
                  </g>
                </g>
              </g>
              <g id="Group_193152" data-name="Group 193152">
                <g id="Group_193142" data-name="Group 193142">
                  <g id="Group_193141" data-name="Group 193141">
                    <path id="Path_258703" data-name="Path 258703" d="M235.01,378.424l-10.087,4.03-2.162,8.128,4.859,12.1,17.825,2.593-5.221-5.336.672-4.645s4.973-1.56,5.1-2.32-.616-3.313-1.379-3.436-5.979,1.819-5.979,1.819,6.174-4.887,6-5.672-.836-2.792-2.068-3.015-11.193,4.472-11.193,4.472l-1.618,3.688-1.411-5.9S237.2,382.449,235.01,378.424Z" fill="#ffbe9d"/>
                  </g>
                </g>
                <g id="Group_193145" data-name="Group 193145">
                  <g id="Group_193144" data-name="Group 193144">
                    <g id="Group_193143" data-name="Group 193143">
                      <path id="Path_258704" data-name="Path 258704" d="M236.279,397.481c-.06.018-.249-.35-.342-1.006a5.481,5.481,0,0,1,1.731-4.675c.5-.437.879-.594.913-.541a7.723,7.723,0,0,0-2.3,6.222Z" fill="#eb996e"/>
                    </g>
                  </g>
                </g>
                <g id="Group_193148" data-name="Group 193148">
                  <g id="Group_193147" data-name="Group 193147">
                    <g id="Group_193146" data-name="Group 193146">
                      <path id="Path_258705" data-name="Path 258705" d="M231.485,395.72a22.007,22.007,0,0,0,.4-2.644,11.543,11.543,0,0,1,.507-2.927,4.348,4.348,0,0,1,.929-1.562,4.62,4.62,0,0,1,1.648-1.036c2.412-.875,4.584-1.583,6.174-2.1a13.89,13.89,0,0,1,2.6-.717,13.88,13.88,0,0,1-2.483,1.065c-1.549.6-3.734,1.374-6.1,2.232a4.206,4.206,0,0,0-1.477.909,3.968,3.968,0,0,0-.845,1.373,12.719,12.719,0,0,0-.591,2.8A5.384,5.384,0,0,1,231.485,395.72Z" fill="#eb996e"/>
                    </g>
                  </g>
                </g>
                <g id="Group_193151" data-name="Group 193151">
                  <g id="Group_193150" data-name="Group 193150">
                    <g id="Group_193149" data-name="Group 193149">
                      <path id="Path_258706" data-name="Path 258706" d="M229.171,393.9c-.142-.024-.113-.914.064-1.989s.437-1.927.578-1.9.114.914-.064,1.989S229.313,393.92,229.171,393.9Z" fill="#eb996e"/>
                    </g>
                  </g>
                </g>
              </g>
              <g id="Group_193154" data-name="Group 193154">
                <g id="Group_193153" data-name="Group 193153">
                  <path id="Path_258707" data-name="Path 258707" d="M228.9,371.254a2.112,2.112,0,1,0,2.112-2.112A2.112,2.112,0,0,0,228.9,371.254Z" fill="#fafafa"/>
                </g>
              </g>
            </g>
            <g id="Group_193158" data-name="Group 193158">
              <g id="Group_193157" data-name="Group 193157">
                <g id="Group_193156" data-name="Group 193156">
                  <path id="Path_258708" data-name="Path 258708" d="M270.221,404.119a3.409,3.409,0,0,1,.616.489l1.653,1.479,5.819,5.38.078.071-.009.111c-.262,3.367-.571,7.327-.9,11.562-.457,6.2-.814,11.821-1.013,15.89-.088,1.971-.161,3.6-.216,4.82a11.457,11.457,0,0,1-.119,1.769,11.517,11.517,0,0,1-.084-1.772c-.015-1.141-.007-2.792.051-4.831.105-4.079.4-9.707.861-15.914.313-4.252.653-8.223.976-11.565l.069.182-5.692-5.514c-.633-.635-1.154-1.155-1.567-1.569A3.435,3.435,0,0,1,270.221,404.119Z" fill="#eb996e"/>
                </g>
              </g>
            </g>
          </g>
        </g>
      </g>
    </g>
  </g>
</svg>
