<svg xmlns="http://www.w3.org/2000/svg" width="86" height="86" viewBox="0 0 86 86">
  <g id="Group_193978" data-name="Group 193978" transform="translate(-917 -323)">
    <g id="Group_193977" data-name="Group 193977">
      <circle id="Ellipse_10062" data-name="Ellipse 10062" cx="43" cy="43" r="43" transform="translate(917 323)" fill="#38abc8"/>
    </g>
    <g id="Group_115290" data-name="Group 115290" transform="translate(943.256 352.593)">
      <path id="Path_161891" data-name="Path 161891" d="M12.823,25.908a1.709,1.709,0,0,1-2.418,0L.751,16.252a2.563,2.563,0,0,1,0-3.626L1.96,11.417a2.564,2.564,0,0,1,3.627,0l6.027,6.027L27.9,1.158a2.564,2.564,0,0,1,3.627,0l1.209,1.209a2.563,2.563,0,0,1,0,3.626Zm0,0" transform="translate(0 0)" fill="#fff" stroke="rgba(0,0,0,0)" stroke-miterlimit="10" stroke-width="1"/>
    </g>
  </g>
</svg>
