<svg xmlns="http://www.w3.org/2000/svg" xmlns:xlink="http://www.w3.org/1999/xlink" width="44" height="44" viewBox="0 0 44 44">
  <defs>
    <clipPath id="clip-path">
      <rect id="Rectangle_5021" data-name="Rectangle 5021" width="44" height="44" transform="translate(20 562)" fill="#fff" stroke="#707070" stroke-width="1"/>
    </clipPath>
  </defs>
  <g id="Mask_Group_27" data-name="Mask Group 27" transform="translate(-20 -562)" clip-path="url(#clip-path)">
    <g id="pdf" transform="translate(25.107 562)">
      <path id="Path_62828" data-name="Path 62828" d="M27.086,0H4.283C3.649,0,3.134.515,3.134,1.513v41.7A1.183,1.183,0,0,0,4.283,44H35.77a1.183,1.183,0,0,0,1.15-.786V10.2c0-.547-.073-.723-.2-.852L27.575.2A.694.694,0,0,0,27.086,0Z" transform="translate(-3.134 0)" fill="#e9e9e0"/>
      <path id="Path_62829" data-name="Path 62829" d="M18.08.073v9.31h9.31Z" transform="translate(6.277 0.046)" fill="#d9d7ca"/>
      <path id="Path_62830" data-name="Path 62830" d="M10.045,24.086h0a1.261,1.261,0,0,1-.76-.256,1.883,1.883,0,0,1-.876-1.762c.143-1.279,1.725-2.618,4.7-3.982A52.742,52.742,0,0,0,16.088,9.64C15.3,7.933,14.541,5.719,15.1,4.42a1.507,1.507,0,0,1,.891-.955,3.857,3.857,0,0,1,.8-.135c.4,0,.744.51.991.824.232.3.757.922-.293,5.344a25.107,25.107,0,0,0,4,5.942,15.286,15.286,0,0,1,2.638-.281c1.23,0,1.976.287,2.28.878a1.59,1.59,0,0,1-.306,1.7,2.088,2.088,0,0,1-1.744.936,5.223,5.223,0,0,1-3.309-1.8A37.647,37.647,0,0,0,14.1,19.092a22.294,22.294,0,0,1-1.872,3.34C11.427,23.56,10.732,24.086,10.045,24.086Zm2.092-4.028c-1.679.944-2.363,1.719-2.413,2.156-.008.072-.029.262.339.544C10.179,22.721,10.863,22.409,12.136,20.059Zm10.715-3.49c.64.493.8.742,1.216.742a1.185,1.185,0,0,0,.951-.346,1.244,1.244,0,0,0,.181-.326c-.1-.051-.225-.155-.923-.155A11.489,11.489,0,0,0,22.851,16.568ZM16.982,11.4a56.014,56.014,0,0,1-2.1,5.943,39.258,39.258,0,0,1,5.1-1.587A26.9,26.9,0,0,1,16.982,11.4ZM16.5,4.748a1.884,1.884,0,0,0,.075,2.527C17.326,5.613,16.539,4.737,16.5,4.748Z" transform="translate(0.181 2.097)" fill="#cc4b4c"/>
      <path id="Path_62831" data-name="Path 62831" d="M35.77,32.161H4.283a1.149,1.149,0,0,1-1.149-1.15V18.8H36.92V31.011A1.149,1.149,0,0,1,35.77,32.161Z" transform="translate(-3.134 11.839)" fill="#cc4b4c"/>
      <g id="Group_25310" data-name="Group 25310" transform="translate(7.263 33.726)">
        <path id="Path_62832" data-name="Path 62832" d="M8.88,28.612H7.591V20.7H9.868a3.2,3.2,0,0,1,1,.161,2.716,2.716,0,0,1,.886.483,2.523,2.523,0,0,1,.634.779,2.157,2.157,0,0,1,.242,1.026,2.807,2.807,0,0,1-.2,1.091,2.279,2.279,0,0,1-.57.822,2.567,2.567,0,0,1-.881.515,3.389,3.389,0,0,1-1.138.182H8.879v2.858Zm0-6.939V24.81h1.182a1.4,1.4,0,0,0,.468-.081,1.178,1.178,0,0,0,.424-.263,1.287,1.287,0,0,0,.311-.51,2.416,2.416,0,0,0,.118-.811,2.193,2.193,0,0,0-.053-.445,1.286,1.286,0,0,0-.22-.483,1.3,1.3,0,0,0-.467-.387,1.737,1.737,0,0,0-.8-.156H8.88Z" transform="translate(-7.591 -20.696)" fill="#fff"/>
        <path id="Path_62833" data-name="Path 62833" d="M18,24.434a5.816,5.816,0,0,1-.21,1.67,4.153,4.153,0,0,1-.532,1.16,2.732,2.732,0,0,1-.725.736,3.637,3.637,0,0,1-.779.4,3.217,3.217,0,0,1-.687.172,4.578,4.578,0,0,1-.462.036h-3V20.7H14a4.531,4.531,0,0,1,1.756.317,3.646,3.646,0,0,1,1.257.843,3.461,3.461,0,0,1,.746,1.2A3.965,3.965,0,0,1,18,24.434ZM14.18,27.667a2.134,2.134,0,0,0,1.89-.838,4.252,4.252,0,0,0,.58-2.428,4.112,4.112,0,0,0-.118-.977,2.091,2.091,0,0,0-.457-.875,2.409,2.409,0,0,0-.918-.634,3.955,3.955,0,0,0-1.5-.242H12.9v5.994H14.18Z" transform="translate(-5.059 -20.696)" fill="#fff"/>
        <path id="Path_62834" data-name="Path 62834" d="M17.992,21.673v2.492H21.3v.881H17.992v3.566H16.681V20.7h4.952v.977Z" transform="translate(-1.867 -20.696)" fill="#fff"/>
      </g>
    </g>
  </g>
</svg>
