<svg xmlns="http://www.w3.org/2000/svg" width="30" height="30" viewBox="0 0 30 30">
  <g id="Group_193827" data-name="Group 193827" transform="translate(22717.483 -8061)">
    <rect id="Rectangle_25969" data-name="Rectangle 25969" width="30" height="30" rx="5" transform="translate(-22717.482 8061)" fill="#e01e5a"/>
    <path id="Path_258803" data-name="Path 258803" d="M138.238,178.663a17.354,17.354,0,0,1-1.432-1.236c-.456-.456-.863-.9-1.216-1.319a13.406,13.406,0,0,0,.792-3.048c0-1.987-.718-2.4-1.8-2.4-.819,0-1.8.426-1.8,2.452a5.741,5.741,0,0,0,1.459,3.239c-.237.724-.516,1.56-.83,2.5-.151.452-.315.871-.488,1.258q-.207.092-.41.192c-.476.238-.928.452-1.347.651-1.912.905-3.175,1.5-3.175,2.686,0,.858.933,1.39,1.8,1.39,1.113,0,2.794-1.487,4.022-3.992a23.823,23.823,0,0,1,4.11-1.109,6.869,6.869,0,0,0,2.645,1.508c1.485,0,1.8-.858,1.8-1.578,0-1.416-1.617-1.416-2.4-1.416A14.182,14.182,0,0,0,138.238,178.663Zm-8.442,5.175a.946.946,0,0,1-.6-.192c0-.425,1.266-1.024,2.49-1.6l.237-.112C131.025,183.234,130.136,183.839,129.8,183.839Zm4.191-10.72c0-1.255.389-1.255.6-1.255.423,0,.6,0,.6,1.2a9.6,9.6,0,0,1-.477,1.87A3.679,3.679,0,0,1,133.988,173.118Zm.459,6.436q.057-.157.109-.316c.222-.667.422-1.265.6-1.8q.373.41.8.841c.112.112.391.365.761.681C135.983,179.117,135.2,179.316,134.447,179.554Zm6.726.312c0,.269,0,.381-.555.384a4.414,4.414,0,0,1-1.006-.574c.169-.019.294-.028.364-.028C140.86,179.648,141.111,179.734,141.173,179.866Z" transform="translate(-22837.771 7898.545)" fill="#fff"/>
  </g>
</svg>
