<svg xmlns="http://www.w3.org/2000/svg" width="16" height="16" viewBox="0 0 16 16">
  <path id="pencil" d="M15.291.8a2.426,2.426,0,0,0-3.429,0L.98,11.68A3.324,3.324,0,0,0,0,14.045v1.374a.669.669,0,0,0,.669.669H2.043a3.323,3.323,0,0,0,2.365-.98L15.291,4.225a2.426,2.426,0,0,0,0-3.428ZM3.462,14.162a2.022,2.022,0,0,1-1.419.587h-.7v-.7a1.994,1.994,0,0,1,.588-1.419l8.259-8.259,1.539,1.539ZM14.345,3.279,12.668,4.956,11.129,3.421l1.677-1.677a1.087,1.087,0,0,1,1.536,1.539Z" transform="translate(0 -0.088)" fill="#38abc8"/>
</svg>
