<svg xmlns="http://www.w3.org/2000/svg" width="35" height="45.581" viewBox="0 0 35 45.581">
  <g id="ppt-svgrepo-com" transform="translate(-6.5)">
    <path id="Path_41" data-name="Path 41" d="M31.313,0H7.691C7.033,0,6.5.533,6.5,1.568v43.2a1.226,1.226,0,0,0,1.191.814H40.309a1.226,1.226,0,0,0,1.191-.814v-34.2c0-.567-.076-.749-.209-.883L31.82.209A.719.719,0,0,0,31.313,0Z" transform="translate(0 0)" fill="#e9e9e0"/>
    <path id="Path_42" data-name="Path 42" d="M37.5.151V9.8h9.645Z" transform="translate(-5.767 -0.028)" fill="#d9d7ca"/>
    <path id="Path_43" data-name="Path 43" d="M40.309,52.837H7.691A1.191,1.191,0,0,1,6.5,51.646V39h35V51.646A1.191,1.191,0,0,1,40.309,52.837Z" transform="translate(0 -7.256)" fill="#f6712e"/>
    <g id="Group_5" data-name="Group 5" transform="translate(14.184 34.938)">
      <path id="Path_44" data-name="Path 44" d="M17.276,51.125H15.94v-8.2H18.3a3.311,3.311,0,0,1,1.035.167,2.813,2.813,0,0,1,.918.5,2.614,2.614,0,0,1,.657.807,2.235,2.235,0,0,1,.251,1.063,2.908,2.908,0,0,1-.212,1.13,2.361,2.361,0,0,1-.59.851,2.659,2.659,0,0,1-.912.534,3.511,3.511,0,0,1-1.179.189h-.991v2.96Zm0-7.189v3.249H18.5a1.455,1.455,0,0,0,.484-.084,1.22,1.22,0,0,0,.44-.273,1.333,1.333,0,0,0,.322-.528,2.5,2.5,0,0,0,.122-.84A2.272,2.272,0,0,0,19.813,45a1.333,1.333,0,0,0-.228-.5,1.349,1.349,0,0,0-.484-.4,1.8,1.8,0,0,0-.824-.161h-1Z" transform="translate(-15.94 -42.924)" fill="#fff"/>
      <path id="Path_45" data-name="Path 45" d="M25.548,51.125H24.212v-8.2h2.359a3.311,3.311,0,0,1,1.035.167,2.813,2.813,0,0,1,.918.5,2.614,2.614,0,0,1,.657.807,2.235,2.235,0,0,1,.251,1.063,2.908,2.908,0,0,1-.212,1.13,2.361,2.361,0,0,1-.59.851,2.659,2.659,0,0,1-.912.534,3.511,3.511,0,0,1-1.179.189h-.991v2.96Zm0-7.189v3.249h1.224a1.454,1.454,0,0,0,.484-.084,1.22,1.22,0,0,0,.44-.273,1.333,1.333,0,0,0,.322-.528,2.5,2.5,0,0,0,.122-.84A2.272,2.272,0,0,0,28.085,45a1.333,1.333,0,0,0-.228-.5,1.349,1.349,0,0,0-.484-.4,1.8,1.8,0,0,0-.824-.161h-1Z" transform="translate(-17.479 -42.924)" fill="#fff"/>
      <path id="Path_46" data-name="Path 46" d="M38.179,42.924v.912H35.731v7.289H34.384V43.836H31.936v-.912Z" transform="translate(-18.916 -42.924)" fill="#fff"/>
    </g>
    <path id="Path_47" data-name="Path 47" d="M35.035,27.023H15.5V14H35.035ZM17.128,25.4H33.407V15.628H17.128Z" transform="translate(-1.674 -2.605)" fill="#c8bdb8"/>
    <path id="Path_48" data-name="Path 48" d="M20.313,33.7a.815.815,0,0,1-.7-1.233l2.442-4.07a.814.814,0,1,1,1.4.838L21.011,33.3A.812.812,0,0,1,20.313,33.7Z" transform="translate(-2.418 -5.209)" fill="#c8bdb8"/>
    <path id="Path_49" data-name="Path 49" d="M33.757,33.7a.813.813,0,0,1-.7-.395l-2.442-4.07a.814.814,0,0,1,1.4-.838l2.442,4.07a.813.813,0,0,1-.7,1.232Z" transform="translate(-4.465 -5.209)" fill="#c8bdb8"/>
    <path id="Path_50" data-name="Path 50" d="M27.314,15.07a.814.814,0,0,1-.814-.814V11.814a.814.814,0,1,1,1.628,0v2.442A.814.814,0,0,1,27.314,15.07Z" transform="translate(-3.721 -2.047)" fill="#c8bdb8"/>
    <rect id="Rectangle_1" data-name="Rectangle 1" width="16.279" height="9.767" transform="translate(15.453 13.023)" fill="#d3ccc9"/>
  </g>
</svg>
