<svg xmlns="http://www.w3.org/2000/svg" width="22.919" height="16" viewBox="0 0 22.919 16">
  <path id="Path_258830" data-name="Path 258830" d="M4.792,6.25A1.042,1.042,0,0,1,5.834,7.292,5.406,5.406,0,0,0,8,12,6.718,6.718,0,0,0,11.737,13.2H23.114L17.946,8.028a1.042,1.042,0,0,1,1.472-1.472L26.364,13.5a1.042,1.042,0,0,1,0,1.472l-6.945,6.945a1.042,1.042,0,1,1-1.472-1.472l5.167-5.167H11.737a8.8,8.8,0,0,1-4.949-1.585,7.481,7.481,0,0,1-3.038-6.4A1.042,1.042,0,0,1,4.792,6.25Z" transform="translate(-3.75 -6.25)" fill="#000e08" fill-rule="evenodd"/>
</svg>
