<svg xmlns="http://www.w3.org/2000/svg" width="25.724" height="24.151" viewBox="0 0 25.724 24.151">
  <g id="Group_193472" data-name="Group 193472" transform="translate(24506.094 12802.72)">
    <circle id="Ellipse_10069" data-name="Ellipse 10069" cx="2.04" cy="2.04" r="2.04" transform="translate(-24495.467 -12791.121)" fill="#dde2ea"/>
    <path id="Path_258758" data-name="Path 258758" d="M5.76,2.069A3.69,3.69,0,1,0,9.45,5.76a3.695,3.695,0,0,0-3.69-3.69M5.76,0A5.76,5.76,0,1,1,0,5.76,5.76,5.76,0,0,1,5.76,0Z" transform="translate(-24499.006 -12801.181)" fill="#dde2ea"/>
    <path id="Ellipse_10067" data-name="Ellipse 10067" d="M5.725,2.069A3.656,3.656,0,1,0,9.381,5.725,3.66,3.66,0,0,0,5.725,2.069M5.725,0A5.725,5.725,0,1,1,0,5.725,5.725,5.725,0,0,1,5.725,0Z" transform="translate(-24504.438 -12791.609)" fill="#dde2ea"/>
    <path id="Path_258759" data-name="Path 258759" d="M5.863,2.069A3.794,3.794,0,1,0,9.657,5.863,3.8,3.8,0,0,0,5.863,2.069M5.863,0A5.863,5.863,0,1,1,0,5.863,5.863,5.863,0,0,1,5.863,0Z" transform="translate(-24493.607 -12791.748)" fill="#dde2ea"/>
    <g id="Group_193413" data-name="Group 193413" transform="translate(-24506.094 -12802.72)">
      <path id="Path_258750" data-name="Path 258750" d="M-1479.079-568.675c.271.023.54.055.807.1a7.132,7.132,0,0,1,3.253,1.476,7.232,7.232,0,0,1,2.586,4.135,7.147,7.147,0,0,1,.17,1.651,7.371,7.371,0,0,1-.331,2.161c-.01.033-.017.066-.027.108a3.4,3.4,0,0,0,.445.123c.141.043.283.082.423.128s.29.1.432.158.272.114.405.177.272.141.41.209.4.21.4.21a7.359,7.359,0,0,1,3.446,6.28,7.067,7.067,0,0,1-3.648,6.184,7.26,7.26,0,0,1-3.071,1,7.3,7.3,0,0,1-1.783-.055,7.242,7.242,0,0,1-2.858-1.083,7.33,7.33,0,0,1-1.394-1.169.388.388,0,0,0-.147-.129c-.045.046-.086.087-.126.129a7.206,7.206,0,0,1-1.915,1.471,7.21,7.21,0,0,1-3.061.849,8.148,8.148,0,0,1-3.824-.849,7.18,7.18,0,0,1-2.488-2,7.253,7.253,0,0,1-1.394-4,7.2,7.2,0,0,1,.178-2.11,7.33,7.33,0,0,1,4.022-4.955,7.373,7.373,0,0,1,1.556-.525c.04-.009.084-.01.1-.065-.013-.045-.028-.1-.043-.146a7.381,7.381,0,0,1-.325-1.914,7.11,7.11,0,0,1,.127-1.62,7.176,7.176,0,0,1,1.955-3.741,7.19,7.19,0,0,1,3.748-2.051,8.177,8.177,0,0,1,.981-.137A8.2,8.2,0,0,1-1479.079-568.675Zm1.154,17.484a4.959,4.959,0,0,1-.293-2.4,5.024,5.024,0,0,1,1.125-2.6,5.234,5.234,0,0,1,.842-.805,5.412,5.412,0,0,0,2.16-3.893,5.29,5.29,0,0,0-.21-2.083,5.5,5.5,0,0,0-4.709-3.871,5.525,5.525,0,0,0-1.534.057,5.408,5.408,0,0,0-3.277,1.918,5.353,5.353,0,0,0-1.227,3,5.521,5.521,0,0,0,.14,1.828,5.713,5.713,0,0,0,.246.757.171.171,0,0,0,.169.126c.106,0,.212.018.317.031a7.018,7.018,0,0,1,2.731.92,3.582,3.582,0,0,0,2.313.485,3.647,3.647,0,0,0,1.869-.782,3.687,3.687,0,0,0,1.163-1.6c.023-.059.091-.225.091-.225s-.026.169-.042.225a4.772,4.772,0,0,1-1.248,2.19,4.878,4.878,0,0,1-4.03,1.485,3.979,3.979,0,0,1-1.281-.327q-.307-.137-.622-.255a5.128,5.128,0,0,0-2.8-.252,5.4,5.4,0,0,0-3.919,2.889,5.224,5.224,0,0,0-.6,2.221,5.245,5.245,0,0,0,.105,1.408,5.4,5.4,0,0,0,2.656,3.652,5.36,5.36,0,0,0,2.369.714,5.242,5.242,0,0,0,1.444-.1,5.483,5.483,0,0,0,3.248-2c.032-.041.06-.086.089-.13-.015-.04-.027-.073-.04-.1-.067-.157-.141-.312-.2-.472a6.6,6.6,0,0,1-.484-2.575c0-.018,0-.035,0-.053a3.742,3.742,0,0,0-.1-.895,3.6,3.6,0,0,0-3.1-2.785l-.262-.023s.466-.044.578-.038a4.855,4.855,0,0,1,1.566.344,5.052,5.052,0,0,1,3.14,3.981c.029.21.061.421.109.627a5.5,5.5,0,0,0,6.54,4.147,5.5,5.5,0,0,0,4.251-6.38,5.509,5.509,0,0,0-4.671-4.464.95.95,0,0,0-.133,0,.264.264,0,0,0-.032.03l-.1.143a6.991,6.991,0,0,1-2.224,2.02c-.057.032-.112.065-.168.1a3.671,3.671,0,0,0-1.02.919,3.618,3.618,0,0,0-.735,1.869,4.383,4.383,0,0,0,.144,1.629c.016.055.063.212.063.212S-1477.839-550.959-1477.925-551.191Z" transform="translate(1492.39 568.691)" fill="#99aac1"/>
    </g>
  </g>
</svg>
