<svg xmlns="http://www.w3.org/2000/svg" width="28" height="28" viewBox="0 0 28 28">
  <g id="Group_193761" data-name="Group 193761" transform="translate(-56 -629)">
    <g id="Group_193471" data-name="Group 193471" transform="translate(25 308)" opacity="0.4">
      <g id="chat-dots" transform="translate(-2105 -459)">
        <rect id="Frame" width="28" height="28" transform="translate(2136 780)" fill="#fff" opacity="0"/>
        <g id="Group_193751" data-name="Group 193751" transform="translate(1500.323 514.5)">
          <g id="Group_191848" data-name="Group 191848" transform="translate(641.185 268)">
            <path id="Path_183784" data-name="Path 183784" d="M57.662,2.831V20.169A2.831,2.831,0,0,1,54.831,23H42.446a2.831,2.831,0,0,1-2.831-2.831V18.754h1.592a1.592,1.592,0,0,0,0-3.185H39.615V13.092h1.592a1.592,1.592,0,1,0,0-3.185H39.615V7.431h1.592a1.592,1.592,0,1,0,0-3.185H39.615V2.831A2.831,2.831,0,0,1,42.446,0H54.831A2.831,2.831,0,0,1,57.662,2.831ZM46.44,8.391a2.73,2.73,0,1,0,2.73-2.73A2.73,2.73,0,0,0,46.44,8.391Zm6.976,6.672a3.033,3.033,0,0,0-3.033-3.033H47.956a3.033,3.033,0,0,0-3.033,3.033v1.213h8.492Z" transform="translate(-39.615)" fill="#fff"/>
          </g>
        </g>
      </g>
    </g>
    <path id="Path_258802" data-name="Path 258802" d="M40.938,16.885a.884.884,0,0,1-.885.885H38.285a.885.885,0,0,1,0-1.769h1.769A.884.884,0,0,1,40.938,16.885Zm0-5.662a.884.884,0,0,0-.885-.885H38.285a.885.885,0,0,0,0,1.769h1.769A.884.884,0,0,0,40.938,11.223Zm0,11.323a.884.884,0,0,0-.885-.885H38.285a.885.885,0,0,0,0,1.769h1.769A.884.884,0,0,0,40.938,22.546Z" transform="translate(23.045 626.115)" fill="#fff" opacity="0.7"/>
  </g>
</svg>
