<svg xmlns="http://www.w3.org/2000/svg" width="395.728" height="154.82" viewBox="0 0 395.728 154.82">
  <g id="Group_193428" data-name="Group 193428" transform="translate(-346.88 -5052.726)">
    <g id="Group_193427" data-name="Group 193427" transform="translate(346.88 5052.726)">
      <circle id="Ellipse_10069" data-name="Ellipse 10069" cx="10.97" cy="10.97" r="10.97" transform="translate(102.13 61.767)" fill="#38abc8"/>
      <path id="Path_258758" data-name="Path 258758" d="M30.84,11.08A19.76,19.76,0,1,0,50.6,30.84,19.782,19.782,0,0,0,30.84,11.08M30.84,0A30.84,30.84,0,1,1,0,30.84,30.84,30.84,0,0,1,30.84,0Z" transform="translate(83.378 8.239)" fill="#38abc8"/>
      <path id="Ellipse_10067" data-name="Ellipse 10067" d="M30.655,11.08A19.575,19.575,0,1,0,50.23,30.655,19.6,19.6,0,0,0,30.655,11.08m0-11.08A30.655,30.655,0,1,1,0,30.655,30.655,30.655,0,0,1,30.655,0Z" transform="translate(54.293 59.485)" fill="#38abc8"/>
      <path id="Path_258759" data-name="Path 258759" d="M31.394,11.08A20.314,20.314,0,1,0,51.708,31.394,20.337,20.337,0,0,0,31.394,11.08m0-11.08A31.394,31.394,0,1,1,0,31.394,31.394,31.394,0,0,1,31.394,0Z" transform="translate(112.278 58.746)" fill="#38abc8"/>
      <g id="Group_193413" data-name="Group 193413">
        <path id="Path_258750" data-name="Path 258750" d="M-1867.6-568.607c1.448.122,2.89.295,4.32.552a38.187,38.187,0,0,1,17.418,7.9,38.729,38.729,0,0,1,13.846,22.142,38.33,38.33,0,0,1,.908,8.84,39.454,39.454,0,0,1-1.774,11.568c-.056.175-.092.356-.147.577a18.158,18.158,0,0,0,2.385.659c.755.232,1.518.438,2.266.688q1.168.39,2.313.846c.732.293,1.457.61,2.168.95.741.354,1.458.756,2.193,1.121a12.869,12.869,0,0,0,2.116,1.123c.041-.395.076-.734.117-1.127a2.512,2.512,0,0,1,.5-.15c.282-.028.569-.015.854-.015q7.2,0,14.411,0c.406,0,.812.024,1.221.037a3.018,3.018,0,0,1,.292,1.134c.346,2.375.676,4.752,1.018,7.127.044.3.132.6.2.916.367-.154.419-.461.546-.7a24.373,24.373,0,0,1,2.12-3.364,18.91,18.91,0,0,1,10.46-6.94,29,29,0,0,1,6.645-.949,36.046,36.046,0,0,1,7.737.526,28.807,28.807,0,0,1,17.261,10.017,36.409,36.409,0,0,1,6.772,12.5,45.892,45.892,0,0,1,1.938,9.253,50.136,50.136,0,0,1,.128,9.179,45.642,45.642,0,0,1-4.151,16.34,32.892,32.892,0,0,1-6.667,9.489,28.021,28.021,0,0,1-14.1,7.528,35.09,35.09,0,0,1-9.709.633,31.379,31.379,0,0,1-6.9-1.166,19.911,19.911,0,0,1-10.863-7.819c-.195-.278-.4-.549-.666-.912a1.633,1.633,0,0,0-.175.408c-.02.347-.017.695-.017,1.042q0,15.737,0,31.474c0,.406-.013.812-.02,1.247a8.6,8.6,0,0,1-1.813.276c-2.449.266-4.9.509-7.352.754-2.168.216-4.338.424-6.507.636-.692.068-1.384.129-2.074.212a4.071,4.071,0,0,0-.632.178h-.569c.018-.346.053-.691.053-1.036q0-14.649,0-29.3c0-.253.009-.506-.006-.758a3.431,3.431,0,0,0-.091-.465,3.05,3.05,0,0,0-1.056.529,38.871,38.871,0,0,1-16.441,5.351,39.058,39.058,0,0,1-9.547-.292,38.771,38.771,0,0,1-15.3-5.8,39.267,39.267,0,0,1-7.466-6.257,2.065,2.065,0,0,0-.787-.691c-.238.245-.461.464-.673.692a38.577,38.577,0,0,1-10.253,7.874,38.6,38.6,0,0,1-16.392,4.545c-1.577.075-3.158.093-4.738.094q-40.159.008-80.318,0c-.316,0-.633.012-.948-.007a5.211,5.211,0,0,1-.617-.108,3.2,3.2,0,0,1-.123-1.356q-.006-47.123,0-94.247c0-.285-.007-.57.011-.853a4.455,4.455,0,0,1,.1-.53,2.45,2.45,0,0,1,1.074-.12q8.866,0,17.732,0a4.35,4.35,0,0,1,.474.008c.18.02.357.065.592.11.014.507.039.974.039,1.442q0,39.728,0,79.456c0,.379-.012.76.015,1.137a2.128,2.128,0,0,0,.154.489c.632.077,32.558.134,33.424.061a1.18,1.18,0,0,0,.279-.108c-.037-.393-.326-.619-.525-.883a38.861,38.861,0,0,1-7.877-21.283,38.577,38.577,0,0,1,.95-11.295,39.25,39.25,0,0,1,21.536-26.53,39.448,39.448,0,0,1,8.331-2.812c.214-.047.449-.054.55-.35-.072-.241-.149-.513-.232-.782a39.557,39.557,0,0,1-1.74-10.246,38.138,38.138,0,0,1,.681-8.674,38.432,38.432,0,0,1,10.466-20.03,38.506,38.506,0,0,1,20.067-10.981,43.69,43.69,0,0,1,5.251-.733A43.768,43.768,0,0,1-1867.6-568.607Zm6.177,93.616A26.559,26.559,0,0,1-1863-487.846a26.9,26.9,0,0,1,6.025-13.9,27.989,27.989,0,0,1,4.51-4.312,28.982,28.982,0,0,0,11.567-20.844,28.334,28.334,0,0,0-1.125-11.156,29.428,29.428,0,0,0-25.213-20.728,29.592,29.592,0,0,0-8.214.3,28.962,28.962,0,0,0-17.545,10.269,28.668,28.668,0,0,0-6.569,16.072,29.617,29.617,0,0,0,.746,9.787,30.792,30.792,0,0,0,1.318,4.052.914.914,0,0,0,.9.674c.567.016,1.133.1,1.7.167a37.568,37.568,0,0,1,14.625,4.926,19.184,19.184,0,0,0,12.382,2.595,19.531,19.531,0,0,0,10.005-4.189,19.743,19.743,0,0,0,6.228-8.555c.122-.317.489-1.206.489-1.206s-.141.9-.222,1.207a25.536,25.536,0,0,1-6.684,11.726,26.117,26.117,0,0,1-21.577,7.953,21.293,21.293,0,0,1-6.859-1.751q-1.644-.731-3.332-1.365a27.464,27.464,0,0,0-15.016-1.35,28.89,28.89,0,0,0-20.98,15.469,27.968,27.968,0,0,0-3.22,11.891,28.029,28.029,0,0,0,.563,7.537,28.9,28.9,0,0,0,14.219,19.554,28.7,28.7,0,0,0,12.687,3.822,28.06,28.06,0,0,0,7.733-.525,29.353,29.353,0,0,0,17.389-10.714c.174-.219.319-.462.478-.7-.081-.211-.143-.388-.217-.56-.36-.843-.753-1.672-1.08-2.527a35.315,35.315,0,0,1-2.593-13.785c0-.095,0-.19,0-.285a20.023,20.023,0,0,0-.543-4.79,19.3,19.3,0,0,0-16.609-14.911c-.1-.012-1.4-.122-1.4-.122s2.5-.234,3.094-.206a25.991,25.991,0,0,1,8.387,1.843,27.051,27.051,0,0,1,16.813,21.314c.155,1.126.329,2.254.584,3.36a29.459,29.459,0,0,0,35.015,22.2,29.45,29.45,0,0,0,22.761-34.158,29.5,29.5,0,0,0-25.013-23.9,5.083,5.083,0,0,0-.711,0,1.623,1.623,0,0,0-.171.159c-.189.253-.375.508-.562.763a37.42,37.42,0,0,1-11.907,10.814c-.3.17-.6.349-.9.531a19.659,19.659,0,0,0-5.46,4.923,19.378,19.378,0,0,0-3.937,10.007,23.463,23.463,0,0,0,.771,8.724c.084.295.337,1.134.337,1.134S-1860.967-473.749-1861.427-474.99Zm60.683-2.79c.028.947.045,1.9.087,2.841a34.928,34.928,0,0,0,1.154,7.662,20.752,20.752,0,0,0,3,6.6,14.69,14.69,0,0,0,7.628,5.652,19.371,19.371,0,0,0,8.322.825,14.8,14.8,0,0,0,10.763-6.325,19.506,19.506,0,0,0,2.395-4.609,32.817,32.817,0,0,0,1.875-10.012,51.518,51.518,0,0,0-.128-7.1,37.235,37.235,0,0,0-1-5.969,21.315,21.315,0,0,0-3.1-6.973A14.7,14.7,0,0,0-1777.8-501a18.955,18.955,0,0,0-6.086-.724,16.092,16.092,0,0,0-6.661,1.638,15.761,15.761,0,0,0-6.815,6.64,23.833,23.833,0,0,0-2.329,6.083A41.318,41.318,0,0,0-1800.744-477.781Z" transform="translate(1984.297 568.691)" fill="#fff"/>
        <path id="Path_258751" data-name="Path 258751" d="M1508.205,134.223c-.1-.654-.222-1.306-.309-1.963q-.668-5.023-1.316-10.049a4.922,4.922,0,0,1-.087-1.547c.332-.015.64-.04.947-.04,2.718,0,5.436.009,8.153,0a29.561,29.561,0,0,0,4.353-.2c.561-.084,1.125-.164,1.678-.289a8.806,8.806,0,0,0,5.213-3.382,18.063,18.063,0,0,0,1.849-3.083,49.183,49.183,0,0,0,2.462-6.455c.232-.721.407-1.462.664-2.173a1.88,1.88,0,0,0-.082-1.458c-1.482-3.521-2.944-7.051-4.413-10.578q-11.76-28.244-23.523-56.488c-.155-.375-.3-.754-.437-1.09.128-.274.333-.245.512-.254.252-.012.505-.007.758-.007q8.2,0,16.4,0c.4,0,.81.031,1.241.048.178.422.342.793.492,1.171q7.97,20.122,15.939,40.244,1.03,2.6,2.064,5.193c.1.254.226.5.339.744.379-.091.365-.4.441-.612.595-1.7,1.171-3.4,1.751-5.106q6.939-20.348,13.879-40.695c.1-.3.221-.584.317-.837a2.267,2.267,0,0,1,1.173-.149q4.266-.009,8.532,0,4.361,0,8.722,0c.377,0,.755.04,1.132.061v.19a4.673,4.673,0,0,0-.563,1.384q-14.249,37.019-28.479,74.045a78.008,78.008,0,0,1-3.628,8.226,39.039,39.039,0,0,1-3.864,6.062,21.6,21.6,0,0,1-11.226,7.673,34.17,34.17,0,0,1-7.271,1.207,3.715,3.715,0,0,0-1.488.207Z" transform="translate(-1181.325 20.597)" fill="#fff"/>
        <path id="Path_258752" data-name="Path 258752" d="M947.4-247.077c.787-.109,12.879-.135,14.034-.033a2.432,2.432,0,0,1,.142.5c.026.314.015.631.015.947q0,11.613,0,23.226a3.126,3.126,0,0,0,.109,1.234,2.893,2.893,0,0,0,1.125.107q5.167,0,10.335,0,2.417,0,4.835,0c.345,0,.69.022,1.086.035a4.1,4.1,0,0,1,.151.649c.025.378.012.758.012,1.137q0,4.076,0,8.153c0,.376-.02.753-.032,1.159a3.073,3.073,0,0,1-.564.164c-.314.027-.631.016-.947.016q-7.348,0-14.7,0c-.407,0-.815.018-1.259.029a3.627,3.627,0,0,0-.144.564c-.024.283-.013.568-.013.853q0,15.026.006,30.052c0,1.674.051,3.35.135,5.022a20.618,20.618,0,0,0,.549,4.031c.108.428.235.853.383,1.268a6.152,6.152,0,0,0,4.126,4,13.939,13.939,0,0,0,2.585.566,20.747,20.747,0,0,0,4.728.113c1.223-.141,2.458-.178,3.687-.252.31-.019.622,0,.942,0a1.766,1.766,0,0,1,.141.391q.517,6.47,1.021,12.941a3.008,3.008,0,0,1-.043.484,2.834,2.834,0,0,1-.468.126c-2.359.211-4.72.407-7.079.625a37.484,37.484,0,0,1-4.736.119,41.512,41.512,0,0,1-9.745-1.3,22.944,22.944,0,0,1-4.241-1.618,16.532,16.532,0,0,1-7.181-6.938,25.266,25.266,0,0,1-2.446-6.746,49.089,49.089,0,0,1-.994-7.028c-.234-3.122-.3-6.248-.3-9.377q0-13.272,0-26.544a4.748,4.748,0,0,0-.063-1.222,1.675,1.675,0,0,0-1.024-.157c-1.327-.01-2.655,0-3.982,0-2.054,0-4.109,0-6.163,0a2.012,2.012,0,0,1-1.081-.149,26.369,26.369,0,0,1,.213-2.777c.07-.913.187-1.822.273-2.734.089-.943.127-1.893.262-2.83a19.175,19.175,0,0,1,.323-2.688,2.708,2.708,0,0,1,1.179-.132q4.409-.006,8.817,0c.375,0,.75-.021,1.152-.033a3.4,3.4,0,0,0,.209-.552q1.069-5.918,2.127-11.839,1-5.546,2-11.091c.1-.528.175-1.059.276-1.586C947.247-246.5,947.335-246.8,947.4-247.077Z" transform="translate(-661.224 276.862)" fill="#fff"/>
        <path id="Path_258753" data-name="Path 258753" d="M678.068,106.466c-.99.194-12.511.267-18.021.134-.245-.006-.489-.05-.74-.077a1.9,1.9,0,0,1-.1-.407q-.006-35.213,0-70.426a1.357,1.357,0,0,1,.081-.334,1.408,1.408,0,0,1,.945-.165c1.485-.007,2.97,0,4.455,0q6.02,0,12.039,0c.4,0,.809.028,1.246.044a4.651,4.651,0,0,1,.123.591c.02.283.01.568.01.853q0,34.218,0,68.436C678.1,105.55,678.08,105.987,678.068,106.466Z" transform="translate(-415.112 20.576)" fill="#fff"/>
        <path id="Path_258754" data-name="Path 258754" d="M659.165-268.175c.243-.015.519-.044.8-.047,8.346-.076,17.289-.024,17.987.1a.37.37,0,0,1,.066.068.192.192,0,0,1,.023.091q.018,6.966.032,13.932c0,.347-.011.695-.024,1.041a1.049,1.049,0,0,1-.086.238,4.749,4.749,0,0,1-.495.1,5.532,5.532,0,0,1-.568.01q-8.343,0-16.685,0c-.343,0-.686-.023-.974-.034a1.176,1.176,0,0,1-.222-.962c-.007-1.833,0-3.665,0-5.5q0-3.981,0-7.962A1.825,1.825,0,0,1,659.165-268.175Z" transform="translate(-414.932 295.998)" fill="#fff"/>
      </g>
    </g>
  </g>
</svg>
