<svg xmlns="http://www.w3.org/2000/svg" width="319.544" height="300" viewBox="0 0 319.544 300">
  <g id="Group_193618" data-name="Group 193618" transform="translate(24506.094 12802.72)">
    <circle id="Ellipse_10069" data-name="Ellipse 10069" cx="25.341" cy="25.341" r="25.341" transform="translate(-24374.076 -12658.642)" fill="#38abc8"/>
    <path id="Path_258758" data-name="Path 258758" d="M71.55,25.707A45.843,45.843,0,1,0,117.393,71.55,45.9,45.9,0,0,0,71.55,25.707M71.55,0A71.55,71.55,0,1,1,0,71.55,71.55,71.55,0,0,1,71.55,0Z" transform="translate(-24418.029 -12783.606)" fill="#38abc8"/>
    <path id="Ellipse_10067" data-name="Ellipse 10067" d="M71.121,25.707a45.415,45.415,0,1,0,45.415,45.415A45.466,45.466,0,0,0,71.121,25.707M71.121,0A71.121,71.121,0,1,1,0,71.121,71.121,71.121,0,0,1,71.121,0Z" transform="translate(-24485.508 -12664.714)" fill="#38abc8"/>
    <path id="Path_258759" data-name="Path 258759" d="M72.835,25.707a47.129,47.129,0,1,0,47.129,47.129A47.182,47.182,0,0,0,72.835,25.707M72.835,0A72.835,72.835,0,1,1,0,72.835,72.835,72.835,0,0,1,72.835,0Z" transform="translate(-24350.979 -12666.429)" fill="#38abc8"/>
    <g id="Group_193413" data-name="Group 193413" transform="translate(-24506.094 -12802.72)">
      <path id="Path_258750" data-name="Path 258750" d="M-1327.037-568.5c3.361.283,6.7.684,10.025,1.281a88.594,88.594,0,0,1,40.409,18.337,89.846,89.846,0,0,1,32.123,51.37,88.905,88.905,0,0,1,2.108,20.51,91.516,91.516,0,0,1-4.118,26.838c-.127.406-.211.826-.34,1.338,1.831.833,3.742.979,5.533,1.53,1.75.538,3.52,1.016,5.256,1.6q2.708.9,5.365,1.962,2.55,1.02,5.032,2.2c1.718.821,3.381,1.755,5.088,2.6,1.616.8,4.907,2.607,4.907,2.607s42.8,23.7,42.8,78.015-44.967,76.6-45.321,76.814a90.171,90.171,0,0,1-38.145,12.414,90.609,90.609,0,0,1-22.148-.677,89.953,89.953,0,0,1-35.5-13.447,91.1,91.1,0,0,1-17.322-14.515,4.807,4.807,0,0,0-1.824-1.6c-.554.568-1.069,1.077-1.563,1.606a89.5,89.5,0,0,1-23.788,18.267,89.554,89.554,0,0,1-38.028,10.544c-3.66.174-26.238.562-47.5-10.544s-30.451-24.282-30.912-24.894c-11.019-14.638-16.13-31.444-17.315-49.7a89.482,89.482,0,0,1,2.205-26.2,91.059,91.059,0,0,1,49.963-61.55,91.544,91.544,0,0,1,19.327-6.524c.5-.109,1.041-.124,1.275-.811-.166-.559-.344-1.19-.538-1.815a91.77,91.77,0,0,1-4.035-23.771,88.418,88.418,0,0,1,1.58-20.124,89.154,89.154,0,0,1,24.282-46.47,89.325,89.325,0,0,1,46.556-25.477,101.405,101.405,0,0,1,12.184-1.7A101.632,101.632,0,0,1-1327.037-568.5ZM-1312.7-351.3a61.624,61.624,0,0,1-3.638-29.826,62.4,62.4,0,0,1,13.98-32.254,64.93,64.93,0,0,1,10.462-10c15.874-12.254,24.848-28.429,26.835-48.359a65.7,65.7,0,0,0-2.61-25.882,68.274,68.274,0,0,0-58.5-48.09,68.632,68.632,0,0,0-19.057.7,67.19,67.19,0,0,0-40.7,23.824,66.51,66.51,0,0,0-15.242,37.288,68.652,68.652,0,0,0,1.732,22.706,71.19,71.19,0,0,0,3.056,9.4,2.121,2.121,0,0,0,2.1,1.563c1.314.036,2.628.222,3.936.388a87.156,87.156,0,0,1,33.929,11.428,44.5,44.5,0,0,0,28.728,6.02,45.313,45.313,0,0,0,23.213-9.719,45.81,45.81,0,0,0,14.448-19.847c.282-.737,1.135-2.8,1.135-2.8s-.328,2.1-.515,2.8a59.271,59.271,0,0,1-15.508,27.2c-13.819,13.791-30.51,20.133-50.058,18.451a49.389,49.389,0,0,1-15.914-4.064q-3.816-1.7-7.732-3.167a63.708,63.708,0,0,0-34.835-3.132c-21.91,4.17-38.164,16.238-48.677,35.888a64.894,64.894,0,0,0-7.472,27.587,65.116,65.116,0,0,0,1.306,17.486c4.392,19.905,15.334,35.1,32.989,45.365a66.585,66.585,0,0,0,29.433,8.868,65.1,65.1,0,0,0,17.941-1.219,68.1,68.1,0,0,0,40.343-24.856c.4-.509.74-1.072,1.109-1.612-.188-.49-.331-.9-.5-1.3-.836-1.954-1.749-3.879-2.508-5.862-3.939-10.293-6.351-20.881-6.015-31.982.007-.22,0-.44,0-.66a46.4,46.4,0,0,0-1.262-11.113,44.776,44.776,0,0,0-38.534-34.594c-.24-.028-3.252-.283-3.252-.283s5.788-.543,7.179-.477a60.305,60.305,0,0,1,19.457,4.275,62.759,62.759,0,0,1,39.005,49.448c.36,2.611.763,5.228,1.356,7.794a68.345,68.345,0,0,0,81.234,51.51,68.327,68.327,0,0,0,52.808-79.248,68.441,68.441,0,0,0-58.03-55.458,11.8,11.8,0,0,0-1.65-.01,3.526,3.526,0,0,0-.4.37c-.44.586-.87,1.179-1.3,1.771a86.813,86.813,0,0,1-27.624,25.089c-.7.395-1.394.81-2.082,1.232a45.628,45.628,0,0,0-12.669,11.422,44.957,44.957,0,0,0-9.133,23.217,54.417,54.417,0,0,0,1.788,20.24c.193.682.78,2.63.78,2.63S-1311.637-348.422-1312.7-351.3Z" transform="translate(1492.39 568.691)" fill="#204478"/>
    </g>
  </g>
</svg>
