<svg xmlns="http://www.w3.org/2000/svg" width="395.73" height="154.821" viewBox="0 0 395.73 154.821">
  <g id="Group_193429" data-name="Group 193429" transform="translate(24998 12802.72)">
    <circle id="Ellipse_10069" data-name="Ellipse 10069" cx="10.97" cy="10.97" r="10.97" transform="translate(-24895.867 -12740.951)" fill="#38abc8"/>
    <path id="Path_258758" data-name="Path 258758" d="M30.84,11.08A19.76,19.76,0,1,0,50.6,30.84,19.782,19.782,0,0,0,30.84,11.08M30.84,0A30.84,30.84,0,1,1,0,30.84,30.84,30.84,0,0,1,30.84,0Z" transform="translate(-24914.625 -12794.481)" fill="#38abc8"/>
    <path id="Ellipse_10067" data-name="Ellipse 10067" d="M30.655,11.08A19.575,19.575,0,1,0,50.231,30.655,19.6,19.6,0,0,0,30.655,11.08m0-11.08A30.655,30.655,0,1,1,0,30.655,30.655,30.655,0,0,1,30.655,0Z" transform="translate(-24943.707 -12743.237)" fill="#38abc8"/>
    <path id="Path_258759" data-name="Path 258759" d="M31.394,11.08A20.314,20.314,0,1,0,51.708,31.394,20.337,20.337,0,0,0,31.394,11.08m0-11.08A31.394,31.394,0,1,1,0,31.394,31.394,31.394,0,0,1,31.394,0Z" transform="translate(-24885.723 -12743.974)" fill="#38abc8"/>
    <g id="Group_193413" data-name="Group 193413" transform="translate(-24998 -12802.72)">
      <path id="Path_258750" data-name="Path 258750" d="M-1867.6-568.607c1.449.122,2.889.295,4.321.552a38.185,38.185,0,0,1,17.417,7.9,38.723,38.723,0,0,1,13.846,22.142,38.326,38.326,0,0,1,.909,8.84,39.456,39.456,0,0,1-1.775,11.568c-.055.175-.091.356-.147.577a18.166,18.166,0,0,0,2.385.66c.754.232,1.517.438,2.265.688q1.167.39,2.312.846,1.1.44,2.169.95c.74.354,1.457.757,2.193,1.121a12.843,12.843,0,0,0,2.115,1.124c.041-.4.077-.734.118-1.127a2.5,2.5,0,0,1,.5-.15c.282-.028.568-.015.852-.016q7.206,0,14.412,0c.406,0,.812.023,1.221.036a3.035,3.035,0,0,1,.293,1.134c.345,2.375.675,4.751,1.019,7.127.043.3.131.6.2.916.368-.154.42-.461.547-.7a24.332,24.332,0,0,1,2.119-3.364,18.91,18.91,0,0,1,10.461-6.941,29.018,29.018,0,0,1,6.645-.949,36.091,36.091,0,0,1,7.738.526,28.806,28.806,0,0,1,17.26,10.017,36.419,36.419,0,0,1,6.772,12.5,45.893,45.893,0,0,1,1.938,9.253,50.2,50.2,0,0,1,.128,9.18,45.66,45.66,0,0,1-4.151,16.34,32.912,32.912,0,0,1-6.667,9.49,28.026,28.026,0,0,1-14.1,7.528,35.1,35.1,0,0,1-9.708.633,31.4,31.4,0,0,1-6.9-1.166,19.9,19.9,0,0,1-10.863-7.82c-.2-.278-.4-.549-.667-.912a1.672,1.672,0,0,0-.175.408c-.019.347-.016.695-.016,1.042q0,15.737,0,31.474c0,.406-.012.812-.019,1.246a8.588,8.588,0,0,1-1.813.276c-2.449.266-4.9.509-7.352.753-2.169.217-4.338.424-6.507.637-.692.068-1.384.128-2.074.212a4.1,4.1,0,0,0-.632.178h-.569c.018-.345.052-.691.052-1.036q.005-14.649,0-29.3c0-.253.008-.506-.007-.758a3.437,3.437,0,0,0-.09-.465,3.05,3.05,0,0,0-1.056.529,38.867,38.867,0,0,1-16.441,5.351,39.061,39.061,0,0,1-9.547-.292,38.771,38.771,0,0,1-15.3-5.8,39.259,39.259,0,0,1-7.466-6.257,2.074,2.074,0,0,0-.787-.691c-.238.245-.46.464-.673.692a38.579,38.579,0,0,1-10.253,7.874,38.6,38.6,0,0,1-16.392,4.545c-1.577.075-3.159.093-4.738.093q-40.159.008-80.319,0c-.316,0-.633.012-.948-.007a5.152,5.152,0,0,1-.617-.108,3.183,3.183,0,0,1-.123-1.356q-.007-47.124,0-94.247c0-.285-.007-.57.011-.853a4.351,4.351,0,0,1,.1-.53,2.451,2.451,0,0,1,1.073-.12q8.866,0,17.732,0a4.343,4.343,0,0,1,.474.008c.18.02.357.065.592.109.014.507.039.974.039,1.442q0,39.728,0,79.456c0,.379-.011.76.016,1.137a2.058,2.058,0,0,0,.154.489c.632.077,32.559.133,33.425.061a1.178,1.178,0,0,0,.279-.108c-.036-.394-.326-.619-.525-.883a38.863,38.863,0,0,1-7.878-21.284,38.577,38.577,0,0,1,.951-11.3,39.25,39.25,0,0,1,21.536-26.53,39.454,39.454,0,0,1,8.33-2.812c.214-.047.449-.053.55-.35-.072-.241-.149-.513-.232-.782a39.534,39.534,0,0,1-1.739-10.246,38.07,38.07,0,0,1,.681-8.674,38.425,38.425,0,0,1,10.466-20.03,38.5,38.5,0,0,1,20.067-10.981,43.672,43.672,0,0,1,5.251-.733A43.777,43.777,0,0,1-1867.6-568.607Zm6.177,93.617A26.56,26.56,0,0,1-1863-487.846a26.893,26.893,0,0,1,6.026-13.9,28.019,28.019,0,0,1,4.51-4.312,28.98,28.98,0,0,0,11.567-20.844,28.312,28.312,0,0,0-1.125-11.156,29.427,29.427,0,0,0-25.213-20.728,29.577,29.577,0,0,0-8.214.3,28.96,28.96,0,0,0-17.545,10.269,28.667,28.667,0,0,0-6.57,16.072,29.585,29.585,0,0,0,.747,9.787,30.6,30.6,0,0,0,1.317,4.052.914.914,0,0,0,.9.674c.567.016,1.133.1,1.7.167a37.568,37.568,0,0,1,14.624,4.926,19.18,19.18,0,0,0,12.382,2.6,19.532,19.532,0,0,0,10.006-4.189,19.74,19.74,0,0,0,6.227-8.555c.122-.318.49-1.206.49-1.206s-.141.9-.222,1.207a25.544,25.544,0,0,1-6.685,11.726,26.119,26.119,0,0,1-21.576,7.953,21.288,21.288,0,0,1-6.859-1.751q-1.645-.731-3.333-1.365a27.459,27.459,0,0,0-15.015-1.35,28.89,28.89,0,0,0-20.981,15.469,27.97,27.97,0,0,0-3.221,11.891,28.1,28.1,0,0,0,.563,7.537,28.9,28.9,0,0,0,14.219,19.554,28.7,28.7,0,0,0,12.687,3.822,28.064,28.064,0,0,0,7.733-.525,29.353,29.353,0,0,0,17.389-10.714c.174-.219.319-.462.478-.7-.081-.211-.142-.388-.216-.56-.36-.842-.754-1.672-1.081-2.527a35.333,35.333,0,0,1-2.592-13.785c0-.095,0-.19,0-.285a20,20,0,0,0-.544-4.79,19.3,19.3,0,0,0-16.609-14.911c-.1-.012-1.4-.122-1.4-.122s2.495-.234,3.094-.206a26,26,0,0,1,8.387,1.843,27.051,27.051,0,0,1,16.812,21.314c.156,1.125.329,2.253.584,3.359a29.459,29.459,0,0,0,35.015,22.2,29.451,29.451,0,0,0,22.762-34.158,29.5,29.5,0,0,0-25.012-23.9,5.1,5.1,0,0,0-.711,0,1.509,1.509,0,0,0-.171.159c-.19.253-.375.509-.561.763a37.419,37.419,0,0,1-11.907,10.814c-.3.17-.6.349-.9.531a19.656,19.656,0,0,0-5.461,4.923,19.379,19.379,0,0,0-3.937,10.007,23.449,23.449,0,0,0,.771,8.724c.083.294.336,1.134.336,1.134S-1860.967-473.748-1861.427-474.99Zm60.684-2.79c.028.947.045,1.895.087,2.841a34.929,34.929,0,0,0,1.155,7.662,20.735,20.735,0,0,0,3,6.6,14.689,14.689,0,0,0,7.628,5.652,19.367,19.367,0,0,0,8.323.825,14.8,14.8,0,0,0,10.763-6.325,19.518,19.518,0,0,0,2.395-4.609,32.806,32.806,0,0,0,1.874-10.012,51.446,51.446,0,0,0-.128-7.1,37.189,37.189,0,0,0-1-5.969,21.329,21.329,0,0,0-3.1-6.972A14.707,14.707,0,0,0-1777.8-501a18.968,18.968,0,0,0-6.086-.723,16.1,16.1,0,0,0-6.662,1.638,15.761,15.761,0,0,0-6.815,6.64,23.819,23.819,0,0,0-2.329,6.083A41.264,41.264,0,0,0-1800.743-477.78Z" transform="translate(1984.297 568.691)" fill="#204478"/>
      <path id="Path_258751" data-name="Path 258751" d="M1508.205,134.224c-.1-.654-.221-1.306-.309-1.963q-.668-5.023-1.317-10.049a4.93,4.93,0,0,1-.086-1.547c.331-.015.639-.04.948-.04,2.717,0,5.435.009,8.153,0a29.56,29.56,0,0,0,4.352-.2c.561-.084,1.125-.164,1.678-.289a8.806,8.806,0,0,0,5.213-3.382,18.126,18.126,0,0,0,1.849-3.083,49.316,49.316,0,0,0,2.462-6.455c.232-.721.407-1.462.663-2.173a1.881,1.881,0,0,0-.081-1.458c-1.482-3.521-2.944-7.051-4.413-10.578L1503.8,36.518c-.156-.375-.3-.754-.437-1.09.128-.274.332-.245.512-.254.252-.012.505-.007.758-.007q8.2,0,16.4,0c.4,0,.809.031,1.242.048.177.422.341.793.491,1.171q7.971,20.122,15.939,40.244,1.029,2.6,2.065,5.193c.1.254.226.5.338.744.379-.091.365-.4.441-.612.594-1.7,1.17-3.4,1.751-5.106q6.939-20.348,13.879-40.7c.1-.3.221-.584.318-.837a2.264,2.264,0,0,1,1.172-.149q4.266-.009,8.532,0,4.361,0,8.722,0c.378,0,.755.04,1.132.061v.19a4.7,4.7,0,0,0-.563,1.384q-14.25,37.019-28.48,74.046a77.805,77.805,0,0,1-3.627,8.226,39.057,39.057,0,0,1-3.864,6.062,21.6,21.6,0,0,1-11.226,7.673,34.166,34.166,0,0,1-7.272,1.207,3.714,3.714,0,0,0-1.488.207Z" transform="translate(-1181.323 20.597)" fill="#204478"/>
      <path id="Path_258752" data-name="Path 258752" d="M947.4-247.077c.787-.109,12.879-.135,14.035-.033a2.448,2.448,0,0,1,.142.5c.026.314.014.631.014.947q0,11.613,0,23.227a3.126,3.126,0,0,0,.109,1.234,2.89,2.89,0,0,0,1.125.107q5.167,0,10.335,0,2.417,0,4.835,0c.345,0,.69.022,1.086.035a4.089,4.089,0,0,1,.151.65c.025.378.012.758.012,1.137q0,4.076,0,8.153c0,.376-.02.753-.032,1.158a3.081,3.081,0,0,1-.563.164c-.314.027-.631.016-.948.016q-7.348,0-14.7,0c-.407,0-.815.019-1.259.029a3.613,3.613,0,0,0-.144.564c-.024.283-.013.568-.013.853q0,15.026.005,30.052c0,1.674.052,3.35.135,5.022a20.638,20.638,0,0,0,.549,4.031c.108.428.234.853.383,1.268a6.151,6.151,0,0,0,4.126,4,13.921,13.921,0,0,0,2.585.566,20.745,20.745,0,0,0,4.728.113c1.222-.141,2.457-.178,3.687-.252.31-.019.622,0,.942,0a1.746,1.746,0,0,1,.141.391q.518,6.47,1.021,12.941a2.965,2.965,0,0,1-.043.484,2.838,2.838,0,0,1-.468.126c-2.359.211-4.72.407-7.079.625a37.493,37.493,0,0,1-4.736.119,41.513,41.513,0,0,1-9.745-1.3,22.939,22.939,0,0,1-4.242-1.618,16.535,16.535,0,0,1-7.181-6.938,25.269,25.269,0,0,1-2.446-6.746,49.055,49.055,0,0,1-.994-7.029c-.234-3.122-.3-6.248-.3-9.377q0-13.272,0-26.545a4.737,4.737,0,0,0-.063-1.222,1.676,1.676,0,0,0-1.024-.157c-1.327-.01-2.655,0-3.982,0-2.054,0-4.109,0-6.163,0a2.012,2.012,0,0,1-1.081-.149,26.372,26.372,0,0,1,.213-2.777c.071-.913.187-1.822.273-2.734.089-.943.127-1.893.262-2.83a19.16,19.16,0,0,1,.323-2.688,2.711,2.711,0,0,1,1.18-.132q4.409-.006,8.818,0c.375,0,.75-.021,1.151-.033a3.348,3.348,0,0,0,.209-.552q1.07-5.918,2.127-11.839,1-5.546,2-11.091c.1-.528.175-1.059.276-1.586C947.247-246.5,947.335-246.8,947.4-247.077Z" transform="translate(-661.222 276.862)" fill="#204478"/>
      <path id="Path_258753" data-name="Path 258753" d="M678.068,106.466c-.99.194-12.511.267-18.021.134-.245-.006-.489-.05-.74-.077a1.9,1.9,0,0,1-.1-.407q-.006-35.213,0-70.426a1.341,1.341,0,0,1,.081-.334,1.408,1.408,0,0,1,.945-.165c1.485-.007,2.97,0,4.455,0q6.02,0,12.04,0c.4,0,.809.028,1.246.044a4.63,4.63,0,0,1,.123.591c.02.283.01.568.01.853q0,34.218,0,68.436C678.1,105.55,678.08,105.988,678.068,106.466Z" transform="translate(-415.111 20.576)" fill="#204478"/>
      <path id="Path_258754" data-name="Path 258754" d="M659.165-268.175c.242-.015.519-.044.8-.047,8.346-.076,17.289-.024,17.986.1a.372.372,0,0,1,.066.068.2.2,0,0,1,.023.09q.018,6.966.032,13.932c0,.347-.011.694-.024,1.041a1.076,1.076,0,0,1-.086.238,4.744,4.744,0,0,1-.5.1,5.5,5.5,0,0,1-.568.01q-8.343,0-16.685,0c-.343,0-.686-.023-.974-.034a1.176,1.176,0,0,1-.222-.962c-.007-1.833,0-3.665,0-5.5q0-3.981,0-7.962A1.824,1.824,0,0,1,659.165-268.175Z" transform="translate(-414.931 295.998)" fill="#204478"/>
    </g>
  </g>
</svg>
