<svg xmlns="http://www.w3.org/2000/svg" width="16.245" height="16.245" viewBox="0 0 16.245 16.245">
  <g id="Group_194372" data-name="Group 194372" transform="translate(-1212 -913.999)">
    <g id="Group_194371" data-name="Group 194371" transform="translate(531 176)">
      <g id="Group_194363" data-name="Group 194363" transform="translate(680.755 737.754)">
        <circle id="Ellipse_10101" data-name="Ellipse 10101" cx="8" cy="8" r="8" transform="translate(0.245 0.245)" fill="#ffd93b"/>
        <path id="Path_258850" data-name="Path 258850" d="M71.383,63.138A8.246,8.246,0,0,1,56.72,68.315,8.246,8.246,0,0,0,68.315,56.72,8.236,8.236,0,0,1,71.383,63.138Z" transform="translate(-54.893 -54.893)" fill="#f4c534"/>
        <path id="Path_258851" data-name="Path 258851" d="M126.041,308.228c.725.2-.436,4.051-4.263,4.079-3.827-.028-4.988-3.881-4.263-4.079.579-.285,2.133,1.3,4.263,1.3,2.16,0,3.684-1.582,4.263-1.3Z" transform="translate(-113.533 -298.268)" fill="#3e4347"/>
        <path id="Path_258852" data-name="Path 258852" d="M91.943,138.638a.143.143,0,0,1-.182.035c-.464-.244-2.329-1.288-2.508-2.261a1.131,1.131,0,0,1,2.03-.866,1.117,1.117,0,0,1,.886-.821,1.129,1.129,0,0,1,1.316.907C93.664,136.6,92.29,138.243,91.943,138.638Z" transform="translate(-86.36 -130.367)" fill="#e24b4b"/>
        <path id="Path_258853" data-name="Path 258853" d="M92.125,151.568c-.079.1-.148.175-.2.23a.143.143,0,0,1-.182.035c-.464-.244-2.329-1.288-2.508-2.261a1.124,1.124,0,0,1,.725-1.268,1.129,1.129,0,0,0-.323,1.017C89.817,150.279,91.627,151.306,92.125,151.568Z" transform="translate(-86.347 -143.527)" fill="#d03f3f"/>
        <g id="Group_194361" data-name="Group 194361" transform="translate(5.89 4.718)" opacity="0.2">
          <ellipse id="Ellipse_10102" data-name="Ellipse 10102" cx="0.447" cy="0.301" rx="0.447" ry="0.301" transform="translate(0.326 1.052) rotate(-111.433)" fill="#fff"/>
        </g>
        <path id="Path_258854" data-name="Path 258854" d="M285.926,138.638a.143.143,0,0,0,.182.035c.464-.244,2.329-1.288,2.508-2.261a1.131,1.131,0,0,0-2.03-.866,1.117,1.117,0,0,0-.886-.821,1.129,1.129,0,0,0-1.316.907C284.205,136.6,285.579,138.243,285.926,138.638Z" transform="translate(-275.209 -130.367)" fill="#e24b4b"/>
        <path id="Path_258855" data-name="Path 258855" d="M326.672,151.568c.079.1.148.175.2.23a.143.143,0,0,0,.182.035c.464-.244,2.329-1.288,2.508-2.261a1.124,1.124,0,0,0-.725-1.268,1.129,1.129,0,0,1,.323,1.017C328.981,150.279,327.17,151.306,326.672,151.568Z" transform="translate(-316.151 -143.527)" fill="#d03f3f"/>
        <g id="Group_194362" data-name="Group 194362" transform="translate(9.523 4.719)" opacity="0.2">
          <ellipse id="Ellipse_10103" data-name="Ellipse 10103" cx="0.301" cy="0.447" rx="0.301" ry="0.447" transform="translate(0.56 1.052) rotate(-158.567)" fill="#fff"/>
        </g>
        <path id="Path_258856" data-name="Path 258856" d="M198.242,391.049a4.885,4.885,0,0,0,1.923-.391,2.021,2.021,0,0,0-.638-.918.892.892,0,0,0-.846-.135,1.863,1.863,0,0,1-.562.085,1.969,1.969,0,0,1-.448-.053.911.911,0,0,0-.869.243,2.016,2.016,0,0,0-.482.778A4.882,4.882,0,0,0,198.242,391.049Z" transform="translate(-189.997 -377.009)" fill="#e24b4b"/>
      </g>
    </g>
  </g>
</svg>
