<svg xmlns="http://www.w3.org/2000/svg" width="16.49" height="16.49" viewBox="0 0 16.49 16.49">
  <g id="Group_194370" data-name="Group 194370" transform="translate(-1812.754 -217.21)">
    <g id="Group_194340" data-name="Group 194340" transform="translate(1812.752 217.207)">
      <path id="Path_258836" data-name="Path 258836" d="M7.281,74.56a7.279,7.279,0,1,1,7.279-7.279A7.287,7.287,0,0,1,7.281,74.56Z" transform="translate(0 -58.068)" fill="#ffde46"/>
      <path id="Path_258837" data-name="Path 258837" d="M226,60V74.56A7.279,7.279,0,0,0,226,60Z" transform="translate(-218.721 -58.068)" fill="#ffcd00"/>
      <path id="Path_258838" data-name="Path 258838" d="M79.164,203.894a.483.483,0,0,1-.457-.639,2.11,2.11,0,0,1,3.992,0,.483.483,0,0,1-.914.313,1.143,1.143,0,0,0-2.164,0,.483.483,0,0,1-.457.327Z" transform="translate(-76.145 -195.324)" fill="#00347b"/>
      <path id="Path_258839" data-name="Path 258839" d="M267.64,350h1.721v1.932H267.64Z" transform="translate(-259.018 -338.729)" fill="#f6efea" fill-rule="evenodd"/>
      <path id="Path_258840" data-name="Path 258840" d="M226.356,203.894a.483.483,0,0,1-.457-.639,2.11,2.11,0,0,1,3.992,0,.483.483,0,0,1-.914.313,1.143,1.143,0,0,0-2.164,0,.483.483,0,0,1-.457.327Zm-.728,5.665a.483.483,0,0,1-.3-.866,1.652,1.652,0,0,0,.1-2.539.483.483,0,0,1,.645-.719,2.619,2.619,0,0,1-.151,4.024A.481.481,0,0,1,225.628,209.559Z" transform="translate(-217.892 -195.324)" fill="#001737"/>
      <path id="Path_258841" data-name="Path 258841" d="M1.492,6.927a.483.483,0,0,1-.476-.4l-.1-.6.324-.956L.731,4.842.542,3.723.81,2.717l-.455-.1L.009.566A.483.483,0,0,1,.645.03L2.6.718l.091.513.967-.141,1.07.376L4.741,2l1.05-.161.556.2a.483.483,0,0,1,.151.825L1.8,6.813a.483.483,0,0,1-.311.114Z" transform="translate(0)" fill="#ff3f5c"/>
      <path id="Path_258842" data-name="Path 258842" d="M11.155,25.235l3.12-2.633-1.058-.372-2.25,1.9Zm.189,1.119.182,1.079a.481.481,0,0,0,.131-.078l4.746-4-1.058-.372Z" transform="translate(-10.613 -21.512)" fill="#d20763"/>
      <g id="Group_194339" data-name="Group 194339" transform="translate(8.14 3.909)">
        <circle id="Ellipse_10099" data-name="Ellipse 10099" cx="0.483" cy="0.483" r="0.483" fill="#a24bdb"/>
      </g>
      <path id="Path_258845" data-name="Path 258845" d="M74.894,333.588a1.459,1.459,0,0,1-.255-.023.483.483,0,1,1,.169-.951.482.482,0,0,0,.491-.214l0-.005a.483.483,0,1,1,.822.508l-.012.02A1.446,1.446,0,0,1,74.894,333.588Z" transform="translate(-71.848 -321.466)" fill="#00dd7b"/>
      <path id="Path_258846" data-name="Path 258846" d="M321.181,293a.161.161,0,0,0-.161.161v1.192a.483.483,0,0,1-.483.483h-3.875v1.932h4.359a1.932,1.932,0,0,0,1.932-1.932v-.064A1.777,1.777,0,0,0,321.181,293Z" transform="translate(-306.46 -283.565)" fill="#008adf" fill-rule="evenodd"/>
    </g>
  </g>
</svg>
