<svg xmlns="http://www.w3.org/2000/svg" width="12.207" height="12.207" viewBox="0 0 12.207 12.207">
  <g id="Group_194180" data-name="Group 194180" transform="translate(-40.627 -39.396)">
    <g id="Group_194179" data-name="Group 194179" transform="translate(36.73 35.5)">
      <g id="Group_194076" data-name="Group 194076" transform="translate(23900.896 -8447.104)">
        <path id="Path_258829" data-name="Path 258829" d="M8.6-18.252a6.017,6.017,0,0,1,1.624.218,6.082,6.082,0,0,1,1.457.616,6.144,6.144,0,0,1,1.234.955,6.144,6.144,0,0,1,.955,1.234,6.082,6.082,0,0,1,.616,1.457,6.017,6.017,0,0,1,.218,1.624,6.017,6.017,0,0,1-.218,1.624,6.082,6.082,0,0,1-.616,1.457,6.144,6.144,0,0,1-.955,1.234,6.144,6.144,0,0,1-1.234.955,6.082,6.082,0,0,1-1.457.616A6.017,6.017,0,0,1,8.6-6.045a6.017,6.017,0,0,1-1.624-.218,6.082,6.082,0,0,1-1.457-.616,6.144,6.144,0,0,1-1.234-.955,6.144,6.144,0,0,1-.955-1.234,6.082,6.082,0,0,1-.616-1.457A6.017,6.017,0,0,1,2.5-12.148a6.017,6.017,0,0,1,.218-1.624,6.082,6.082,0,0,1,.616-1.457,6.144,6.144,0,0,1,.955-1.234,6.144,6.144,0,0,1,1.234-.955,6.082,6.082,0,0,1,1.457-.616A6.017,6.017,0,0,1,8.6-18.252Z" transform="translate(-23899.5 8469.252)" fill="#ffc83d"/>
        <path id="Path_258828" data-name="Path 258828" d="M8.6-18.252a6.017,6.017,0,0,1,1.624.218,6.082,6.082,0,0,1,1.457.616,6.144,6.144,0,0,1,1.234.955,6.144,6.144,0,0,1,.955,1.234,6.082,6.082,0,0,1,.616,1.457,6.017,6.017,0,0,1,.218,1.624,6.017,6.017,0,0,1-.218,1.624,6.082,6.082,0,0,1-.616,1.457,6.144,6.144,0,0,1-.955,1.234,6.144,6.144,0,0,1-1.234.955,6.082,6.082,0,0,1-1.457.616A6.017,6.017,0,0,1,8.6-6.045a6.017,6.017,0,0,1-1.624-.218,6.082,6.082,0,0,1-1.457-.616,6.144,6.144,0,0,1-1.234-.955,6.144,6.144,0,0,1-.955-1.234,6.082,6.082,0,0,1-.616-1.457A6.017,6.017,0,0,1,2.5-12.148a6.017,6.017,0,0,1,.218-1.624,6.082,6.082,0,0,1,.616-1.457,6.144,6.144,0,0,1,.955-1.234,6.144,6.144,0,0,1,1.234-.955,6.082,6.082,0,0,1,1.457-.616A6.017,6.017,0,0,1,8.6-18.252Zm0,11.443A5.238,5.238,0,0,0,10.023-7,5.4,5.4,0,0,0,11.3-7.539a5.317,5.317,0,0,0,1.08-.833,5.317,5.317,0,0,0,.833-1.08,5.4,5.4,0,0,0,.539-1.276,5.238,5.238,0,0,0,.191-1.42,5.238,5.238,0,0,0-.191-1.42,5.4,5.4,0,0,0-.539-1.276,5.317,5.317,0,0,0-.833-1.08,5.317,5.317,0,0,0-1.08-.833,5.4,5.4,0,0,0-1.276-.539,5.238,5.238,0,0,0-1.42-.191,5.238,5.238,0,0,0-1.42.191,5.4,5.4,0,0,0-1.276.539,5.317,5.317,0,0,0-1.08.833,5.317,5.317,0,0,0-.833,1.08,5.4,5.4,0,0,0-.539,1.276,5.238,5.238,0,0,0-.191,1.42,5.238,5.238,0,0,0,.191,1.42,5.4,5.4,0,0,0,.539,1.276,5.317,5.317,0,0,0,.833,1.08,5.317,5.317,0,0,0,1.08.833A5.4,5.4,0,0,0,7.184-7,5.238,5.238,0,0,0,8.6-6.809Zm-2.1-5.721a.558.558,0,0,1-.226-.045A.58.58,0,0,1,6.1-12.7a.58.58,0,0,1-.122-.18.558.558,0,0,1-.045-.226v-.759a.564.564,0,0,1,.045-.223.572.572,0,0,1,.122-.183.58.58,0,0,1,.18-.122.558.558,0,0,1,.226-.045.545.545,0,0,1,.22.045.59.59,0,0,1,.183.125.59.59,0,0,1,.125.183.545.545,0,0,1,.045.22v.759a.545.545,0,0,1-.045.22.59.59,0,0,1-.125.183.59.59,0,0,1-.183.125A.545.545,0,0,1,6.507-12.531ZM10.7-14.436a.564.564,0,0,1,.223.045.572.572,0,0,1,.183.122.572.572,0,0,1,.122.183.564.564,0,0,1,.045.223v.759a.558.558,0,0,1-.045.226.58.58,0,0,1-.122.18.572.572,0,0,1-.183.122.564.564,0,0,1-.223.045.558.558,0,0,1-.226-.045A.53.53,0,0,1,10.3-12.7a.642.642,0,0,1-.119-.183.545.545,0,0,1-.045-.22v-.759a.545.545,0,0,1,.045-.22.642.642,0,0,1,.119-.183.53.53,0,0,1,.178-.125A.558.558,0,0,1,10.7-14.436ZM8.6-9.861a3.629,3.629,0,0,0,.881-.114,2.945,2.945,0,0,0,.823-.337,1.5,1.5,0,0,0,.135-.09q.072-.053.149-.1a1.11,1.11,0,0,1,.154-.085.368.368,0,0,1,.151-.034.358.358,0,0,1,.265.114.371.371,0,0,1,.111.268.332.332,0,0,1-.04.172.635.635,0,0,1-.114.135,1.994,1.994,0,0,1-.517.364,4.114,4.114,0,0,1-.661.263,4.993,4.993,0,0,1-.7.159A4.284,4.284,0,0,1,8.6-9.1a4.284,4.284,0,0,1-.637-.053,4.993,4.993,0,0,1-.7-.159,4.114,4.114,0,0,1-.661-.263,1.994,1.994,0,0,1-.517-.364.635.635,0,0,1-.114-.135.332.332,0,0,1-.04-.172.358.358,0,0,1,.114-.265.371.371,0,0,1,.268-.111.376.376,0,0,1,.149.034,1.207,1.207,0,0,1,.157.082q.077.048.149.1t.13.09a2.8,2.8,0,0,0,.82.34A3.7,3.7,0,0,0,8.6-9.861Z" transform="translate(-23899.5 8469.252)"/>
      </g>
    </g>
  </g>
</svg>
