<svg xmlns="http://www.w3.org/2000/svg" width="20" height="20" viewBox="0 0 20 20">
  <path id="Union_86" data-name="Union 86" d="M7752-7812a10.011,10.011,0,0,1,10-10,10.011,10.011,0,0,1,10,10,10.012,10.012,0,0,1-10,10A10.011,10.011,0,0,1,7752-7812Zm1.25,0a8.76,8.76,0,0,0,8.75,8.75,8.76,8.76,0,0,0,8.75-8.75,8.759,8.759,0,0,0-8.75-8.75A8.76,8.76,0,0,0,7753.25-7812Zm3.815,2.154a.624.624,0,0,1,.278-.836.628.628,0,0,1,.839.274,4.314,4.314,0,0,0,3.817,2.158,4.314,4.314,0,0,0,3.816-2.155.623.623,0,0,1,.56-.345.621.621,0,0,1,.279.066.625.625,0,0,1,.28.838A5.563,5.563,0,0,1,7762-7807,5.564,5.564,0,0,1,7757.066-7809.845Zm6.81-4.654a1.251,1.251,0,0,1,1.25-1.25,1.251,1.251,0,0,1,1.25,1.25,1.252,1.252,0,0,1-1.25,1.25A1.251,1.251,0,0,1,7763.875-7814.5Zm-6.25,0a1.251,1.251,0,0,1,1.25-1.25,1.252,1.252,0,0,1,1.25,1.25,1.252,1.252,0,0,1-1.25,1.25A1.251,1.251,0,0,1,7757.625-7814.5Z" transform="translate(-7752 7822)" fill="#8b9db6"/>
</svg>
